G04 Layer: TopPasteMaskLayer*
G04 EasyEDA v6.5.51, 2026-07-31 12:43:52*
G04 5a5feb92e1c84014a20b6db849bd16e2,3391b54213b649ec8eae316ce3f6a029,10*
G04 Gerber Generator version 0.2*
G04 Scale: 100 percent, Rotated: No, Reflected: No *
G04 Dimensions in millimeters *
G04 leading zeros omitted , absolute positions ,4 integer and 5 decimal *
%FSLAX45Y45*%
%MOMM*%

%AMMACRO1*21,1,$1,$2,0,0,$3*%
%ADD10R,1.2000X1.4000*%
%ADD11O,0.364007X2.082013*%
%ADD12R,1.4000X1.2000*%
%ADD13R,0.9000X0.8000*%
%ADD14R,1.8000X1.7000*%
%ADD15R,1.7000X1.8000*%
%ADD16R,0.6000X1.1000*%
%ADD17MACRO1,1.999X1.6002X0.0000*%
%ADD18MACRO1,0.2997X1.5011X0.0000*%
%ADD19C,0.0134*%
%ADD20MACRO1,0.3023X1.5011X0.0000*%
%ADD21R,1.0000X0.8999*%
%ADD22R,0.6500X0.8000*%
%ADD23R,0.5000X0.8000*%
%ADD24MACRO1,1.36X1.23X0.0000*%
%ADD25MACRO1,0.98X2.47X-90.0000*%
%ADD26MACRO1,3.6X2.47X90.0000*%
%ADD27R,2.2000X3.5000*%
%ADD28R,2.2000X1.1000*%
%ADD29O,0.364007X1.742008*%
%ADD30R,1.0200X2.3000*%
%ADD31O,0.650011X1.821993*%

%LPD*%
G36*
X1087983Y4747514D02*
G01*
X1083005Y4742484D01*
X1083005Y4627473D01*
X1087983Y4622495D01*
X1129995Y4623003D01*
X1129995Y4666996D01*
X1175004Y4666996D01*
X1175004Y4621987D01*
X1215999Y4622495D01*
X1220978Y4627473D01*
X1220978Y4742484D01*
X1215999Y4747514D01*
G37*
G36*
X1087983Y4532477D02*
G01*
X1083005Y4527499D01*
X1083005Y4412488D01*
X1087983Y4407509D01*
X1215999Y4407509D01*
X1220978Y4412488D01*
X1220978Y4527499D01*
X1215999Y4532477D01*
X1175004Y4531969D01*
X1175004Y4487976D01*
X1129995Y4487976D01*
X1129995Y4532477D01*
G37*
G36*
X1318006Y4747514D02*
G01*
X1312976Y4742484D01*
X1312976Y4627473D01*
X1318006Y4622495D01*
X1360017Y4623003D01*
X1360017Y4666996D01*
X1404975Y4666996D01*
X1404975Y4621987D01*
X1446022Y4622495D01*
X1451000Y4627473D01*
X1451000Y4742484D01*
X1446022Y4747514D01*
G37*
G36*
X1318006Y4532477D02*
G01*
X1312976Y4527499D01*
X1312976Y4412488D01*
X1318006Y4407509D01*
X1446022Y4407509D01*
X1451000Y4412488D01*
X1451000Y4527499D01*
X1446022Y4532477D01*
X1404975Y4531969D01*
X1404975Y4487976D01*
X1360017Y4487976D01*
X1360017Y4532477D01*
G37*
G36*
X1547977Y4747514D02*
G01*
X1542999Y4742484D01*
X1542999Y4627473D01*
X1547977Y4622495D01*
X1589989Y4623003D01*
X1589989Y4666996D01*
X1634998Y4666996D01*
X1634998Y4621987D01*
X1675993Y4622495D01*
X1681022Y4627473D01*
X1681022Y4742484D01*
X1675993Y4747514D01*
G37*
G36*
X1547977Y4532477D02*
G01*
X1542999Y4527499D01*
X1542999Y4412488D01*
X1547977Y4407509D01*
X1675993Y4407509D01*
X1681022Y4412488D01*
X1681022Y4527499D01*
X1675993Y4532477D01*
X1634998Y4531969D01*
X1634998Y4487976D01*
X1589989Y4487976D01*
X1589989Y4532477D01*
G37*
G36*
X277520Y3401009D02*
G01*
X272491Y3395979D01*
X272491Y3268014D01*
X277520Y3262985D01*
X392480Y3262985D01*
X397510Y3268014D01*
X397002Y3309975D01*
X353009Y3309975D01*
X353009Y3354984D01*
X398018Y3354984D01*
X397510Y3395979D01*
X392480Y3401009D01*
G37*
G36*
X492506Y3401009D02*
G01*
X487476Y3395979D01*
X487984Y3354984D01*
X531977Y3354984D01*
X531977Y3309975D01*
X487476Y3309975D01*
X487476Y3268014D01*
X492506Y3262985D01*
X607517Y3262985D01*
X612495Y3268014D01*
X612495Y3395979D01*
X607517Y3401009D01*
G37*
G36*
X277520Y2030984D02*
G01*
X272491Y2026005D01*
X272491Y1897989D01*
X277520Y1893011D01*
X392480Y1893011D01*
X397510Y1897989D01*
X397002Y1940001D01*
X353009Y1940001D01*
X353009Y1985010D01*
X398018Y1985010D01*
X397510Y2026005D01*
X392480Y2030984D01*
G37*
G36*
X492506Y2030984D02*
G01*
X487476Y2026005D01*
X487984Y1985010D01*
X531977Y1985010D01*
X531977Y1940001D01*
X487476Y1940001D01*
X487476Y1897989D01*
X492506Y1893011D01*
X607517Y1893011D01*
X612495Y1897989D01*
X612495Y2026005D01*
X607517Y2030984D01*
G37*
G36*
X4257446Y3196894D02*
G01*
X4252468Y3191916D01*
X4252976Y3149904D01*
X4296968Y3149904D01*
X4296968Y3104946D01*
X4251960Y3104946D01*
X4252468Y3063900D01*
X4257446Y3058922D01*
X4372457Y3058922D01*
X4377486Y3063900D01*
X4377486Y3191916D01*
X4372457Y3196894D01*
G37*
G36*
X4042460Y3196894D02*
G01*
X4037482Y3191916D01*
X4037482Y3063900D01*
X4042460Y3058922D01*
X4157472Y3058922D01*
X4162450Y3063900D01*
X4161942Y3104946D01*
X4117949Y3104946D01*
X4117949Y3149904D01*
X4162450Y3149904D01*
X4162450Y3191916D01*
X4157472Y3196894D01*
G37*
G36*
X4257446Y3416909D02*
G01*
X4252468Y3411931D01*
X4252976Y3369919D01*
X4296968Y3369919D01*
X4296968Y3324910D01*
X4251960Y3324910D01*
X4252468Y3283915D01*
X4257446Y3278936D01*
X4372457Y3278936D01*
X4377486Y3283915D01*
X4377486Y3411931D01*
X4372457Y3416909D01*
G37*
G36*
X4042460Y3416909D02*
G01*
X4037482Y3411931D01*
X4037482Y3283915D01*
X4042460Y3278936D01*
X4157472Y3278936D01*
X4162450Y3283915D01*
X4161942Y3324910D01*
X4117949Y3324910D01*
X4117949Y3369919D01*
X4162450Y3369919D01*
X4162450Y3411931D01*
X4157472Y3416909D01*
G37*
G36*
X2237486Y3310991D02*
G01*
X2232507Y3306013D01*
X2232507Y3177997D01*
X2237486Y3173018D01*
X2352497Y3173018D01*
X2357475Y3177997D01*
X2357018Y3220008D01*
X2312974Y3220008D01*
X2312974Y3265017D01*
X2357983Y3265017D01*
X2357475Y3306013D01*
X2352497Y3310991D01*
G37*
G36*
X2452471Y3310991D02*
G01*
X2447493Y3306013D01*
X2448001Y3265017D01*
X2491994Y3265017D01*
X2491994Y3220008D01*
X2447493Y3220008D01*
X2447493Y3177997D01*
X2452471Y3173018D01*
X2567482Y3173018D01*
X2572512Y3177997D01*
X2572512Y3306013D01*
X2567482Y3310991D01*
G37*
G36*
X2237486Y3531006D02*
G01*
X2232507Y3525977D01*
X2232507Y3398012D01*
X2237486Y3392982D01*
X2352497Y3392982D01*
X2357475Y3398012D01*
X2357018Y3439972D01*
X2312974Y3439972D01*
X2312974Y3484981D01*
X2357983Y3484981D01*
X2357475Y3525977D01*
X2352497Y3531006D01*
G37*
G36*
X2452471Y3531006D02*
G01*
X2447493Y3525977D01*
X2448001Y3484981D01*
X2491994Y3484981D01*
X2491994Y3439972D01*
X2447493Y3439972D01*
X2447493Y3398012D01*
X2452471Y3392982D01*
X2567482Y3392982D01*
X2572512Y3398012D01*
X2572512Y3525977D01*
X2567482Y3531006D01*
G37*
G36*
X3304997Y2458008D02*
G01*
X3264001Y2457500D01*
X3258972Y2452471D01*
X3258972Y2337511D01*
X3264001Y2332482D01*
X3391966Y2332482D01*
X3396996Y2337511D01*
X3396996Y2452471D01*
X3391966Y2457500D01*
X3350006Y2456992D01*
X3350006Y2413000D01*
X3304997Y2413000D01*
G37*
G36*
X3264001Y2672486D02*
G01*
X3258972Y2667508D01*
X3258972Y2552496D01*
X3264001Y2547518D01*
X3304997Y2547975D01*
X3304997Y2592019D01*
X3350006Y2592019D01*
X3350006Y2547518D01*
X3391966Y2547518D01*
X3396996Y2552496D01*
X3396996Y2667508D01*
X3391966Y2672486D01*
G37*
G36*
X4874971Y3957980D02*
G01*
X4833975Y3957472D01*
X4828997Y3952494D01*
X4828997Y3837482D01*
X4833975Y3832504D01*
X4961991Y3832504D01*
X4966970Y3837482D01*
X4966970Y3952494D01*
X4961991Y3957472D01*
X4919980Y3957015D01*
X4919980Y3912971D01*
X4874971Y3912971D01*
G37*
G36*
X4833975Y4172508D02*
G01*
X4828997Y4167479D01*
X4828997Y4052468D01*
X4833975Y4047490D01*
X4874971Y4047998D01*
X4874971Y4091990D01*
X4919980Y4091990D01*
X4919980Y4047490D01*
X4961991Y4047490D01*
X4966970Y4052468D01*
X4966970Y4167479D01*
X4961991Y4172508D01*
G37*
G36*
X1115009Y3029000D02*
G01*
X1109980Y3023971D01*
X1109980Y2896006D01*
X1115009Y2890977D01*
X1230020Y2890977D01*
X1234998Y2896006D01*
X1234490Y2937967D01*
X1190498Y2937967D01*
X1190498Y2982976D01*
X1235506Y2982976D01*
X1234998Y3023971D01*
X1230020Y3029000D01*
G37*
G36*
X1329994Y3029000D02*
G01*
X1325016Y3023971D01*
X1325473Y2982976D01*
X1369517Y2982976D01*
X1369517Y2937967D01*
X1325016Y2937967D01*
X1325016Y2896006D01*
X1329994Y2890977D01*
X1445006Y2890977D01*
X1449984Y2896006D01*
X1449984Y3023971D01*
X1445006Y3029000D01*
G37*
G36*
X1115009Y2769006D02*
G01*
X1109980Y2763977D01*
X1109980Y2636012D01*
X1115009Y2630982D01*
X1230020Y2630982D01*
X1234998Y2636012D01*
X1234490Y2677972D01*
X1190498Y2677972D01*
X1190498Y2722981D01*
X1235506Y2722981D01*
X1234998Y2763977D01*
X1230020Y2769006D01*
G37*
G36*
X1329994Y2769006D02*
G01*
X1325016Y2763977D01*
X1325473Y2722981D01*
X1369517Y2722981D01*
X1369517Y2677972D01*
X1325016Y2677972D01*
X1325016Y2636012D01*
X1329994Y2630982D01*
X1445006Y2630982D01*
X1449984Y2636012D01*
X1449984Y2763977D01*
X1445006Y2769006D01*
G37*
G36*
X1156004Y4259986D02*
G01*
X1150975Y4255008D01*
X1150975Y4139996D01*
X1156004Y4135018D01*
X1198016Y4135475D01*
X1198016Y4179468D01*
X1242974Y4179468D01*
X1242974Y4134510D01*
X1283970Y4135018D01*
X1288999Y4139996D01*
X1288999Y4255008D01*
X1283970Y4259986D01*
G37*
G36*
X1156004Y4045000D02*
G01*
X1150975Y4039971D01*
X1150975Y3925011D01*
X1156004Y3919982D01*
X1283970Y3919982D01*
X1288999Y3925011D01*
X1288999Y4039971D01*
X1283970Y4045000D01*
X1242974Y4044492D01*
X1242974Y4000500D01*
X1198016Y4000500D01*
X1198016Y4045000D01*
G37*
G36*
X5836005Y3309975D02*
G01*
X5830976Y3304997D01*
X5830976Y3189986D01*
X5836005Y3185007D01*
X5877966Y3185515D01*
X5877966Y3229508D01*
X5922975Y3229508D01*
X5922975Y3184499D01*
X5963970Y3185007D01*
X5969000Y3189986D01*
X5969000Y3304997D01*
X5963970Y3309975D01*
G37*
G36*
X5836005Y3094990D02*
G01*
X5830976Y3090011D01*
X5830976Y2975000D01*
X5836005Y2969971D01*
X5963970Y2969971D01*
X5969000Y2975000D01*
X5969000Y3090011D01*
X5963970Y3094990D01*
X5922975Y3094482D01*
X5922975Y3050489D01*
X5877966Y3050489D01*
X5877966Y3094990D01*
G37*
G36*
X5834989Y3828999D02*
G01*
X5830011Y3823970D01*
X5830011Y3696004D01*
X5834989Y3690975D01*
X5950000Y3690975D01*
X5954979Y3696004D01*
X5954471Y3737965D01*
X5910478Y3737965D01*
X5910478Y3782974D01*
X5955487Y3782974D01*
X5954979Y3823970D01*
X5950000Y3828999D01*
G37*
G36*
X6049975Y3828999D02*
G01*
X6044996Y3823970D01*
X6045504Y3782974D01*
X6089497Y3782974D01*
X6089497Y3737965D01*
X6044996Y3737965D01*
X6044996Y3696004D01*
X6049975Y3690975D01*
X6164986Y3690975D01*
X6169964Y3696004D01*
X6169964Y3823970D01*
X6164986Y3828999D01*
G37*
G36*
X5834989Y4288993D02*
G01*
X5830011Y4284014D01*
X5830011Y4155998D01*
X5834989Y4150969D01*
X5950000Y4150969D01*
X5954979Y4155998D01*
X5954471Y4198010D01*
X5910478Y4198010D01*
X5910478Y4242968D01*
X5955487Y4242968D01*
X5954979Y4284014D01*
X5950000Y4288993D01*
G37*
G36*
X6049975Y4288993D02*
G01*
X6044996Y4284014D01*
X6045504Y4242968D01*
X6089497Y4242968D01*
X6089497Y4198010D01*
X6044996Y4198010D01*
X6044996Y4155998D01*
X6049975Y4150969D01*
X6164986Y4150969D01*
X6169964Y4155998D01*
X6169964Y4284014D01*
X6164986Y4288993D01*
G37*
G36*
X950010Y468985D02*
G01*
X944981Y464007D01*
X945489Y421995D01*
X989482Y421995D01*
X989482Y376986D01*
X944473Y376986D01*
X944981Y335991D01*
X950010Y331012D01*
X1065022Y331012D01*
X1070000Y335991D01*
X1070000Y464007D01*
X1065022Y468985D01*
G37*
G36*
X734974Y468985D02*
G01*
X729996Y464007D01*
X729996Y335991D01*
X734974Y331012D01*
X849985Y331012D01*
X855014Y335991D01*
X854506Y376986D01*
X810514Y376986D01*
X810514Y421995D01*
X855014Y421995D01*
X855014Y464007D01*
X849985Y468985D01*
G37*
G36*
X1449984Y458978D02*
G01*
X1445006Y453999D01*
X1445514Y411988D01*
X1489506Y411988D01*
X1489506Y367030D01*
X1444498Y367030D01*
X1445006Y325983D01*
X1449984Y321005D01*
X1564995Y321005D01*
X1570024Y325983D01*
X1570024Y453999D01*
X1564995Y458978D01*
G37*
G36*
X1234998Y458978D02*
G01*
X1230020Y453999D01*
X1230020Y325983D01*
X1234998Y321005D01*
X1350010Y321005D01*
X1354988Y325983D01*
X1354480Y367030D01*
X1310487Y367030D01*
X1310487Y411988D01*
X1354988Y411988D01*
X1354988Y453999D01*
X1350010Y458978D01*
G37*
G36*
X4409998Y1624482D02*
G01*
X4404969Y1619504D01*
X4404969Y1539494D01*
X4409998Y1534515D01*
X4432808Y1534515D01*
X4432808Y1571498D01*
X4465777Y1571498D01*
X4465777Y1534515D01*
X4490008Y1534515D01*
X4494987Y1539494D01*
X4494987Y1619504D01*
X4490008Y1624482D01*
G37*
G36*
X4409998Y1464513D02*
G01*
X4404969Y1459484D01*
X4404969Y1380490D01*
X4409998Y1375511D01*
X4490008Y1375511D01*
X4494987Y1380490D01*
X4494987Y1459484D01*
X4490008Y1464513D01*
X4465777Y1464513D01*
X4465777Y1426514D01*
X4432808Y1426514D01*
X4432808Y1464513D01*
G37*
G36*
X4630470Y995019D02*
G01*
X4625492Y989990D01*
X4625492Y909980D01*
X4630470Y905002D01*
X4710480Y905002D01*
X4715510Y909980D01*
X4715510Y932789D01*
X4678476Y932789D01*
X4678476Y965809D01*
X4715510Y965809D01*
X4715510Y989990D01*
X4710480Y995019D01*
G37*
G36*
X4790490Y995019D02*
G01*
X4785512Y989990D01*
X4785512Y965809D01*
X4823510Y965809D01*
X4823510Y932789D01*
X4785512Y932789D01*
X4785512Y909980D01*
X4790490Y905002D01*
X4869484Y905002D01*
X4874463Y909980D01*
X4874463Y989990D01*
X4869484Y995019D01*
G37*
G36*
X6094933Y3032506D02*
G01*
X6084925Y3022498D01*
X6084925Y2921762D01*
X6094933Y2911754D01*
X6245047Y2911754D01*
X6255054Y2921762D01*
X6255054Y3022498D01*
X6245047Y3032506D01*
X6208928Y3032506D01*
X6198920Y3022498D01*
X6198920Y3001416D01*
X6188913Y2991459D01*
X6151067Y2991459D01*
X6141059Y3001416D01*
X6141059Y3022498D01*
X6131052Y3032506D01*
G37*
G36*
X6094933Y3328263D02*
G01*
X6084925Y3318256D01*
X6084925Y3217468D01*
X6094933Y3207512D01*
X6131052Y3207512D01*
X6141059Y3217468D01*
X6141059Y3238550D01*
X6151067Y3248558D01*
X6188913Y3248558D01*
X6198920Y3238550D01*
X6198920Y3217468D01*
X6208928Y3207512D01*
X6245047Y3207512D01*
X6255054Y3217468D01*
X6255054Y3318256D01*
X6245047Y3328263D01*
G37*
G36*
X4201718Y4705045D02*
G01*
X4191762Y4695037D01*
X4191762Y4544923D01*
X4201718Y4534966D01*
X4302506Y4534966D01*
X4312513Y4544923D01*
X4312513Y4581093D01*
X4302506Y4591050D01*
X4281424Y4591050D01*
X4271416Y4601057D01*
X4271416Y4638903D01*
X4281424Y4648911D01*
X4302506Y4648911D01*
X4312513Y4658918D01*
X4312513Y4695037D01*
X4302506Y4705045D01*
G37*
G36*
X4497476Y4705045D02*
G01*
X4487468Y4695037D01*
X4487468Y4658918D01*
X4497476Y4648911D01*
X4518558Y4648911D01*
X4528566Y4638903D01*
X4528566Y4601057D01*
X4518558Y4591050D01*
X4497476Y4591050D01*
X4487468Y4581093D01*
X4487468Y4544923D01*
X4497476Y4534966D01*
X4598263Y4534966D01*
X4608220Y4544923D01*
X4608220Y4695037D01*
X4598263Y4705045D01*
G37*
G36*
X4201718Y4285030D02*
G01*
X4191762Y4275023D01*
X4191762Y4124960D01*
X4201718Y4114952D01*
X4302506Y4114952D01*
X4312513Y4124960D01*
X4312513Y4161078D01*
X4302506Y4171086D01*
X4281424Y4171086D01*
X4271416Y4181094D01*
X4271416Y4218889D01*
X4281424Y4228896D01*
X4302506Y4228896D01*
X4312513Y4238904D01*
X4312513Y4275023D01*
X4302506Y4285030D01*
G37*
G36*
X4497476Y4285030D02*
G01*
X4487468Y4275023D01*
X4487468Y4238904D01*
X4497476Y4228896D01*
X4518558Y4228896D01*
X4528566Y4218889D01*
X4528566Y4181094D01*
X4518558Y4171086D01*
X4497476Y4171086D01*
X4487468Y4161078D01*
X4487468Y4124960D01*
X4497476Y4114952D01*
X4598263Y4114952D01*
X4608220Y4124960D01*
X4608220Y4275023D01*
X4598263Y4285030D01*
G37*
G36*
X4964938Y3062478D02*
G01*
X4954930Y3052470D01*
X4954930Y2951734D01*
X4964938Y2941726D01*
X5115052Y2941726D01*
X5125059Y2951734D01*
X5125059Y3052470D01*
X5115052Y3062478D01*
X5078933Y3062478D01*
X5068925Y3052470D01*
X5068925Y3031439D01*
X5058918Y3021431D01*
X5021072Y3021431D01*
X5011064Y3031439D01*
X5011064Y3052470D01*
X5001056Y3062478D01*
G37*
G36*
X4964938Y3358235D02*
G01*
X4954930Y3348228D01*
X4954930Y3247491D01*
X4964938Y3237484D01*
X5001056Y3237484D01*
X5011064Y3247491D01*
X5011064Y3268573D01*
X5021072Y3278530D01*
X5058918Y3278530D01*
X5068925Y3268573D01*
X5068925Y3247491D01*
X5078933Y3237484D01*
X5115052Y3237484D01*
X5125059Y3247491D01*
X5125059Y3348228D01*
X5115052Y3358235D01*
G37*
G36*
X5514949Y3062478D02*
G01*
X5504942Y3052470D01*
X5504942Y2951734D01*
X5514949Y2941726D01*
X5665063Y2941726D01*
X5675020Y2951734D01*
X5675020Y3052470D01*
X5665063Y3062478D01*
X5628894Y3062478D01*
X5618886Y3052470D01*
X5618886Y3031439D01*
X5608929Y3021431D01*
X5571083Y3021431D01*
X5561076Y3031439D01*
X5561076Y3052470D01*
X5551068Y3062478D01*
G37*
G36*
X5514949Y3358235D02*
G01*
X5504942Y3348228D01*
X5504942Y3247491D01*
X5514949Y3237484D01*
X5551068Y3237484D01*
X5561076Y3247491D01*
X5561076Y3268573D01*
X5571083Y3278530D01*
X5608929Y3278530D01*
X5618886Y3268573D01*
X5618886Y3247491D01*
X5628894Y3237484D01*
X5665063Y3237484D01*
X5675020Y3247491D01*
X5675020Y3348228D01*
X5665063Y3358235D01*
G37*
G36*
X3824935Y4212488D02*
G01*
X3814927Y4202480D01*
X3814927Y4101744D01*
X3824935Y4091736D01*
X3975049Y4091736D01*
X3985056Y4101744D01*
X3985056Y4202480D01*
X3975049Y4212488D01*
X3938930Y4212488D01*
X3928922Y4202480D01*
X3928922Y4181449D01*
X3918915Y4171442D01*
X3881069Y4171442D01*
X3871061Y4181449D01*
X3871061Y4202480D01*
X3861054Y4212488D01*
G37*
G36*
X3824935Y4508246D02*
G01*
X3814927Y4498238D01*
X3814927Y4397502D01*
X3824935Y4387494D01*
X3861054Y4387494D01*
X3871061Y4397502D01*
X3871061Y4418533D01*
X3881069Y4428540D01*
X3918915Y4428540D01*
X3928922Y4418533D01*
X3928922Y4397502D01*
X3938930Y4387494D01*
X3975049Y4387494D01*
X3985056Y4397502D01*
X3985056Y4498238D01*
X3975049Y4508246D01*
G37*
G36*
X5324957Y1908251D02*
G01*
X5314950Y1898243D01*
X5314950Y1797507D01*
X5324957Y1787499D01*
X5361076Y1787499D01*
X5371084Y1797507D01*
X5371084Y1818538D01*
X5381091Y1828546D01*
X5418886Y1828546D01*
X5428894Y1818538D01*
X5428894Y1797507D01*
X5438902Y1787499D01*
X5475020Y1787499D01*
X5485028Y1797507D01*
X5485028Y1898243D01*
X5475020Y1908251D01*
G37*
G36*
X5324957Y1612493D02*
G01*
X5314950Y1602486D01*
X5314950Y1501749D01*
X5324957Y1491742D01*
X5475020Y1491742D01*
X5485028Y1501749D01*
X5485028Y1602486D01*
X5475020Y1612493D01*
X5438902Y1612493D01*
X5428894Y1602486D01*
X5428894Y1581454D01*
X5418886Y1571447D01*
X5381091Y1571447D01*
X5371084Y1581454D01*
X5371084Y1602486D01*
X5361076Y1612493D01*
G37*
G36*
X3544976Y2458008D02*
G01*
X3503980Y2457500D01*
X3499002Y2452471D01*
X3499002Y2337511D01*
X3503980Y2332482D01*
X3631996Y2332482D01*
X3636975Y2337511D01*
X3636975Y2452471D01*
X3631996Y2457500D01*
X3589985Y2456992D01*
X3589985Y2413000D01*
X3544976Y2413000D01*
G37*
G36*
X3503980Y2672486D02*
G01*
X3499002Y2667508D01*
X3499002Y2552496D01*
X3503980Y2547518D01*
X3544976Y2547975D01*
X3544976Y2592019D01*
X3589985Y2592019D01*
X3589985Y2547518D01*
X3631996Y2547518D01*
X3636975Y2552496D01*
X3636975Y2667508D01*
X3631996Y2672486D01*
G37*
G36*
X4257497Y3636975D02*
G01*
X4252518Y3631996D01*
X4252976Y3589985D01*
X4296968Y3589985D01*
X4296968Y3544976D01*
X4252010Y3544976D01*
X4252518Y3503980D01*
X4257497Y3499002D01*
X4372508Y3499002D01*
X4377486Y3503980D01*
X4377486Y3631996D01*
X4372508Y3636975D01*
G37*
G36*
X4042511Y3636975D02*
G01*
X4037482Y3631996D01*
X4037482Y3503980D01*
X4042511Y3499002D01*
X4157472Y3499002D01*
X4162501Y3503980D01*
X4161993Y3544976D01*
X4118000Y3544976D01*
X4118000Y3589985D01*
X4162501Y3589985D01*
X4162501Y3631996D01*
X4157472Y3636975D01*
G37*
G36*
X2237486Y3741013D02*
G01*
X2232507Y3735984D01*
X2232507Y3608019D01*
X2237486Y3602990D01*
X2352497Y3602990D01*
X2357475Y3608019D01*
X2357018Y3649979D01*
X2312974Y3649979D01*
X2312974Y3694988D01*
X2357983Y3694988D01*
X2357475Y3735984D01*
X2352497Y3741013D01*
G37*
G36*
X2452471Y3741013D02*
G01*
X2447493Y3735984D01*
X2448001Y3694988D01*
X2491994Y3694988D01*
X2491994Y3649979D01*
X2447493Y3649979D01*
X2447493Y3608019D01*
X2452471Y3602990D01*
X2567482Y3602990D01*
X2572512Y3608019D01*
X2572512Y3735984D01*
X2567482Y3741013D01*
G37*
G36*
X468884Y5653278D02*
G01*
X441451Y5623915D01*
X441451Y5596280D01*
X468884Y5566918D01*
X519226Y5566918D01*
X525627Y5573318D01*
X525627Y5646877D01*
X519226Y5653278D01*
G37*
G36*
X300685Y5653278D02*
G01*
X294284Y5646877D01*
X294284Y5573318D01*
X300685Y5566918D01*
X351028Y5566918D01*
X378460Y5596280D01*
X378460Y5623915D01*
X351028Y5653278D01*
G37*
G36*
X3560927Y3774033D02*
G01*
X3560927Y3707536D01*
X3588918Y3707536D01*
X3588918Y3774033D01*
G37*
G36*
X3510889Y3774033D02*
G01*
X3510889Y3707536D01*
X3538931Y3707536D01*
X3538931Y3774033D01*
G37*
G36*
X3010916Y3774033D02*
G01*
X3010916Y3707536D01*
X3038906Y3707536D01*
X3038906Y3774033D01*
G37*
G36*
X3460902Y3774033D02*
G01*
X3460902Y3707536D01*
X3488944Y3707536D01*
X3488944Y3774033D01*
G37*
G36*
X3410915Y3774033D02*
G01*
X3410915Y3707536D01*
X3438906Y3707536D01*
X3438906Y3774033D01*
G37*
G36*
X3360928Y3774033D02*
G01*
X3360928Y3707536D01*
X3388918Y3707536D01*
X3388918Y3774033D01*
G37*
G36*
X3060903Y3774033D02*
G01*
X3060903Y3707536D01*
X3088944Y3707536D01*
X3088944Y3774033D01*
G37*
G36*
X3310890Y3774033D02*
G01*
X3310890Y3707536D01*
X3338931Y3707536D01*
X3338931Y3774033D01*
G37*
G36*
X3260902Y3774033D02*
G01*
X3260902Y3707536D01*
X3288944Y3707536D01*
X3288944Y3774033D01*
G37*
G36*
X3210915Y3774033D02*
G01*
X3210915Y3707536D01*
X3238906Y3707536D01*
X3238906Y3774033D01*
G37*
G36*
X3110890Y3774033D02*
G01*
X3110890Y3707536D01*
X3138932Y3707536D01*
X3138932Y3774033D01*
G37*
G36*
X3160928Y3774033D02*
G01*
X3160928Y3707536D01*
X3188919Y3707536D01*
X3188919Y3774033D01*
G37*
G36*
X3607409Y3689045D02*
G01*
X3607409Y3661054D01*
X3673906Y3661054D01*
X3673906Y3689045D01*
G37*
G36*
X2925927Y3689045D02*
G01*
X2925927Y3661054D01*
X2992424Y3661054D01*
X2992424Y3689045D01*
G37*
G36*
X3085896Y3614064D02*
G01*
X3085896Y3186023D01*
X3513937Y3186023D01*
X3513937Y3614064D01*
G37*
G36*
X3607409Y3639058D02*
G01*
X3607409Y3611067D01*
X3673906Y3611067D01*
X3673906Y3639058D01*
G37*
G36*
X2925927Y3639058D02*
G01*
X2925927Y3611067D01*
X2992424Y3611067D01*
X2992424Y3639058D01*
G37*
G36*
X3607409Y3589070D02*
G01*
X3607409Y3561079D01*
X3673906Y3561079D01*
X3673906Y3589070D01*
G37*
G36*
X2925927Y3589070D02*
G01*
X2925927Y3561079D01*
X2992424Y3561079D01*
X2992424Y3589070D01*
G37*
G36*
X3607409Y3539032D02*
G01*
X3607409Y3511042D01*
X3673906Y3511042D01*
X3673906Y3539032D01*
G37*
G36*
X2925927Y3539032D02*
G01*
X2925927Y3511042D01*
X2992424Y3511042D01*
X2992424Y3539032D01*
G37*
G36*
X3607409Y3489045D02*
G01*
X3607409Y3461054D01*
X3673906Y3461054D01*
X3673906Y3489045D01*
G37*
G36*
X2925927Y3489045D02*
G01*
X2925927Y3461054D01*
X2992424Y3461054D01*
X2992424Y3489045D01*
G37*
G36*
X3607409Y3439058D02*
G01*
X3607409Y3411067D01*
X3673906Y3411067D01*
X3673906Y3439058D01*
G37*
G36*
X2925927Y3439058D02*
G01*
X2925927Y3411067D01*
X2992424Y3411067D01*
X2992424Y3439058D01*
G37*
G36*
X3607409Y3389071D02*
G01*
X3607409Y3361080D01*
X3673906Y3361080D01*
X3673906Y3389071D01*
G37*
G36*
X2925927Y3389071D02*
G01*
X2925927Y3361080D01*
X2992424Y3361080D01*
X2992424Y3389071D01*
G37*
G36*
X3607409Y3339033D02*
G01*
X3607409Y3311042D01*
X3673906Y3311042D01*
X3673906Y3339033D01*
G37*
G36*
X2925927Y3339033D02*
G01*
X2925927Y3311042D01*
X2992424Y3311042D01*
X2992424Y3339033D01*
G37*
G36*
X3607409Y3289046D02*
G01*
X3607409Y3261055D01*
X3673906Y3261055D01*
X3673906Y3289046D01*
G37*
G36*
X2925927Y3289046D02*
G01*
X2925927Y3261055D01*
X2992424Y3261055D01*
X2992424Y3289046D01*
G37*
G36*
X3607409Y3239058D02*
G01*
X3607409Y3211068D01*
X3673906Y3211068D01*
X3673906Y3239058D01*
G37*
G36*
X2925927Y3239058D02*
G01*
X2925927Y3211068D01*
X2992424Y3211068D01*
X2992424Y3239058D01*
G37*
G36*
X3607409Y3189071D02*
G01*
X3607409Y3161080D01*
X3673906Y3161080D01*
X3673906Y3189071D01*
G37*
G36*
X2925927Y3189071D02*
G01*
X2925927Y3161080D01*
X2992424Y3161080D01*
X2992424Y3189071D01*
G37*
G36*
X3607409Y3139033D02*
G01*
X3607409Y3111042D01*
X3673906Y3111042D01*
X3673906Y3139033D01*
G37*
G36*
X2925927Y3139033D02*
G01*
X2925927Y3111042D01*
X2992424Y3111042D01*
X2992424Y3139033D01*
G37*
G36*
X3010916Y3092551D02*
G01*
X3010916Y3026054D01*
X3038906Y3026054D01*
X3038906Y3092551D01*
G37*
G36*
X3060903Y3092551D02*
G01*
X3060903Y3026054D01*
X3088944Y3026054D01*
X3088944Y3092551D01*
G37*
G36*
X3110890Y3092551D02*
G01*
X3110890Y3026054D01*
X3138932Y3026054D01*
X3138932Y3092551D01*
G37*
G36*
X3560927Y3092551D02*
G01*
X3560927Y3026054D01*
X3588918Y3026054D01*
X3588918Y3092551D01*
G37*
G36*
X3160928Y3092551D02*
G01*
X3160928Y3026054D01*
X3188919Y3026054D01*
X3188919Y3092551D01*
G37*
G36*
X3210915Y3092551D02*
G01*
X3210915Y3026054D01*
X3238906Y3026054D01*
X3238906Y3092551D01*
G37*
G36*
X3260902Y3092551D02*
G01*
X3260902Y3026054D01*
X3288944Y3026054D01*
X3288944Y3092551D01*
G37*
G36*
X3510889Y3092551D02*
G01*
X3510889Y3026054D01*
X3538931Y3026054D01*
X3538931Y3092551D01*
G37*
G36*
X3310890Y3092551D02*
G01*
X3310890Y3026054D01*
X3338931Y3026054D01*
X3338931Y3092551D01*
G37*
G36*
X3360928Y3092551D02*
G01*
X3360928Y3026054D01*
X3388918Y3026054D01*
X3388918Y3092551D01*
G37*
G36*
X3410915Y3092551D02*
G01*
X3410915Y3026054D01*
X3438906Y3026054D01*
X3438906Y3092551D01*
G37*
G36*
X3460902Y3092551D02*
G01*
X3460902Y3026054D01*
X3488944Y3026054D01*
X3488944Y3092551D01*
G37*
G36*
X2094941Y4412488D02*
G01*
X2084933Y4402480D01*
X2084933Y4301744D01*
X2094941Y4291736D01*
X2245055Y4291736D01*
X2255062Y4301744D01*
X2255062Y4402480D01*
X2245055Y4412488D01*
X2208936Y4412488D01*
X2198928Y4402480D01*
X2198928Y4381449D01*
X2188921Y4371441D01*
X2151075Y4371441D01*
X2141067Y4381449D01*
X2141067Y4402480D01*
X2131060Y4412488D01*
G37*
G36*
X2094941Y4708245D02*
G01*
X2084933Y4698238D01*
X2084933Y4597501D01*
X2094941Y4587494D01*
X2131060Y4587494D01*
X2141067Y4597501D01*
X2141067Y4618532D01*
X2151075Y4628540D01*
X2188921Y4628540D01*
X2198928Y4618532D01*
X2198928Y4597501D01*
X2208936Y4587494D01*
X2245055Y4587494D01*
X2255062Y4597501D01*
X2255062Y4698238D01*
X2245055Y4708245D01*
G37*
G36*
X1844954Y4412488D02*
G01*
X1834946Y4402480D01*
X1834946Y4301744D01*
X1844954Y4291736D01*
X1995068Y4291736D01*
X2005025Y4301744D01*
X2005025Y4402480D01*
X1995068Y4412488D01*
X1958898Y4412488D01*
X1948891Y4402480D01*
X1948891Y4381449D01*
X1938934Y4371441D01*
X1901088Y4371441D01*
X1891080Y4381449D01*
X1891080Y4402480D01*
X1881073Y4412488D01*
G37*
G36*
X1844954Y4708245D02*
G01*
X1834946Y4698238D01*
X1834946Y4597501D01*
X1844954Y4587494D01*
X1881073Y4587494D01*
X1891080Y4597501D01*
X1891080Y4618532D01*
X1901088Y4628540D01*
X1938934Y4628540D01*
X1948891Y4618532D01*
X1948891Y4597501D01*
X1958898Y4587494D01*
X1995068Y4587494D01*
X2005025Y4597501D01*
X2005025Y4698238D01*
X1995068Y4708245D01*
G37*
G36*
X2374950Y4412488D02*
G01*
X2364943Y4402480D01*
X2364943Y4301744D01*
X2374950Y4291736D01*
X2525064Y4291736D01*
X2535021Y4301744D01*
X2535021Y4402480D01*
X2525064Y4412488D01*
X2488895Y4412488D01*
X2478938Y4402480D01*
X2478938Y4381449D01*
X2468930Y4371441D01*
X2431084Y4371441D01*
X2421077Y4381449D01*
X2421077Y4402480D01*
X2411069Y4412488D01*
G37*
G36*
X2374950Y4708245D02*
G01*
X2364943Y4698238D01*
X2364943Y4597501D01*
X2374950Y4587494D01*
X2411069Y4587494D01*
X2421077Y4597501D01*
X2421077Y4618532D01*
X2431084Y4628540D01*
X2468930Y4628540D01*
X2478938Y4618532D01*
X2478938Y4597501D01*
X2488895Y4587494D01*
X2525064Y4587494D01*
X2535021Y4597501D01*
X2535021Y4698238D01*
X2525064Y4708245D01*
G37*
G36*
X2614930Y4412488D02*
G01*
X2604922Y4402480D01*
X2604922Y4301744D01*
X2614930Y4291736D01*
X2765044Y4291736D01*
X2775051Y4301744D01*
X2775051Y4402480D01*
X2765044Y4412488D01*
X2728925Y4412488D01*
X2718917Y4402480D01*
X2718917Y4381449D01*
X2708910Y4371441D01*
X2671064Y4371441D01*
X2661056Y4381449D01*
X2661056Y4402480D01*
X2651099Y4412488D01*
G37*
G36*
X2614930Y4708245D02*
G01*
X2604922Y4698238D01*
X2604922Y4597501D01*
X2614930Y4587494D01*
X2651099Y4587494D01*
X2661056Y4597501D01*
X2661056Y4618532D01*
X2671064Y4628540D01*
X2708910Y4628540D01*
X2718917Y4618532D01*
X2718917Y4597501D01*
X2728925Y4587494D01*
X2765044Y4587494D01*
X2775051Y4597501D01*
X2775051Y4698238D01*
X2765044Y4708245D01*
G37*
G36*
X2867914Y4457547D02*
G01*
X2862884Y4452569D01*
X2862884Y4337558D01*
X2867914Y4332579D01*
X2909874Y4333036D01*
X2909874Y4377080D01*
X2954883Y4377080D01*
X2954883Y4332071D01*
X2995879Y4332579D01*
X3000908Y4337558D01*
X3000908Y4452569D01*
X2995879Y4457547D01*
G37*
G36*
X2867914Y4242562D02*
G01*
X2862884Y4237583D01*
X2862884Y4122572D01*
X2867914Y4117543D01*
X2995879Y4117543D01*
X3000908Y4122572D01*
X3000908Y4237583D01*
X2995879Y4242562D01*
X2954883Y4242054D01*
X2954883Y4198061D01*
X2909874Y4198061D01*
X2909874Y4242562D01*
G37*
D10*
G01*
X1145006Y1980006D03*
G01*
X874979Y1980006D03*
D11*
G01*
X1507489Y1350898D03*
G01*
X1572488Y1350898D03*
G01*
X1637487Y1350898D03*
G01*
X1702485Y1350898D03*
G01*
X1767509Y1350898D03*
G01*
X1832508Y1350898D03*
G01*
X1897506Y1350898D03*
G01*
X1962505Y1350898D03*
G01*
X2027504Y1350898D03*
G01*
X2092502Y1350898D03*
G01*
X1507489Y2049094D03*
G01*
X1572488Y2049094D03*
G01*
X1637487Y2049094D03*
G01*
X1702485Y2049094D03*
G01*
X1767509Y2049094D03*
G01*
X1832508Y2049094D03*
G01*
X1897506Y2049094D03*
G01*
X1962505Y2049094D03*
G01*
X2027504Y2049094D03*
G01*
X2092502Y2049094D03*
D10*
G01*
X264998Y4929987D03*
G01*
X535000Y4929987D03*
D12*
G01*
X899998Y4424984D03*
G01*
X899998Y4694986D03*
D10*
G01*
X575005Y3599992D03*
G01*
X305003Y3599992D03*
G01*
X575005Y2280005D03*
G01*
X305003Y2280005D03*
G01*
X1145006Y2280005D03*
G01*
X874979Y2280005D03*
D12*
G01*
X1389989Y3344976D03*
G01*
X1389989Y3615004D03*
G01*
X1469999Y3954983D03*
G01*
X1469999Y4225010D03*
D13*
G01*
X3650005Y4219981D03*
G01*
X3650005Y4359986D03*
D14*
G01*
X180746Y4619980D03*
G01*
X619252Y4619980D03*
D15*
G01*
X1089990Y3679240D03*
G01*
X1089990Y3240735D03*
D16*
G01*
X394995Y1234998D03*
G01*
X299999Y1234998D03*
G01*
X205003Y1234998D03*
G01*
X205003Y1505000D03*
G01*
X299999Y1505000D03*
G01*
X394995Y1505000D03*
G01*
X394995Y705002D03*
G01*
X299999Y705002D03*
G01*
X205003Y705002D03*
G01*
X205003Y975004D03*
G01*
X299999Y975004D03*
G01*
X394995Y975004D03*
D17*
G01*
X1904961Y461088D03*
G01*
X4695007Y461088D03*
D18*
G01*
X4524844Y738931D03*
G01*
X4474806Y738931D03*
D20*
G01*
X4424895Y738931D03*
D18*
G01*
X4374984Y738931D03*
G01*
X4324946Y738931D03*
G01*
X4274908Y738931D03*
G01*
X4224870Y738931D03*
G01*
X4174832Y738931D03*
G01*
X4124794Y738931D03*
G01*
X4075010Y738931D03*
G01*
X4024972Y738931D03*
G01*
X3974934Y738931D03*
G01*
X3924896Y738931D03*
G01*
X3874858Y738931D03*
G01*
X3824820Y738931D03*
G01*
X3775036Y738677D03*
G01*
X3724998Y738677D03*
G01*
X3674960Y738677D03*
G01*
X3624922Y738931D03*
G01*
X3574884Y738931D03*
G01*
X3524846Y738931D03*
G01*
X3474808Y738931D03*
D20*
G01*
X3424897Y738931D03*
D18*
G01*
X3374986Y738931D03*
G01*
X3324948Y738931D03*
G01*
X3274910Y738931D03*
G01*
X3224872Y738931D03*
G01*
X3174834Y738931D03*
G01*
X3124796Y738931D03*
G01*
X3075012Y738931D03*
G01*
X3024974Y738931D03*
G01*
X2974936Y738931D03*
G01*
X2924898Y738931D03*
G01*
X2874860Y738931D03*
G01*
X2824822Y738931D03*
D20*
G01*
X2774911Y738931D03*
G01*
X2724873Y738931D03*
D18*
G01*
X2674962Y738931D03*
G01*
X2624924Y738931D03*
G01*
X2574886Y738931D03*
G01*
X2524848Y738931D03*
G01*
X2474810Y738931D03*
D20*
G01*
X2424899Y738931D03*
D18*
G01*
X2374988Y738931D03*
G01*
X2324950Y738931D03*
G01*
X2274912Y738931D03*
G01*
X2224874Y738931D03*
G01*
X2174836Y738931D03*
G01*
X2124798Y738931D03*
D20*
G01*
X2074887Y738931D03*
D21*
G01*
X4959984Y464997D03*
G01*
X4959984Y635000D03*
G01*
X5250002Y464997D03*
G01*
X5250002Y635000D03*
D22*
G01*
X3859987Y1889988D03*
G01*
X3859987Y1710004D03*
D23*
G01*
X3780002Y1889988D03*
G01*
X3780002Y1710004D03*
G01*
X3699992Y1889988D03*
G01*
X3699992Y1710004D03*
D22*
G01*
X3620008Y1889988D03*
G01*
X3620008Y1710004D03*
D24*
G01*
X5699988Y281499D03*
G01*
X5699988Y718498D03*
D25*
G01*
X306499Y4309992D03*
G01*
X306499Y4079991D03*
G01*
X306499Y3849991D03*
D26*
G01*
X873498Y4079991D03*
D27*
G01*
X909878Y2829991D03*
D28*
G01*
X290118Y2599994D03*
G01*
X290118Y2829991D03*
G01*
X290118Y3059988D03*
D29*
G01*
X4607458Y1412875D03*
G01*
X4672482Y1412875D03*
G01*
X4737481Y1412875D03*
G01*
X4802479Y1412875D03*
G01*
X4867503Y1412875D03*
G01*
X4932502Y1412875D03*
G01*
X4997500Y1412875D03*
G01*
X5062499Y1412875D03*
G01*
X5127497Y1412875D03*
G01*
X5192496Y1412875D03*
G01*
X4607458Y1987067D03*
G01*
X4672482Y1987067D03*
G01*
X4737481Y1987067D03*
G01*
X4802479Y1987067D03*
G01*
X4867503Y1987067D03*
G01*
X4932502Y1987067D03*
G01*
X4997500Y1987067D03*
G01*
X5062499Y1987067D03*
G01*
X5127497Y1987067D03*
G01*
X5192496Y1987067D03*
D30*
G01*
X5715101Y5570778D03*
G01*
X5715101Y5020792D03*
G01*
X5461101Y5570778D03*
G01*
X5461101Y5020792D03*
G01*
X5207101Y5570778D03*
G01*
X5207101Y5020792D03*
G01*
X4953101Y5570778D03*
G01*
X4953101Y5020792D03*
G01*
X4699101Y5570778D03*
G01*
X4699101Y5020792D03*
G01*
X4445101Y5570778D03*
G01*
X4445101Y5020792D03*
G01*
X4191101Y5570778D03*
G01*
X4191101Y5020792D03*
G01*
X3937101Y5570778D03*
G01*
X3937101Y5020792D03*
G01*
X3683101Y5570778D03*
G01*
X3683101Y5020792D03*
G01*
X3429101Y5570778D03*
G01*
X3429101Y5020792D03*
G01*
X3175101Y5570778D03*
G01*
X3175101Y5020792D03*
G01*
X2921101Y5570778D03*
G01*
X2921101Y5020792D03*
G01*
X2667101Y5570778D03*
G01*
X2667101Y5020792D03*
G01*
X2413101Y5570778D03*
G01*
X2413101Y5020792D03*
G01*
X2159101Y5570778D03*
G01*
X2159101Y5020792D03*
G01*
X1905101Y5570778D03*
G01*
X1905101Y5020792D03*
G01*
X1651101Y5570778D03*
G01*
X1651101Y5020792D03*
G01*
X1397101Y5570778D03*
G01*
X1397101Y5020792D03*
G01*
X889101Y5020792D03*
G01*
X889101Y5570778D03*
G01*
X1143101Y5020792D03*
G01*
X1143101Y5570778D03*
D12*
G01*
X3410000Y4375200D03*
G01*
X3189986Y4205198D03*
G01*
X3189986Y4375200D03*
G01*
X3410000Y4205198D03*
D31*
G01*
X5119370Y3633495D03*
G01*
X5246370Y3633495D03*
G01*
X5373370Y3633495D03*
G01*
X5500370Y3633495D03*
G01*
X5500370Y4346676D03*
G01*
X5373370Y4346676D03*
G01*
X5246370Y4346676D03*
G01*
X5119370Y4346676D03*
D22*
G01*
X4259986Y1889988D03*
G01*
X4259986Y1710004D03*
D23*
G01*
X4180001Y1889988D03*
G01*
X4180001Y1710004D03*
G01*
X4099991Y1889988D03*
G01*
X4099991Y1710004D03*
D22*
G01*
X4020007Y1889988D03*
G01*
X4020007Y1710004D03*
G01*
X2659989Y1889988D03*
G01*
X2659989Y1710004D03*
D23*
G01*
X2580004Y1889988D03*
G01*
X2580004Y1710004D03*
G01*
X2499995Y1889988D03*
G01*
X2499995Y1710004D03*
D22*
G01*
X2420010Y1889988D03*
G01*
X2420010Y1710004D03*
G01*
X3059988Y1889988D03*
G01*
X3059988Y1710004D03*
D23*
G01*
X2980004Y1889988D03*
G01*
X2980004Y1710004D03*
G01*
X2899994Y1889988D03*
G01*
X2899994Y1710004D03*
D22*
G01*
X2820009Y1889988D03*
G01*
X2820009Y1710004D03*
G01*
X3459988Y1889988D03*
G01*
X3459988Y1710004D03*
D23*
G01*
X3380003Y1889988D03*
G01*
X3380003Y1710004D03*
G01*
X3299993Y1889988D03*
G01*
X3299993Y1710004D03*
D22*
G01*
X3220008Y1889988D03*
G01*
X3220008Y1710004D03*
M02*
