G04 Layer: TopSilkscreenLayer*
G04 EasyEDA v6.5.51, 2026-07-31 12:43:52*
G04 5a5feb92e1c84014a20b6db849bd16e2,3391b54213b649ec8eae316ce3f6a029,10*
G04 Gerber Generator version 0.2*
G04 Scale: 100 percent, Rotated: No, Reflected: No *
G04 Dimensions in millimeters *
G04 leading zeros omitted , absolute positions ,4 integer and 5 decimal *
%FSLAX45Y45*%
%MOMM*%

%ADD10C,0.1500*%
%ADD11C,0.1000*%
%ADD12C,0.1524*%
%ADD13C,0.2540*%
%ADD14C,0.2000*%
%ADD15C,0.2032*%
%ADD16C,0.1520*%
%ADD17C,0.3000*%
%ADD18C,0.0104*%

%LPD*%
D10*
X3036382Y320791D02*
G01*
X3036382Y262625D01*
X3032826Y251703D01*
X3029016Y247893D01*
X3021904Y244337D01*
X3014538Y244337D01*
X3007172Y247893D01*
X3003616Y251703D01*
X3000060Y262625D01*
X3000060Y269737D01*
X3060258Y320791D02*
G01*
X3060258Y244337D01*
X3060258Y244337D02*
G01*
X3103946Y244337D01*
X3182432Y302503D02*
G01*
X3178876Y309869D01*
X3171510Y316981D01*
X3164398Y320791D01*
X3149920Y320791D01*
X3142554Y316981D01*
X3135188Y309869D01*
X3131632Y302503D01*
X3128076Y291581D01*
X3128076Y273547D01*
X3131632Y262625D01*
X3135188Y255259D01*
X3142554Y247893D01*
X3149920Y244337D01*
X3164398Y244337D01*
X3171510Y247893D01*
X3178876Y255259D01*
X3182432Y262625D01*
X3242884Y320791D02*
G01*
X3242884Y262625D01*
X3239328Y251703D01*
X3235518Y247893D01*
X3228406Y244337D01*
X3221040Y244337D01*
X3213928Y247893D01*
X3210118Y251703D01*
X3206562Y262625D01*
X3206562Y269737D01*
X3267014Y320791D02*
G01*
X3267014Y244337D01*
X3267014Y244337D02*
G01*
X3310448Y244337D01*
X3389188Y302503D02*
G01*
X3385378Y309869D01*
X3378266Y316981D01*
X3370900Y320791D01*
X3356422Y320791D01*
X3349056Y316981D01*
X3341690Y309869D01*
X3338134Y302503D01*
X3334578Y291581D01*
X3334578Y273547D01*
X3338134Y262625D01*
X3341690Y255259D01*
X3349056Y247893D01*
X3356422Y244337D01*
X3370900Y244337D01*
X3378266Y247893D01*
X3385378Y255259D01*
X3389188Y262625D01*
X3449386Y320791D02*
G01*
X3449386Y262625D01*
X3445830Y251703D01*
X3442274Y247893D01*
X3434908Y244337D01*
X3427542Y244337D01*
X3420430Y247893D01*
X3416620Y251703D01*
X3413064Y262625D01*
X3413064Y269737D01*
X3473516Y320791D02*
G01*
X3473516Y244337D01*
X3473516Y244337D02*
G01*
X3517204Y244337D01*
X3595690Y302503D02*
G01*
X3591880Y309869D01*
X3584768Y316981D01*
X3577402Y320791D01*
X3562924Y320791D01*
X3555558Y316981D01*
X3548446Y309869D01*
X3544636Y302503D01*
X3541080Y291581D01*
X3541080Y273547D01*
X3544636Y262625D01*
X3548446Y255259D01*
X3555558Y247893D01*
X3562924Y244337D01*
X3577402Y244337D01*
X3584768Y247893D01*
X3591880Y255259D01*
X3595690Y262625D01*
X3655888Y320791D02*
G01*
X3655888Y262625D01*
X3652332Y251703D01*
X3648776Y247893D01*
X3641410Y244337D01*
X3634298Y244337D01*
X3626932Y247893D01*
X3623376Y251703D01*
X3619566Y262625D01*
X3619566Y269737D01*
X3680018Y320791D02*
G01*
X3680018Y244337D01*
X3680018Y244337D02*
G01*
X3723706Y244337D01*
X3802192Y302503D02*
G01*
X3798636Y309869D01*
X3791270Y316981D01*
X3783904Y320791D01*
X3769426Y320791D01*
X3762060Y316981D01*
X3754948Y309869D01*
X3751392Y302503D01*
X3747582Y291581D01*
X3747582Y273547D01*
X3751392Y262625D01*
X3754948Y255259D01*
X3762060Y247893D01*
X3769426Y244337D01*
X3783904Y244337D01*
X3791270Y247893D01*
X3798636Y255259D01*
X3802192Y262625D01*
D11*
X1274556Y1992510D02*
G01*
X1271000Y1999876D01*
X1263634Y2006988D01*
X1256268Y2010798D01*
X1241790Y2010798D01*
X1234424Y2006988D01*
X1227312Y1999876D01*
X1223756Y1992510D01*
X1219946Y1981588D01*
X1219946Y1963554D01*
X1223756Y1952632D01*
X1227312Y1945266D01*
X1234424Y1937900D01*
X1241790Y1934344D01*
X1256268Y1934344D01*
X1263634Y1937900D01*
X1271000Y1945266D01*
X1274556Y1952632D01*
X1302242Y1992510D02*
G01*
X1302242Y1996066D01*
X1305798Y2003432D01*
X1309354Y2006988D01*
X1316720Y2010798D01*
X1331198Y2010798D01*
X1338564Y2006988D01*
X1342120Y2003432D01*
X1345930Y1996066D01*
X1345930Y1988954D01*
X1342120Y1981588D01*
X1335008Y1970666D01*
X1298432Y1934344D01*
X1349486Y1934344D01*
X1373362Y1996066D02*
G01*
X1380728Y1999876D01*
X1391650Y2010798D01*
X1391650Y1934344D01*
X1929053Y2290792D02*
G01*
X1900097Y2214338D01*
X1929053Y2290792D02*
G01*
X1958263Y2214338D01*
X1911019Y2239738D02*
G01*
X1947341Y2239738D01*
X1982139Y2290792D02*
G01*
X1982139Y2214338D01*
X1982139Y2290792D02*
G01*
X2007539Y2290792D01*
X2018461Y2286982D01*
X2025827Y2279870D01*
X2029383Y2272504D01*
X2033193Y2261582D01*
X2033193Y2243548D01*
X2029383Y2232626D01*
X2025827Y2225260D01*
X2018461Y2217894D01*
X2007539Y2214338D01*
X1982139Y2214338D01*
X2111679Y2272504D02*
G01*
X2107869Y2279870D01*
X2100757Y2286982D01*
X2093391Y2290792D01*
X2078913Y2290792D01*
X2071547Y2286982D01*
X2064435Y2279870D01*
X2060625Y2272504D01*
X2057069Y2261582D01*
X2057069Y2243548D01*
X2060625Y2232626D01*
X2064435Y2225260D01*
X2071547Y2217894D01*
X2078913Y2214338D01*
X2093391Y2214338D01*
X2100757Y2217894D01*
X2107869Y2225260D01*
X2111679Y2232626D01*
X94487Y4942586D02*
G01*
X90931Y4949697D01*
X83565Y4957063D01*
X76454Y4960620D01*
X61721Y4960620D01*
X54610Y4957063D01*
X47244Y4949697D01*
X43687Y4942586D01*
X40131Y4931663D01*
X40131Y4913376D01*
X43687Y4902454D01*
X47244Y4895342D01*
X54610Y4887976D01*
X61721Y4884420D01*
X76454Y4884420D01*
X83565Y4887976D01*
X90931Y4895342D01*
X94487Y4902454D01*
X118618Y4946142D02*
G01*
X125729Y4949697D01*
X136652Y4960620D01*
X136652Y4884420D01*
X894608Y4332450D02*
G01*
X890798Y4339816D01*
X883686Y4347182D01*
X876320Y4350738D01*
X861842Y4350738D01*
X854476Y4347182D01*
X847364Y4339816D01*
X843554Y4332450D01*
X839998Y4321528D01*
X839998Y4303494D01*
X843554Y4292572D01*
X847364Y4285206D01*
X854476Y4278094D01*
X861842Y4274284D01*
X876320Y4274284D01*
X883686Y4278094D01*
X890798Y4285206D01*
X894608Y4292572D01*
X922294Y4332450D02*
G01*
X922294Y4336260D01*
X925850Y4343372D01*
X929406Y4347182D01*
X936772Y4350738D01*
X951250Y4350738D01*
X958616Y4347182D01*
X962172Y4343372D01*
X965728Y4336260D01*
X965728Y4328894D01*
X962172Y4321528D01*
X954806Y4310606D01*
X918484Y4274284D01*
X969538Y4274284D01*
X734583Y3622578D02*
G01*
X731027Y3629690D01*
X723661Y3637056D01*
X716295Y3640612D01*
X701817Y3640612D01*
X694451Y3637056D01*
X687339Y3629690D01*
X683529Y3622578D01*
X679973Y3611656D01*
X679973Y3593368D01*
X683529Y3582446D01*
X687339Y3575334D01*
X694451Y3567968D01*
X701817Y3564412D01*
X716295Y3564412D01*
X723661Y3567968D01*
X731027Y3575334D01*
X734583Y3582446D01*
X802147Y3629690D02*
G01*
X798591Y3637056D01*
X787669Y3640612D01*
X780303Y3640612D01*
X769381Y3637056D01*
X762269Y3626134D01*
X758459Y3608100D01*
X758459Y3589812D01*
X762269Y3575334D01*
X769381Y3567968D01*
X780303Y3564412D01*
X784113Y3564412D01*
X794781Y3567968D01*
X802147Y3575334D01*
X805703Y3586256D01*
X805703Y3589812D01*
X802147Y3600734D01*
X794781Y3608100D01*
X784113Y3611656D01*
X780303Y3611656D01*
X769381Y3608100D01*
X762269Y3600734D01*
X758459Y3589812D01*
X144559Y2302515D02*
G01*
X141003Y2309881D01*
X133637Y2316993D01*
X126271Y2320803D01*
X111793Y2320803D01*
X104427Y2316993D01*
X97315Y2309881D01*
X93759Y2302515D01*
X89949Y2291593D01*
X89949Y2273559D01*
X93759Y2262637D01*
X97315Y2255271D01*
X104427Y2247905D01*
X111793Y2244349D01*
X126271Y2244349D01*
X133637Y2247905D01*
X141003Y2255271D01*
X144559Y2262637D01*
X186723Y2320803D02*
G01*
X175801Y2316993D01*
X172245Y2309881D01*
X172245Y2302515D01*
X175801Y2295403D01*
X183167Y2291593D01*
X197645Y2288037D01*
X208567Y2284481D01*
X215933Y2277115D01*
X219489Y2269749D01*
X219489Y2258827D01*
X215933Y2251715D01*
X212123Y2247905D01*
X201201Y2244349D01*
X186723Y2244349D01*
X175801Y2247905D01*
X172245Y2251715D01*
X168435Y2258827D01*
X168435Y2269749D01*
X172245Y2277115D01*
X179357Y2284481D01*
X190279Y2288037D01*
X205011Y2291593D01*
X212123Y2295403D01*
X215933Y2302515D01*
X215933Y2309881D01*
X212123Y2316993D01*
X201201Y2320803D01*
X186723Y2320803D01*
X1274470Y2292446D02*
G01*
X1270914Y2299812D01*
X1263548Y2307178D01*
X1256436Y2310734D01*
X1241704Y2310734D01*
X1234592Y2307178D01*
X1227226Y2299812D01*
X1223670Y2292446D01*
X1220114Y2281524D01*
X1220114Y2263490D01*
X1223670Y2252568D01*
X1227226Y2245202D01*
X1234592Y2238090D01*
X1241704Y2234280D01*
X1256436Y2234280D01*
X1263548Y2238090D01*
X1270914Y2245202D01*
X1274470Y2252568D01*
X1298600Y2296256D02*
G01*
X1305712Y2299812D01*
X1316634Y2310734D01*
X1316634Y2234280D01*
X1362608Y2310734D02*
G01*
X1351686Y2307178D01*
X1344320Y2296256D01*
X1340764Y2277968D01*
X1340764Y2267046D01*
X1344320Y2249012D01*
X1351686Y2238090D01*
X1362608Y2234280D01*
X1369720Y2234280D01*
X1380642Y2238090D01*
X1388008Y2249012D01*
X1391564Y2267046D01*
X1391564Y2277968D01*
X1388008Y2296256D01*
X1380642Y2307178D01*
X1369720Y2310734D01*
X1362608Y2310734D01*
X1304488Y3182620D02*
G01*
X1300932Y3189731D01*
X1293566Y3197097D01*
X1286454Y3200654D01*
X1271722Y3200654D01*
X1264610Y3197097D01*
X1257244Y3189731D01*
X1253688Y3182620D01*
X1250132Y3171697D01*
X1250132Y3153410D01*
X1253688Y3142487D01*
X1257244Y3135376D01*
X1264610Y3128010D01*
X1271722Y3124454D01*
X1286454Y3124454D01*
X1293566Y3128010D01*
X1300932Y3135376D01*
X1304488Y3142487D01*
X1332174Y3182620D02*
G01*
X1332174Y3186176D01*
X1335730Y3193542D01*
X1339540Y3197097D01*
X1346652Y3200654D01*
X1361384Y3200654D01*
X1368496Y3197097D01*
X1372306Y3193542D01*
X1375862Y3186176D01*
X1375862Y3178810D01*
X1372306Y3171697D01*
X1364940Y3160776D01*
X1328618Y3124454D01*
X1379418Y3124454D01*
X1407104Y3182620D02*
G01*
X1407104Y3186176D01*
X1410660Y3193542D01*
X1414470Y3197097D01*
X1421582Y3200654D01*
X1436060Y3200654D01*
X1443426Y3197097D01*
X1446982Y3193542D01*
X1450792Y3186176D01*
X1450792Y3178810D01*
X1446982Y3171697D01*
X1439870Y3160776D01*
X1403548Y3124454D01*
X1454348Y3124454D01*
X1354548Y3762433D02*
G01*
X1350992Y3769799D01*
X1343626Y3777165D01*
X1336260Y3780721D01*
X1321782Y3780721D01*
X1314416Y3777165D01*
X1307304Y3769799D01*
X1303748Y3762433D01*
X1299938Y3751511D01*
X1299938Y3733477D01*
X1303748Y3722555D01*
X1307304Y3715189D01*
X1314416Y3708077D01*
X1321782Y3704267D01*
X1336260Y3704267D01*
X1343626Y3708077D01*
X1350992Y3715189D01*
X1354548Y3722555D01*
X1382234Y3762433D02*
G01*
X1382234Y3766243D01*
X1385790Y3773355D01*
X1389346Y3777165D01*
X1396712Y3780721D01*
X1411190Y3780721D01*
X1418556Y3777165D01*
X1422112Y3773355D01*
X1425922Y3766243D01*
X1425922Y3758877D01*
X1422112Y3751511D01*
X1415000Y3740589D01*
X1378424Y3704267D01*
X1429478Y3704267D01*
X1471642Y3780721D02*
G01*
X1460720Y3777165D01*
X1457164Y3769799D01*
X1457164Y3762433D01*
X1460720Y3755321D01*
X1468086Y3751511D01*
X1482564Y3747955D01*
X1493486Y3744399D01*
X1500598Y3737033D01*
X1504408Y3729667D01*
X1504408Y3718999D01*
X1500598Y3711633D01*
X1497042Y3708077D01*
X1486120Y3704267D01*
X1471642Y3704267D01*
X1460720Y3708077D01*
X1457164Y3711633D01*
X1453354Y3718999D01*
X1453354Y3729667D01*
X1457164Y3737033D01*
X1464276Y3744399D01*
X1475198Y3747955D01*
X1489930Y3751511D01*
X1497042Y3755321D01*
X1500598Y3762433D01*
X1500598Y3769799D01*
X1497042Y3777165D01*
X1486120Y3780721D01*
X1471642Y3780721D01*
X1134480Y4342551D02*
G01*
X1130924Y4349917D01*
X1123558Y4357029D01*
X1116446Y4360839D01*
X1101714Y4360839D01*
X1094602Y4357029D01*
X1087236Y4349917D01*
X1083680Y4342551D01*
X1080124Y4331629D01*
X1080124Y4313341D01*
X1083680Y4302419D01*
X1087236Y4295307D01*
X1094602Y4287941D01*
X1101714Y4284385D01*
X1116446Y4284385D01*
X1123558Y4287941D01*
X1130924Y4295307D01*
X1134480Y4302419D01*
X1165722Y4360839D02*
G01*
X1205854Y4360839D01*
X1184010Y4331629D01*
X1194932Y4331629D01*
X1202298Y4328073D01*
X1205854Y4324263D01*
X1209410Y4313341D01*
X1209410Y4306229D01*
X1205854Y4295307D01*
X1198488Y4287941D01*
X1187566Y4284385D01*
X1176644Y4284385D01*
X1165722Y4287941D01*
X1162166Y4291751D01*
X1158610Y4298863D01*
X1374429Y4342551D02*
G01*
X1370873Y4349917D01*
X1363507Y4357029D01*
X1356395Y4360839D01*
X1341917Y4360839D01*
X1334551Y4357029D01*
X1327185Y4349917D01*
X1323629Y4342551D01*
X1320073Y4331629D01*
X1320073Y4313341D01*
X1323629Y4302419D01*
X1327185Y4295307D01*
X1334551Y4287941D01*
X1341917Y4284385D01*
X1356395Y4284385D01*
X1363507Y4287941D01*
X1370873Y4295307D01*
X1374429Y4302419D01*
X1434881Y4360839D02*
G01*
X1398559Y4309785D01*
X1453169Y4309785D01*
X1434881Y4360839D02*
G01*
X1434881Y4284385D01*
X1604632Y4342551D02*
G01*
X1600822Y4349917D01*
X1593710Y4357029D01*
X1586344Y4360839D01*
X1571866Y4360839D01*
X1564500Y4357029D01*
X1557388Y4349917D01*
X1553578Y4342551D01*
X1550022Y4331629D01*
X1550022Y4313341D01*
X1553578Y4302419D01*
X1557388Y4295307D01*
X1564500Y4287941D01*
X1571866Y4284385D01*
X1586344Y4284385D01*
X1593710Y4287941D01*
X1600822Y4295307D01*
X1604632Y4302419D01*
X1672196Y4360839D02*
G01*
X1635874Y4360839D01*
X1632064Y4328073D01*
X1635874Y4331629D01*
X1646796Y4335185D01*
X1657718Y4335185D01*
X1668640Y4331629D01*
X1675752Y4324263D01*
X1679562Y4313341D01*
X1679562Y4306229D01*
X1675752Y4295307D01*
X1668640Y4287941D01*
X1657718Y4284385D01*
X1646796Y4284385D01*
X1635874Y4287941D01*
X1632064Y4291751D01*
X1628508Y4298863D01*
X714502Y3332479D02*
G01*
X710945Y3339845D01*
X703579Y3347212D01*
X696468Y3350768D01*
X681736Y3350768D01*
X674623Y3347212D01*
X667257Y3339845D01*
X663702Y3332479D01*
X659892Y3321557D01*
X659892Y3303523D01*
X663702Y3292602D01*
X667257Y3285236D01*
X674623Y3277870D01*
X681736Y3274313D01*
X696468Y3274313D01*
X703579Y3277870D01*
X710945Y3285236D01*
X714502Y3292602D01*
X789431Y3350768D02*
G01*
X753110Y3274313D01*
X738631Y3350768D02*
G01*
X789431Y3350768D01*
X144482Y1972660D02*
G01*
X140926Y1979772D01*
X133560Y1987138D01*
X126448Y1990694D01*
X111716Y1990694D01*
X104604Y1987138D01*
X97238Y1979772D01*
X93682Y1972660D01*
X90126Y1961738D01*
X90126Y1943450D01*
X93682Y1932528D01*
X97238Y1925162D01*
X104604Y1918050D01*
X111716Y1914240D01*
X126448Y1914240D01*
X133560Y1918050D01*
X140926Y1925162D01*
X144482Y1932528D01*
X215856Y1965294D02*
G01*
X212300Y1954372D01*
X204934Y1947006D01*
X194012Y1943450D01*
X190456Y1943450D01*
X179534Y1947006D01*
X172168Y1954372D01*
X168612Y1965294D01*
X168612Y1968850D01*
X172168Y1979772D01*
X179534Y1987138D01*
X190456Y1990694D01*
X194012Y1990694D01*
X204934Y1987138D01*
X212300Y1979772D01*
X215856Y1965294D01*
X215856Y1947006D01*
X212300Y1928972D01*
X204934Y1918050D01*
X194012Y1914240D01*
X186646Y1914240D01*
X175724Y1918050D01*
X172168Y1925162D01*
X4494529Y3142487D02*
G01*
X4490974Y3149854D01*
X4483608Y3156965D01*
X4476241Y3160776D01*
X4461763Y3160776D01*
X4454397Y3156965D01*
X4447286Y3149854D01*
X4443475Y3142487D01*
X4439920Y3131565D01*
X4439920Y3113278D01*
X4443475Y3102355D01*
X4447286Y3095244D01*
X4454397Y3087878D01*
X4461763Y3084321D01*
X4476241Y3084321D01*
X4483608Y3087878D01*
X4490974Y3095244D01*
X4494529Y3102355D01*
X4518406Y3146044D02*
G01*
X4525772Y3149854D01*
X4536693Y3160776D01*
X4536693Y3084321D01*
X4604258Y3160776D02*
G01*
X4567936Y3160776D01*
X4564379Y3128010D01*
X4567936Y3131565D01*
X4578858Y3135121D01*
X4589779Y3135121D01*
X4600702Y3131565D01*
X4608068Y3124200D01*
X4611624Y3113278D01*
X4611624Y3106165D01*
X4608068Y3095244D01*
X4600702Y3087878D01*
X4589779Y3084321D01*
X4578858Y3084321D01*
X4567936Y3087878D01*
X4564379Y3091687D01*
X4560570Y3098800D01*
X4504436Y3342386D02*
G01*
X4500879Y3349752D01*
X4493513Y3357118D01*
X4486402Y3360673D01*
X4471670Y3360673D01*
X4464558Y3357118D01*
X4457191Y3349752D01*
X4453636Y3342386D01*
X4450079Y3331463D01*
X4450079Y3313429D01*
X4453636Y3302507D01*
X4457191Y3295142D01*
X4464558Y3288029D01*
X4471670Y3284220D01*
X4486402Y3284220D01*
X4493513Y3288029D01*
X4500879Y3295142D01*
X4504436Y3302507D01*
X4528565Y3346195D02*
G01*
X4535677Y3349752D01*
X4546600Y3360673D01*
X4546600Y3284220D01*
X4617974Y3335273D02*
G01*
X4614418Y3324352D01*
X4607052Y3316986D01*
X4596129Y3313429D01*
X4592574Y3313429D01*
X4581652Y3316986D01*
X4574286Y3324352D01*
X4570729Y3335273D01*
X4570729Y3338829D01*
X4574286Y3349752D01*
X4581652Y3357118D01*
X4592574Y3360673D01*
X4596129Y3360673D01*
X4607052Y3357118D01*
X4614418Y3349752D01*
X4617974Y3335273D01*
X4617974Y3316986D01*
X4614418Y3298952D01*
X4607052Y3288029D01*
X4596129Y3284220D01*
X4588763Y3284220D01*
X4578095Y3288029D01*
X4574286Y3295142D01*
X2014656Y3262495D02*
G01*
X2010846Y3269861D01*
X2003734Y3276973D01*
X1996368Y3280783D01*
X1981890Y3280783D01*
X1974524Y3276973D01*
X1967158Y3269861D01*
X1963602Y3262495D01*
X1960046Y3251573D01*
X1960046Y3233539D01*
X1963602Y3222617D01*
X1967158Y3215251D01*
X1974524Y3207885D01*
X1981890Y3204329D01*
X1996368Y3204329D01*
X2003734Y3207885D01*
X2010846Y3215251D01*
X2014656Y3222617D01*
X2042088Y3262495D02*
G01*
X2042088Y3266051D01*
X2045898Y3273417D01*
X2049454Y3276973D01*
X2056820Y3280783D01*
X2071298Y3280783D01*
X2078664Y3276973D01*
X2082220Y3273417D01*
X2085776Y3266051D01*
X2085776Y3258939D01*
X2082220Y3251573D01*
X2074854Y3240651D01*
X2038532Y3204329D01*
X2089332Y3204329D01*
X2135306Y3280783D02*
G01*
X2124384Y3276973D01*
X2117018Y3266051D01*
X2113462Y3248017D01*
X2113462Y3237095D01*
X2117018Y3218807D01*
X2124384Y3207885D01*
X2135306Y3204329D01*
X2142418Y3204329D01*
X2153340Y3207885D01*
X2160706Y3218807D01*
X2164262Y3237095D01*
X2164262Y3248017D01*
X2160706Y3266051D01*
X2153340Y3276973D01*
X2142418Y3280783D01*
X2135306Y3280783D01*
X2004656Y3472591D02*
G01*
X2000846Y3479703D01*
X1993734Y3487069D01*
X1986368Y3490625D01*
X1971890Y3490625D01*
X1964524Y3487069D01*
X1957158Y3479703D01*
X1953602Y3472591D01*
X1950046Y3461669D01*
X1950046Y3443381D01*
X1953602Y3432459D01*
X1957158Y3425347D01*
X1964524Y3417981D01*
X1971890Y3414425D01*
X1986368Y3414425D01*
X1993734Y3417981D01*
X2000846Y3425347D01*
X2004656Y3432459D01*
X2035898Y3490625D02*
G01*
X2075776Y3490625D01*
X2053932Y3461669D01*
X2064854Y3461669D01*
X2072220Y3458113D01*
X2075776Y3454303D01*
X2079332Y3443381D01*
X2079332Y3436269D01*
X2075776Y3425347D01*
X2068664Y3417981D01*
X2057742Y3414425D01*
X2046820Y3414425D01*
X2035898Y3417981D01*
X2032088Y3421537D01*
X2028532Y3428903D01*
X2125306Y3490625D02*
G01*
X2114384Y3487069D01*
X2107018Y3476147D01*
X2103462Y3458113D01*
X2103462Y3447191D01*
X2107018Y3428903D01*
X2114384Y3417981D01*
X2125306Y3414425D01*
X2132418Y3414425D01*
X2143340Y3417981D01*
X2150706Y3428903D01*
X2154262Y3447191D01*
X2154262Y3458113D01*
X2150706Y3476147D01*
X2143340Y3487069D01*
X2132418Y3490625D01*
X2125306Y3490625D01*
X3304456Y2252545D02*
G01*
X3300900Y2259911D01*
X3293534Y2267023D01*
X3286422Y2270833D01*
X3271690Y2270833D01*
X3264578Y2267023D01*
X3257212Y2259911D01*
X3253656Y2252545D01*
X3250100Y2241623D01*
X3250100Y2223335D01*
X3253656Y2212667D01*
X3257212Y2205301D01*
X3264578Y2197935D01*
X3271690Y2194379D01*
X3286422Y2194379D01*
X3293534Y2197935D01*
X3300900Y2205301D01*
X3304456Y2212667D01*
X3335698Y2270833D02*
G01*
X3375830Y2270833D01*
X3353986Y2241623D01*
X3364908Y2241623D01*
X3372274Y2238067D01*
X3375830Y2234257D01*
X3379386Y2223335D01*
X3379386Y2216223D01*
X3375830Y2205301D01*
X3368464Y2197935D01*
X3357542Y2194379D01*
X3346620Y2194379D01*
X3335698Y2197935D01*
X3332142Y2201745D01*
X3328586Y2208857D01*
X3403516Y2256101D02*
G01*
X3410628Y2259911D01*
X3421550Y2270833D01*
X3421550Y2194379D01*
X4864651Y4322475D02*
G01*
X4860841Y4329841D01*
X4853729Y4337207D01*
X4846363Y4340763D01*
X4831885Y4340763D01*
X4824519Y4337207D01*
X4817153Y4329841D01*
X4813597Y4322475D01*
X4810041Y4311553D01*
X4810041Y4293519D01*
X4813597Y4282597D01*
X4817153Y4275231D01*
X4824519Y4267865D01*
X4831885Y4264309D01*
X4846363Y4264309D01*
X4853729Y4267865D01*
X4860841Y4275231D01*
X4864651Y4282597D01*
X4895893Y4340763D02*
G01*
X4935771Y4340763D01*
X4913927Y4311553D01*
X4924849Y4311553D01*
X4932215Y4307997D01*
X4935771Y4304441D01*
X4939327Y4293519D01*
X4939327Y4286153D01*
X4935771Y4275231D01*
X4928659Y4267865D01*
X4917737Y4264309D01*
X4906815Y4264309D01*
X4895893Y4267865D01*
X4892083Y4271675D01*
X4888527Y4278787D01*
X4970823Y4340763D02*
G01*
X5010701Y4340763D01*
X4988857Y4311553D01*
X4999779Y4311553D01*
X5007145Y4307997D01*
X5010701Y4304441D01*
X5014257Y4293519D01*
X5014257Y4286153D01*
X5010701Y4275231D01*
X5003335Y4267865D01*
X4992413Y4264309D01*
X4981745Y4264309D01*
X4970823Y4267865D01*
X4967013Y4271675D01*
X4963457Y4278787D01*
X3594641Y4552548D02*
G01*
X3590831Y4559914D01*
X3583719Y4567026D01*
X3576353Y4570836D01*
X3561875Y4570836D01*
X3554509Y4567026D01*
X3547143Y4559914D01*
X3543587Y4552548D01*
X3540031Y4541626D01*
X3540031Y4523338D01*
X3543587Y4512416D01*
X3547143Y4505304D01*
X3554509Y4497938D01*
X3561875Y4494382D01*
X3576353Y4494382D01*
X3583719Y4497938D01*
X3590831Y4505304D01*
X3594641Y4512416D01*
X3662205Y4559914D02*
G01*
X3658649Y4567026D01*
X3647727Y4570836D01*
X3640361Y4570836D01*
X3629439Y4567026D01*
X3622073Y4556104D01*
X3618517Y4538070D01*
X3618517Y4519782D01*
X3622073Y4505304D01*
X3629439Y4497938D01*
X3640361Y4494382D01*
X3643917Y4494382D01*
X3654839Y4497938D01*
X3662205Y4505304D01*
X3665761Y4516226D01*
X3665761Y4519782D01*
X3662205Y4530704D01*
X3654839Y4538070D01*
X3643917Y4541626D01*
X3640361Y4541626D01*
X3629439Y4538070D01*
X3622073Y4530704D01*
X3618517Y4519782D01*
X3711735Y4570836D02*
G01*
X3700813Y4567026D01*
X3693447Y4556104D01*
X3689891Y4538070D01*
X3689891Y4527148D01*
X3693447Y4508860D01*
X3700813Y4497938D01*
X3711735Y4494382D01*
X3718847Y4494382D01*
X3729769Y4497938D01*
X3737135Y4508860D01*
X3740691Y4527148D01*
X3740691Y4538070D01*
X3737135Y4556104D01*
X3729769Y4567026D01*
X3718847Y4570836D01*
X3711735Y4570836D01*
X620013Y4900676D02*
G01*
X620013Y4824221D01*
X620013Y4900676D02*
G01*
X645413Y4900676D01*
X656336Y4897120D01*
X663702Y4889754D01*
X667257Y4882642D01*
X670813Y4871720D01*
X670813Y4853431D01*
X667257Y4842510D01*
X663702Y4835144D01*
X656336Y4828031D01*
X645413Y4824221D01*
X620013Y4824221D01*
X694944Y4886197D02*
G01*
X702055Y4889754D01*
X712978Y4900676D01*
X712978Y4824221D01*
X800074Y3490841D02*
G01*
X800074Y3414387D01*
X800074Y3490841D02*
G01*
X825474Y3490841D01*
X836396Y3487031D01*
X843508Y3479919D01*
X847318Y3472553D01*
X850874Y3461631D01*
X850874Y3443343D01*
X847318Y3432421D01*
X843508Y3425309D01*
X836396Y3417943D01*
X825474Y3414387D01*
X800074Y3414387D01*
X878560Y3472553D02*
G01*
X878560Y3476109D01*
X882116Y3483475D01*
X885926Y3487031D01*
X893038Y3490841D01*
X907516Y3490841D01*
X914882Y3487031D01*
X918438Y3483475D01*
X922248Y3476109D01*
X922248Y3468997D01*
X918438Y3461631D01*
X911326Y3450709D01*
X875004Y3414387D01*
X925804Y3414387D01*
X150075Y1690819D02*
G01*
X150075Y1614365D01*
X150075Y1690819D02*
G01*
X175475Y1690819D01*
X186397Y1687009D01*
X193509Y1679897D01*
X197319Y1672531D01*
X200875Y1661609D01*
X200875Y1643575D01*
X197319Y1632653D01*
X193509Y1625287D01*
X186397Y1617921D01*
X175475Y1614365D01*
X150075Y1614365D01*
X253961Y1690819D02*
G01*
X225005Y1614365D01*
X253961Y1690819D02*
G01*
X283171Y1614365D01*
X235927Y1639765D02*
G01*
X272249Y1639765D01*
X361657Y1672531D02*
G01*
X358101Y1679897D01*
X350735Y1687009D01*
X343369Y1690819D01*
X328891Y1690819D01*
X321525Y1687009D01*
X314413Y1679897D01*
X310603Y1672531D01*
X307047Y1661609D01*
X307047Y1643575D01*
X310603Y1632653D01*
X314413Y1625287D01*
X321525Y1617921D01*
X328891Y1614365D01*
X343369Y1614365D01*
X350735Y1617921D01*
X358101Y1625287D01*
X361657Y1632653D01*
X407377Y1690819D02*
G01*
X396455Y1687009D01*
X389343Y1676087D01*
X385533Y1658053D01*
X385533Y1647131D01*
X389343Y1628843D01*
X396455Y1617921D01*
X407377Y1614365D01*
X414743Y1614365D01*
X425665Y1617921D01*
X433031Y1628843D01*
X436587Y1647131D01*
X436587Y1658053D01*
X433031Y1676087D01*
X425665Y1687009D01*
X414743Y1690819D01*
X407377Y1690819D01*
X150113Y1150620D02*
G01*
X150113Y1074420D01*
X150113Y1150620D02*
G01*
X175513Y1150620D01*
X186436Y1147063D01*
X193547Y1139697D01*
X197357Y1132586D01*
X200913Y1121663D01*
X200913Y1103376D01*
X197357Y1092454D01*
X193547Y1085342D01*
X186436Y1077976D01*
X175513Y1074420D01*
X150113Y1074420D01*
X254000Y1150620D02*
G01*
X225044Y1074420D01*
X254000Y1150620D02*
G01*
X283210Y1074420D01*
X235712Y1099820D02*
G01*
X272287Y1099820D01*
X361695Y1132586D02*
G01*
X357886Y1139697D01*
X350773Y1147063D01*
X343407Y1150620D01*
X328929Y1150620D01*
X321563Y1147063D01*
X314452Y1139697D01*
X310642Y1132586D01*
X307086Y1121663D01*
X307086Y1103376D01*
X310642Y1092454D01*
X314452Y1085342D01*
X321563Y1077976D01*
X328929Y1074420D01*
X343407Y1074420D01*
X350773Y1077976D01*
X357886Y1085342D01*
X361695Y1092454D01*
X385571Y1136142D02*
G01*
X392937Y1139697D01*
X403860Y1150620D01*
X403860Y1074420D01*
X3299968Y440745D02*
G01*
X3299968Y364291D01*
X3299968Y440745D02*
G01*
X3347211Y440745D01*
X3299968Y404423D02*
G01*
X3329177Y404423D01*
X3371341Y440745D02*
G01*
X3371341Y364291D01*
X3371341Y440745D02*
G01*
X3404108Y440745D01*
X3414775Y437189D01*
X3418586Y433379D01*
X3422141Y426267D01*
X3422141Y415345D01*
X3418586Y407979D01*
X3414775Y404423D01*
X3404108Y400613D01*
X3371341Y400613D01*
X3500627Y422457D02*
G01*
X3497072Y429823D01*
X3489706Y437189D01*
X3482593Y440745D01*
X3468115Y440745D01*
X3460750Y437189D01*
X3453384Y429823D01*
X3449827Y422457D01*
X3446272Y411535D01*
X3446272Y393501D01*
X3449827Y382579D01*
X3453384Y375213D01*
X3460750Y368101D01*
X3468115Y364291D01*
X3482593Y364291D01*
X3489706Y368101D01*
X3497072Y375213D01*
X3500627Y382579D01*
X4819970Y180642D02*
G01*
X4819970Y104442D01*
X4819970Y180642D02*
G01*
X4867214Y180642D01*
X4819970Y144320D02*
G01*
X4849180Y144320D01*
X4891344Y180642D02*
G01*
X4891344Y104442D01*
X4891344Y180642D02*
G01*
X4924110Y180642D01*
X4934778Y177086D01*
X4938588Y173530D01*
X4942144Y166164D01*
X4942144Y155242D01*
X4938588Y147876D01*
X4934778Y144320D01*
X4924110Y140764D01*
X4891344Y140764D01*
X5020630Y162608D02*
G01*
X5017074Y169720D01*
X5009708Y177086D01*
X5002596Y180642D01*
X4987864Y180642D01*
X4980752Y177086D01*
X4973386Y169720D01*
X4969830Y162608D01*
X4966274Y151686D01*
X4966274Y133398D01*
X4969830Y122476D01*
X4973386Y115364D01*
X4980752Y107998D01*
X4987864Y104442D01*
X5002596Y104442D01*
X5009708Y107998D01*
X5017074Y115364D01*
X5020630Y122476D01*
X5020630Y133398D01*
X5002596Y133398D02*
G01*
X5020630Y133398D01*
X5073716Y180642D02*
G01*
X5044760Y104442D01*
X5073716Y180642D02*
G01*
X5102926Y104442D01*
X5055682Y129842D02*
G01*
X5092004Y129842D01*
X5169877Y180642D02*
G01*
X5169877Y104442D01*
X5169877Y180642D02*
G01*
X5202643Y180642D01*
X5213565Y177086D01*
X5217375Y173530D01*
X5220931Y166164D01*
X5220931Y155242D01*
X5217375Y147876D01*
X5213565Y144320D01*
X5202643Y140764D01*
X5169877Y140764D01*
X5244807Y180642D02*
G01*
X5263095Y104442D01*
X5281383Y180642D02*
G01*
X5263095Y104442D01*
X5281383Y180642D02*
G01*
X5299417Y104442D01*
X5317705Y180642D02*
G01*
X5299417Y104442D01*
X5341581Y180642D02*
G01*
X5341581Y104442D01*
X5341581Y180642D02*
G01*
X5374347Y180642D01*
X5385269Y177086D01*
X5388825Y173530D01*
X5392635Y166164D01*
X5392635Y158798D01*
X5388825Y151686D01*
X5385269Y147876D01*
X5374347Y144320D01*
X5341581Y144320D01*
X5366981Y144320D02*
G01*
X5392635Y104442D01*
X1519979Y3000837D02*
G01*
X1519979Y2924383D01*
X1519979Y3000837D02*
G01*
X1552745Y3000837D01*
X1563667Y2997027D01*
X1567223Y2993471D01*
X1571033Y2986105D01*
X1571033Y2978993D01*
X1567223Y2971627D01*
X1563667Y2968071D01*
X1552745Y2964261D01*
X1519979Y2964261D01*
X1545379Y2964261D02*
G01*
X1571033Y2924383D01*
X1594909Y2986105D02*
G01*
X1602275Y2989915D01*
X1613197Y3000837D01*
X1613197Y2924383D01*
X1509969Y2750703D02*
G01*
X1509969Y2674249D01*
X1509969Y2750703D02*
G01*
X1542735Y2750703D01*
X1553657Y2747147D01*
X1557213Y2743337D01*
X1561023Y2736225D01*
X1561023Y2728859D01*
X1557213Y2721747D01*
X1553657Y2717937D01*
X1542735Y2714381D01*
X1509969Y2714381D01*
X1535369Y2714381D02*
G01*
X1561023Y2674249D01*
X1588455Y2732669D02*
G01*
X1588455Y2736225D01*
X1592265Y2743337D01*
X1595821Y2747147D01*
X1603187Y2750703D01*
X1617665Y2750703D01*
X1624777Y2747147D01*
X1628587Y2743337D01*
X1632143Y2736225D01*
X1632143Y2728859D01*
X1628587Y2721747D01*
X1621221Y2710825D01*
X1584899Y2674249D01*
X1635699Y2674249D01*
X1149888Y3860779D02*
G01*
X1149888Y3784325D01*
X1149888Y3860779D02*
G01*
X1182654Y3860779D01*
X1193576Y3856969D01*
X1197386Y3853413D01*
X1200942Y3846047D01*
X1200942Y3838935D01*
X1197386Y3831569D01*
X1193576Y3828013D01*
X1182654Y3824457D01*
X1149888Y3824457D01*
X1175542Y3824457D02*
G01*
X1200942Y3784325D01*
X1232184Y3860779D02*
G01*
X1272062Y3860779D01*
X1250472Y3831569D01*
X1261140Y3831569D01*
X1268506Y3828013D01*
X1272062Y3824457D01*
X1275872Y3813535D01*
X1275872Y3806169D01*
X1272062Y3795247D01*
X1264950Y3787881D01*
X1254028Y3784325D01*
X1243106Y3784325D01*
X1232184Y3787881D01*
X1228628Y3791691D01*
X1224818Y3798803D01*
X5839988Y2840664D02*
G01*
X5839988Y2764464D01*
X5839988Y2840664D02*
G01*
X5872754Y2840664D01*
X5883676Y2837108D01*
X5887232Y2833552D01*
X5890788Y2826186D01*
X5890788Y2818820D01*
X5887232Y2811708D01*
X5883676Y2807898D01*
X5872754Y2804342D01*
X5839988Y2804342D01*
X5865388Y2804342D02*
G01*
X5890788Y2764464D01*
X5962162Y2815264D02*
G01*
X5958606Y2804342D01*
X5951240Y2796976D01*
X5940318Y2793420D01*
X5936762Y2793420D01*
X5925840Y2796976D01*
X5918474Y2804342D01*
X5914918Y2815264D01*
X5914918Y2818820D01*
X5918474Y2829742D01*
X5925840Y2837108D01*
X5936762Y2840664D01*
X5940318Y2840664D01*
X5951240Y2837108D01*
X5958606Y2829742D01*
X5962162Y2815264D01*
X5962162Y2796976D01*
X5958606Y2778942D01*
X5951240Y2768020D01*
X5940318Y2764464D01*
X5932952Y2764464D01*
X5922284Y2768020D01*
X5918474Y2775386D01*
X5920089Y3980789D02*
G01*
X5920089Y3904335D01*
X5920089Y3980789D02*
G01*
X5952601Y3980789D01*
X5963523Y3976979D01*
X5967333Y3973423D01*
X5970889Y3966057D01*
X5970889Y3958945D01*
X5967333Y3951579D01*
X5963523Y3948023D01*
X5952601Y3944467D01*
X5920089Y3944467D01*
X5945489Y3944467D02*
G01*
X5970889Y3904335D01*
X5995019Y3966057D02*
G01*
X6002131Y3969867D01*
X6013053Y3980789D01*
X6013053Y3904335D01*
X6040739Y3962501D02*
G01*
X6040739Y3966057D01*
X6044295Y3973423D01*
X6048105Y3976979D01*
X6055217Y3980789D01*
X6069695Y3980789D01*
X6077061Y3976979D01*
X6080617Y3973423D01*
X6084427Y3966057D01*
X6084427Y3958945D01*
X6080617Y3951579D01*
X6073505Y3940657D01*
X6037183Y3904335D01*
X6087983Y3904335D01*
X5910005Y4430776D02*
G01*
X5910005Y4354321D01*
X5910005Y4430776D02*
G01*
X5942771Y4430776D01*
X5953693Y4426965D01*
X5957249Y4423410D01*
X5960805Y4416297D01*
X5960805Y4408931D01*
X5957249Y4401565D01*
X5953693Y4398010D01*
X5942771Y4394454D01*
X5910005Y4394454D01*
X5935405Y4394454D02*
G01*
X5960805Y4354321D01*
X5984935Y4416297D02*
G01*
X5992047Y4419854D01*
X6002969Y4430776D01*
X6002969Y4354321D01*
X6034465Y4430776D02*
G01*
X6074343Y4430776D01*
X6052499Y4401565D01*
X6063421Y4401565D01*
X6070787Y4398010D01*
X6074343Y4394454D01*
X6077899Y4383531D01*
X6077899Y4376165D01*
X6074343Y4365244D01*
X6066977Y4357878D01*
X6056055Y4354321D01*
X6045133Y4354321D01*
X6034465Y4357878D01*
X6030655Y4361687D01*
X6027099Y4368800D01*
X790100Y240771D02*
G01*
X790100Y164317D01*
X790100Y240771D02*
G01*
X822612Y240771D01*
X833534Y237215D01*
X837344Y233405D01*
X840900Y226293D01*
X840900Y218927D01*
X837344Y211561D01*
X833534Y208005D01*
X822612Y204449D01*
X790100Y204449D01*
X815500Y204449D02*
G01*
X840900Y164317D01*
X868586Y222483D02*
G01*
X868586Y226293D01*
X872142Y233405D01*
X875698Y237215D01*
X883064Y240771D01*
X897542Y240771D01*
X904908Y237215D01*
X908464Y233405D01*
X912274Y226293D01*
X912274Y218927D01*
X908464Y211561D01*
X901352Y200639D01*
X865030Y164317D01*
X915830Y164317D01*
X961550Y240771D02*
G01*
X950628Y237215D01*
X943516Y226293D01*
X939706Y208005D01*
X939706Y197083D01*
X943516Y178795D01*
X950628Y167873D01*
X961550Y164317D01*
X968916Y164317D01*
X979838Y167873D01*
X987204Y178795D01*
X990760Y197083D01*
X990760Y208005D01*
X987204Y226293D01*
X979838Y237215D01*
X968916Y240771D01*
X961550Y240771D01*
X1299895Y230751D02*
G01*
X1299895Y154297D01*
X1299895Y230751D02*
G01*
X1332661Y230751D01*
X1343583Y227195D01*
X1347139Y223385D01*
X1350949Y216273D01*
X1350949Y208907D01*
X1347139Y201541D01*
X1343583Y197985D01*
X1332661Y194429D01*
X1299895Y194429D01*
X1325549Y194429D02*
G01*
X1350949Y154297D01*
X1378635Y212463D02*
G01*
X1378635Y216273D01*
X1382191Y223385D01*
X1385747Y227195D01*
X1393113Y230751D01*
X1407591Y230751D01*
X1414957Y227195D01*
X1418513Y223385D01*
X1422069Y216273D01*
X1422069Y208907D01*
X1418513Y201541D01*
X1411147Y190619D01*
X1374825Y154297D01*
X1425879Y154297D01*
X1449755Y216273D02*
G01*
X1457121Y219829D01*
X1468043Y230751D01*
X1468043Y154297D01*
X4389915Y1310667D02*
G01*
X4389915Y1234467D01*
X4389915Y1310667D02*
G01*
X4422681Y1310667D01*
X4433603Y1307111D01*
X4437159Y1303555D01*
X4440969Y1296189D01*
X4440969Y1288823D01*
X4437159Y1281711D01*
X4433603Y1277901D01*
X4422681Y1274345D01*
X4389915Y1274345D01*
X4415569Y1274345D02*
G01*
X4440969Y1234467D01*
X4501167Y1310667D02*
G01*
X4464845Y1259867D01*
X4519455Y1259867D01*
X4501167Y1310667D02*
G01*
X4501167Y1234467D01*
X4670043Y1120647D02*
G01*
X4670043Y1044447D01*
X4670043Y1120647D02*
G01*
X4702809Y1120647D01*
X4713731Y1117092D01*
X4717288Y1113536D01*
X4720843Y1106170D01*
X4720843Y1098804D01*
X4717288Y1091692D01*
X4713731Y1087881D01*
X4702809Y1084326D01*
X4670043Y1084326D01*
X4695443Y1084326D02*
G01*
X4720843Y1044447D01*
X4788661Y1120647D02*
G01*
X4752086Y1120647D01*
X4748529Y1087881D01*
X4752086Y1091692D01*
X4763008Y1095247D01*
X4773929Y1095247D01*
X4784852Y1091692D01*
X4792218Y1084326D01*
X4795774Y1073404D01*
X4795774Y1066292D01*
X4792218Y1055370D01*
X4784852Y1048004D01*
X4773929Y1044447D01*
X4763008Y1044447D01*
X4752086Y1048004D01*
X4748529Y1051560D01*
X4744974Y1058926D01*
X6100063Y2810763D02*
G01*
X6100063Y2734310D01*
X6100063Y2810763D02*
G01*
X6132829Y2810763D01*
X6143497Y2807207D01*
X6147308Y2803397D01*
X6150863Y2796286D01*
X6150863Y2788920D01*
X6147308Y2781554D01*
X6143497Y2777997D01*
X6132829Y2774442D01*
X6100063Y2774442D01*
X6125463Y2774442D02*
G01*
X6150863Y2734310D01*
X6218427Y2799842D02*
G01*
X6214872Y2807207D01*
X6203950Y2810763D01*
X6196838Y2810763D01*
X6185915Y2807207D01*
X6178550Y2796286D01*
X6174993Y2777997D01*
X6174993Y2759710D01*
X6178550Y2745231D01*
X6185915Y2737865D01*
X6196838Y2734310D01*
X6200393Y2734310D01*
X6211315Y2737865D01*
X6218427Y2745231D01*
X6222238Y2756154D01*
X6222238Y2759710D01*
X6218427Y2770631D01*
X6211315Y2777997D01*
X6200393Y2781554D01*
X6196838Y2781554D01*
X6185915Y2777997D01*
X6178550Y2770631D01*
X6174993Y2759710D01*
X4350042Y4830838D02*
G01*
X4350042Y4754384D01*
X4350042Y4830838D02*
G01*
X4382808Y4830838D01*
X4393730Y4827028D01*
X4397286Y4823472D01*
X4400842Y4816106D01*
X4400842Y4808994D01*
X4397286Y4801628D01*
X4393730Y4798072D01*
X4382808Y4794262D01*
X4350042Y4794262D01*
X4375442Y4794262D02*
G01*
X4400842Y4754384D01*
X4475772Y4830838D02*
G01*
X4439450Y4754384D01*
X4424972Y4830838D02*
G01*
X4475772Y4830838D01*
X4330118Y4430712D02*
G01*
X4330118Y4354258D01*
X4330118Y4430712D02*
G01*
X4362630Y4430712D01*
X4373552Y4427156D01*
X4377362Y4423346D01*
X4380918Y4416234D01*
X4380918Y4408868D01*
X4377362Y4401502D01*
X4373552Y4397946D01*
X4362630Y4394390D01*
X4330118Y4394390D01*
X4355518Y4394390D02*
G01*
X4380918Y4354258D01*
X4423082Y4430712D02*
G01*
X4412160Y4427156D01*
X4408604Y4419790D01*
X4408604Y4412424D01*
X4412160Y4405312D01*
X4419526Y4401502D01*
X4434004Y4397946D01*
X4444926Y4394390D01*
X4452292Y4387024D01*
X4455848Y4379912D01*
X4455848Y4368990D01*
X4452292Y4361624D01*
X4448482Y4358068D01*
X4437560Y4354258D01*
X4423082Y4354258D01*
X4412160Y4358068D01*
X4408604Y4361624D01*
X4404794Y4368990D01*
X4404794Y4379912D01*
X4408604Y4387024D01*
X4415716Y4394390D01*
X4426638Y4397946D01*
X4441370Y4401502D01*
X4448482Y4405312D01*
X4452292Y4412424D01*
X4452292Y4419790D01*
X4448482Y4427156D01*
X4437560Y4430712D01*
X4423082Y4430712D01*
X4950066Y2840766D02*
G01*
X4950066Y2764312D01*
X4950066Y2840766D02*
G01*
X4982832Y2840766D01*
X4993500Y2837210D01*
X4997310Y2833400D01*
X5000866Y2826288D01*
X5000866Y2818922D01*
X4997310Y2811556D01*
X4993500Y2808000D01*
X4982832Y2804444D01*
X4950066Y2804444D01*
X4975466Y2804444D02*
G01*
X5000866Y2764312D01*
X5024996Y2826288D02*
G01*
X5032108Y2829844D01*
X5043030Y2840766D01*
X5043030Y2764312D01*
X5089004Y2840766D02*
G01*
X5078082Y2837210D01*
X5070716Y2826288D01*
X5067160Y2808000D01*
X5067160Y2797078D01*
X5070716Y2778790D01*
X5078082Y2767868D01*
X5089004Y2764312D01*
X5096116Y2764312D01*
X5107038Y2767868D01*
X5114404Y2778790D01*
X5117960Y2797078D01*
X5117960Y2808000D01*
X5114404Y2826288D01*
X5107038Y2837210D01*
X5096116Y2840766D01*
X5089004Y2840766D01*
X5520115Y2840766D02*
G01*
X5520115Y2764312D01*
X5520115Y2840766D02*
G01*
X5552627Y2840766D01*
X5563549Y2837210D01*
X5567359Y2833400D01*
X5570915Y2826288D01*
X5570915Y2818922D01*
X5567359Y2811556D01*
X5563549Y2808000D01*
X5552627Y2804444D01*
X5520115Y2804444D01*
X5545515Y2804444D02*
G01*
X5570915Y2764312D01*
X5594791Y2826288D02*
G01*
X5602157Y2829844D01*
X5613079Y2840766D01*
X5613079Y2764312D01*
X5636955Y2826288D02*
G01*
X5644321Y2829844D01*
X5655243Y2840766D01*
X5655243Y2764312D01*
X3810093Y4690813D02*
G01*
X3810093Y4614359D01*
X3810093Y4690813D02*
G01*
X3842605Y4690813D01*
X3853527Y4687003D01*
X3857337Y4683447D01*
X3860893Y4676081D01*
X3860893Y4668969D01*
X3857337Y4661603D01*
X3853527Y4658047D01*
X3842605Y4654237D01*
X3810093Y4654237D01*
X3835493Y4654237D02*
G01*
X3860893Y4614359D01*
X3885023Y4676081D02*
G01*
X3892135Y4679891D01*
X3903057Y4690813D01*
X3903057Y4614359D01*
X3963509Y4690813D02*
G01*
X3927187Y4639759D01*
X3981543Y4639759D01*
X3963509Y4690813D02*
G01*
X3963509Y4614359D01*
X5269991Y1390650D02*
G01*
X5269991Y1314450D01*
X5269991Y1390650D02*
G01*
X5302758Y1390650D01*
X5313679Y1387094D01*
X5317236Y1383537D01*
X5320791Y1376171D01*
X5320791Y1368805D01*
X5317236Y1361694D01*
X5313679Y1357884D01*
X5302758Y1354328D01*
X5269991Y1354328D01*
X5295391Y1354328D02*
G01*
X5320791Y1314450D01*
X5344922Y1376171D02*
G01*
X5352288Y1379728D01*
X5362956Y1390650D01*
X5362956Y1314450D01*
X5430774Y1390650D02*
G01*
X5394452Y1390650D01*
X5390641Y1357884D01*
X5394452Y1361694D01*
X5405374Y1365250D01*
X5416295Y1365250D01*
X5426963Y1361694D01*
X5434329Y1354328D01*
X5437886Y1343405D01*
X5437886Y1336294D01*
X5434329Y1325371D01*
X5426963Y1318005D01*
X5416295Y1314450D01*
X5405374Y1314450D01*
X5394452Y1318005D01*
X5390641Y1321562D01*
X5387086Y1328928D01*
X3659886Y2050795D02*
G01*
X3659886Y1974342D01*
X3659886Y2050795D02*
G01*
X3692652Y2050795D01*
X3703574Y2046986D01*
X3707384Y2043429D01*
X3710940Y2036063D01*
X3710940Y2028952D01*
X3707384Y2021586D01*
X3703574Y2018029D01*
X3692652Y2014473D01*
X3659886Y2014473D01*
X3685540Y2014473D02*
G01*
X3710940Y1974342D01*
X3734815Y2050795D02*
G01*
X3734815Y1974342D01*
X3734815Y2050795D02*
G01*
X3785870Y1974342D01*
X3785870Y2050795D02*
G01*
X3785870Y1974342D01*
X3846068Y2050795D02*
G01*
X3809745Y1999742D01*
X3864356Y1999742D01*
X3846068Y2050795D02*
G01*
X3846068Y1974342D01*
X5589871Y180845D02*
G01*
X5589871Y104391D01*
X5589871Y180845D02*
G01*
X5622637Y180845D01*
X5633559Y177035D01*
X5637369Y173479D01*
X5640925Y166113D01*
X5640925Y159001D01*
X5637369Y151635D01*
X5633559Y148079D01*
X5622637Y144269D01*
X5589871Y144269D01*
X5615525Y144269D02*
G01*
X5640925Y104391D01*
X5715855Y169923D02*
G01*
X5708489Y177035D01*
X5697567Y180845D01*
X5683089Y180845D01*
X5672167Y177035D01*
X5664801Y169923D01*
X5664801Y162557D01*
X5668611Y155191D01*
X5672167Y151635D01*
X5679533Y148079D01*
X5701377Y140713D01*
X5708489Y137157D01*
X5712045Y133347D01*
X5715855Y126235D01*
X5715855Y115313D01*
X5708489Y107947D01*
X5697567Y104391D01*
X5683089Y104391D01*
X5672167Y107947D01*
X5664801Y115313D01*
X5765385Y180845D02*
G01*
X5765385Y104391D01*
X5739731Y180845D02*
G01*
X5790785Y180845D01*
X759998Y3860627D02*
G01*
X759998Y3806271D01*
X763554Y3795349D01*
X770920Y3787983D01*
X781842Y3784427D01*
X789208Y3784427D01*
X799876Y3787983D01*
X807242Y3795349D01*
X810798Y3806271D01*
X810798Y3860627D01*
X838484Y3842593D02*
G01*
X838484Y3846149D01*
X842294Y3853515D01*
X845850Y3857071D01*
X852962Y3860627D01*
X867694Y3860627D01*
X874806Y3857071D01*
X878616Y3853515D01*
X882172Y3846149D01*
X882172Y3838783D01*
X878616Y3831671D01*
X871250Y3820749D01*
X834928Y3784427D01*
X885728Y3784427D01*
X819922Y2620647D02*
G01*
X819922Y2566291D01*
X823732Y2555369D01*
X830844Y2548003D01*
X841766Y2544447D01*
X849132Y2544447D01*
X860054Y2548003D01*
X867166Y2555369D01*
X870976Y2566291D01*
X870976Y2620647D01*
X902218Y2620647D02*
G01*
X942096Y2620647D01*
X920252Y2591691D01*
X931174Y2591691D01*
X938540Y2587881D01*
X942096Y2584325D01*
X945906Y2573403D01*
X945906Y2566291D01*
X942096Y2555369D01*
X934984Y2548003D01*
X924062Y2544447D01*
X913140Y2544447D01*
X902218Y2548003D01*
X898662Y2551559D01*
X894852Y2558925D01*
X4800091Y2200655D02*
G01*
X4829047Y2124455D01*
X4858258Y2200655D02*
G01*
X4829047Y2124455D01*
X4882134Y2200655D02*
G01*
X4882134Y2124455D01*
X4882134Y2124455D02*
G01*
X4925822Y2124455D01*
X4971541Y2200655D02*
G01*
X4964429Y2197100D01*
X4957063Y2189734D01*
X4953508Y2182621D01*
X4949697Y2171700D01*
X4949697Y2153412D01*
X4953508Y2142489D01*
X4957063Y2135378D01*
X4964429Y2128012D01*
X4971541Y2124455D01*
X4986274Y2124455D01*
X4993386Y2128012D01*
X5000752Y2135378D01*
X5004308Y2142489D01*
X5007863Y2153412D01*
X5007863Y2171700D01*
X5004308Y2182621D01*
X5000752Y2189734D01*
X4993386Y2197100D01*
X4986274Y2200655D01*
X4971541Y2200655D01*
X5086604Y2182621D02*
G01*
X5082793Y2189734D01*
X5075681Y2197100D01*
X5068315Y2200655D01*
X5053838Y2200655D01*
X5046472Y2197100D01*
X5039359Y2189734D01*
X5035550Y2182621D01*
X5031993Y2171700D01*
X5031993Y2153412D01*
X5035550Y2142489D01*
X5039359Y2135378D01*
X5046472Y2128012D01*
X5053838Y2124455D01*
X5068315Y2124455D01*
X5075681Y2128012D01*
X5082793Y2135378D01*
X5086604Y2142489D01*
X5086604Y2153412D01*
X5068315Y2153412D02*
G01*
X5086604Y2153412D01*
X5110479Y2200655D02*
G01*
X5110479Y2124455D01*
X5188965Y2182621D02*
G01*
X5185409Y2189734D01*
X5178297Y2197100D01*
X5170931Y2200655D01*
X5156454Y2200655D01*
X5149088Y2197100D01*
X5141722Y2189734D01*
X5138165Y2182621D01*
X5134609Y2171700D01*
X5134609Y2153412D01*
X5138165Y2142489D01*
X5141722Y2135378D01*
X5149088Y2128012D01*
X5156454Y2124455D01*
X5170931Y2124455D01*
X5178297Y2128012D01*
X5185409Y2135378D01*
X5188965Y2142489D01*
D12*
X2781300Y5360415D02*
G01*
X2781300Y5251450D01*
X2781300Y5360415D02*
G01*
X2828036Y5360415D01*
X2843529Y5355336D01*
X2848863Y5350002D01*
X2853943Y5339587D01*
X2853943Y5329173D01*
X2848863Y5318760D01*
X2843529Y5313679D01*
X2828036Y5308600D01*
X2781300Y5308600D01*
X2817622Y5308600D02*
G01*
X2853943Y5251450D01*
X2929890Y5360415D02*
G01*
X2888234Y5251450D01*
X2929890Y5360415D02*
G01*
X2971545Y5251450D01*
X2903981Y5287771D02*
G01*
X2955797Y5287771D01*
X3078479Y5344921D02*
G01*
X3068065Y5355336D01*
X3052572Y5360415D01*
X3031743Y5360415D01*
X3016250Y5355336D01*
X3005836Y5344921D01*
X3005836Y5334507D01*
X3010915Y5324094D01*
X3016250Y5318760D01*
X3026409Y5313679D01*
X3057652Y5303265D01*
X3068065Y5298186D01*
X3073400Y5292852D01*
X3078479Y5282437D01*
X3078479Y5266944D01*
X3068065Y5256529D01*
X3052572Y5251450D01*
X3031743Y5251450D01*
X3016250Y5256529D01*
X3005836Y5266944D01*
X3112770Y5360415D02*
G01*
X3112770Y5251450D01*
X3112770Y5360415D02*
G01*
X3159506Y5360415D01*
X3175000Y5355336D01*
X3180334Y5350002D01*
X3185413Y5339587D01*
X3185413Y5324094D01*
X3180334Y5313679D01*
X3175000Y5308600D01*
X3159506Y5303265D01*
X3112770Y5303265D01*
X3219704Y5360415D02*
G01*
X3219704Y5251450D01*
X3219704Y5360415D02*
G01*
X3266440Y5360415D01*
X3282188Y5355336D01*
X3287268Y5350002D01*
X3292602Y5339587D01*
X3292602Y5329173D01*
X3287268Y5318760D01*
X3282188Y5313679D01*
X3266440Y5308600D01*
X3219704Y5308600D02*
G01*
X3266440Y5308600D01*
X3282188Y5303265D01*
X3287268Y5298186D01*
X3292602Y5287771D01*
X3292602Y5272023D01*
X3287268Y5261610D01*
X3282188Y5256529D01*
X3266440Y5251450D01*
X3219704Y5251450D01*
X3326891Y5360415D02*
G01*
X3326891Y5251450D01*
X3326891Y5360415D02*
G01*
X3394456Y5360415D01*
X3326891Y5308600D02*
G01*
X3368293Y5308600D01*
X3326891Y5251450D02*
G01*
X3394456Y5251450D01*
X3428745Y5360415D02*
G01*
X3428745Y5251450D01*
X3428745Y5360415D02*
G01*
X3475481Y5360415D01*
X3490975Y5355336D01*
X3496309Y5350002D01*
X3501390Y5339587D01*
X3501390Y5329173D01*
X3496309Y5318760D01*
X3490975Y5313679D01*
X3475481Y5308600D01*
X3428745Y5308600D01*
X3465068Y5308600D02*
G01*
X3501390Y5251450D01*
X3535679Y5360415D02*
G01*
X3535679Y5251450D01*
X3535679Y5360415D02*
G01*
X3582415Y5360415D01*
X3597909Y5355336D01*
X3603243Y5350002D01*
X3608324Y5339587D01*
X3608324Y5329173D01*
X3603243Y5318760D01*
X3597909Y5313679D01*
X3582415Y5308600D01*
X3535679Y5308600D01*
X3572002Y5308600D02*
G01*
X3608324Y5251450D01*
X3642613Y5360415D02*
G01*
X3684270Y5308600D01*
X3684270Y5251450D01*
X3725925Y5360415D02*
G01*
X3684270Y5308600D01*
X3760215Y5298186D02*
G01*
X3853688Y5298186D01*
X3924300Y5360415D02*
G01*
X3924300Y5251450D01*
X3887977Y5360415D02*
G01*
X3960622Y5360415D01*
X4026154Y5360415D02*
G01*
X4015740Y5355336D01*
X4005325Y5344921D01*
X4000245Y5334507D01*
X3994911Y5318760D01*
X3994911Y5292852D01*
X4000245Y5277357D01*
X4005325Y5266944D01*
X4015740Y5256529D01*
X4026154Y5251450D01*
X4046981Y5251450D01*
X4057395Y5256529D01*
X4067809Y5266944D01*
X4072890Y5277357D01*
X4077970Y5292852D01*
X4077970Y5318760D01*
X4072890Y5334507D01*
X4067809Y5344921D01*
X4057395Y5355336D01*
X4046981Y5360415D01*
X4026154Y5360415D01*
X4112259Y5360415D02*
G01*
X4112259Y5251450D01*
X4112259Y5360415D02*
G01*
X4159250Y5360415D01*
X4174743Y5355336D01*
X4179824Y5350002D01*
X4185158Y5339587D01*
X4185158Y5324094D01*
X4179824Y5313679D01*
X4174743Y5308600D01*
X4159250Y5303265D01*
X4112259Y5303265D01*
X4219447Y5339587D02*
G01*
X4229861Y5344921D01*
X4245356Y5360415D01*
X4245356Y5251450D01*
D11*
X3534656Y2262504D02*
G01*
X3530846Y2269870D01*
X3523734Y2276982D01*
X3516368Y2280793D01*
X3501890Y2280793D01*
X3494524Y2276982D01*
X3487158Y2269870D01*
X3483602Y2262504D01*
X3480046Y2251582D01*
X3480046Y2233548D01*
X3483602Y2222627D01*
X3487158Y2215261D01*
X3494524Y2207895D01*
X3501890Y2204338D01*
X3516368Y2204338D01*
X3523734Y2207895D01*
X3530846Y2215261D01*
X3534656Y2222627D01*
X3562088Y2262504D02*
G01*
X3562088Y2266061D01*
X3565898Y2273427D01*
X3569454Y2276982D01*
X3576820Y2280793D01*
X3591298Y2280793D01*
X3598664Y2276982D01*
X3602220Y2273427D01*
X3605776Y2266061D01*
X3605776Y2258948D01*
X3602220Y2251582D01*
X3594854Y2240661D01*
X3558532Y2204338D01*
X3609332Y2204338D01*
X3677150Y2269870D02*
G01*
X3673340Y2276982D01*
X3662418Y2280793D01*
X3655306Y2280793D01*
X3644384Y2276982D01*
X3637018Y2266061D01*
X3633462Y2248027D01*
X3633462Y2229738D01*
X3637018Y2215261D01*
X3644384Y2207895D01*
X3655306Y2204338D01*
X3658862Y2204338D01*
X3669784Y2207895D01*
X3677150Y2215261D01*
X3680706Y2226182D01*
X3680706Y2229738D01*
X3677150Y2240661D01*
X3669784Y2248027D01*
X3658862Y2251582D01*
X3655306Y2251582D01*
X3644384Y2248027D01*
X3637018Y2240661D01*
X3633462Y2229738D01*
X4494529Y3562350D02*
G01*
X4490974Y3569715D01*
X4483608Y3577081D01*
X4476241Y3580637D01*
X4461763Y3580637D01*
X4454397Y3577081D01*
X4447286Y3569715D01*
X4443475Y3562350D01*
X4439920Y3551428D01*
X4439920Y3533394D01*
X4443475Y3522471D01*
X4447286Y3515105D01*
X4454397Y3507994D01*
X4461763Y3504184D01*
X4476241Y3504184D01*
X4483608Y3507994D01*
X4490974Y3515105D01*
X4494529Y3522471D01*
X4522215Y3562350D02*
G01*
X4522215Y3566160D01*
X4525772Y3573271D01*
X4529327Y3577081D01*
X4536693Y3580637D01*
X4551172Y3580637D01*
X4558538Y3577081D01*
X4562093Y3573271D01*
X4565904Y3566160D01*
X4565904Y3558794D01*
X4562093Y3551428D01*
X4554981Y3540760D01*
X4518406Y3504184D01*
X4569459Y3504184D01*
X4640579Y3555237D02*
G01*
X4637024Y3544315D01*
X4629658Y3536950D01*
X4618990Y3533394D01*
X4615179Y3533394D01*
X4604258Y3536950D01*
X4597145Y3544315D01*
X4593336Y3555237D01*
X4593336Y3558794D01*
X4597145Y3569715D01*
X4604258Y3577081D01*
X4615179Y3580637D01*
X4618990Y3580637D01*
X4629658Y3577081D01*
X4637024Y3569715D01*
X4640579Y3555237D01*
X4640579Y3536950D01*
X4637024Y3518915D01*
X4629658Y3507994D01*
X4618990Y3504184D01*
X4611624Y3504184D01*
X4600702Y3507994D01*
X4597145Y3515105D01*
X2014570Y3692593D02*
G01*
X2010760Y3699959D01*
X2003648Y3707071D01*
X1996282Y3710881D01*
X1981804Y3710881D01*
X1974438Y3707071D01*
X1967072Y3699959D01*
X1963516Y3692593D01*
X1959960Y3681671D01*
X1959960Y3663383D01*
X1963516Y3652461D01*
X1967072Y3645349D01*
X1974438Y3637983D01*
X1981804Y3634427D01*
X1996282Y3634427D01*
X2003648Y3637983D01*
X2010760Y3645349D01*
X2014570Y3652461D01*
X2045812Y3710881D02*
G01*
X2085690Y3710881D01*
X2063846Y3681671D01*
X2074768Y3681671D01*
X2082134Y3678115D01*
X2085690Y3674305D01*
X2089246Y3663383D01*
X2089246Y3656271D01*
X2085690Y3645349D01*
X2078578Y3637983D01*
X2067656Y3634427D01*
X2056734Y3634427D01*
X2045812Y3637983D01*
X2042002Y3641793D01*
X2038446Y3648905D01*
X2116932Y3692593D02*
G01*
X2116932Y3696149D01*
X2120742Y3703515D01*
X2124298Y3707071D01*
X2131664Y3710881D01*
X2146142Y3710881D01*
X2153254Y3707071D01*
X2157064Y3703515D01*
X2160620Y3696149D01*
X2160620Y3689037D01*
X2157064Y3681671D01*
X2149698Y3670749D01*
X2113376Y3634427D01*
X2164176Y3634427D01*
X3234527Y4572500D02*
G01*
X3230971Y4579866D01*
X3223605Y4586978D01*
X3216239Y4590788D01*
X3201761Y4590788D01*
X3194649Y4586978D01*
X3187283Y4579866D01*
X3183727Y4572500D01*
X3179917Y4561578D01*
X3179917Y4543544D01*
X3183727Y4532622D01*
X3187283Y4525256D01*
X3194649Y4517890D01*
X3201761Y4514334D01*
X3216239Y4514334D01*
X3223605Y4517890D01*
X3230971Y4525256D01*
X3234527Y4532622D01*
X3258657Y4590788D02*
G01*
X3258657Y4514334D01*
X3258657Y4514334D02*
G01*
X3302091Y4514334D01*
X3326221Y4590788D02*
G01*
X3326221Y4514334D01*
X3377021Y4590788D02*
G01*
X3326221Y4539734D01*
X3344255Y4558022D02*
G01*
X3377021Y4514334D01*
X5109972Y4550663D02*
G01*
X5109972Y4474463D01*
X5109972Y4550663D02*
G01*
X5157215Y4550663D01*
X5109972Y4514342D02*
G01*
X5139181Y4514342D01*
X5181345Y4550663D02*
G01*
X5181345Y4474463D01*
X5181345Y4474463D02*
G01*
X5224779Y4474463D01*
X5278120Y4550663D02*
G01*
X5248909Y4474463D01*
X5278120Y4550663D02*
G01*
X5307075Y4474463D01*
X5259831Y4499863D02*
G01*
X5296154Y4499863D01*
X5382006Y4539742D02*
G01*
X5374640Y4547107D01*
X5363718Y4550663D01*
X5349240Y4550663D01*
X5338318Y4547107D01*
X5331206Y4539742D01*
X5331206Y4532629D01*
X5334761Y4525263D01*
X5338318Y4521707D01*
X5345684Y4517897D01*
X5367527Y4510786D01*
X5374640Y4506976D01*
X5378450Y4503420D01*
X5382006Y4496054D01*
X5382006Y4485386D01*
X5374640Y4478020D01*
X5363718Y4474463D01*
X5349240Y4474463D01*
X5338318Y4478020D01*
X5331206Y4485386D01*
X5405881Y4550663D02*
G01*
X5405881Y4474463D01*
X5456936Y4550663D02*
G01*
X5456936Y4474463D01*
X5405881Y4514342D02*
G01*
X5456936Y4514342D01*
X4050029Y2050795D02*
G01*
X4050029Y1974342D01*
X4050029Y2050795D02*
G01*
X4082795Y2050795D01*
X4093718Y2046986D01*
X4097274Y2043429D01*
X4100829Y2036063D01*
X4100829Y2028952D01*
X4097274Y2021586D01*
X4093718Y2018029D01*
X4082795Y2014473D01*
X4050029Y2014473D01*
X4075429Y2014473D02*
G01*
X4100829Y1974342D01*
X4124959Y2050795D02*
G01*
X4124959Y1974342D01*
X4124959Y2050795D02*
G01*
X4175759Y1974342D01*
X4175759Y2050795D02*
G01*
X4175759Y1974342D01*
X4243577Y2050795D02*
G01*
X4207002Y2050795D01*
X4203445Y2018029D01*
X4207002Y2021586D01*
X4217924Y2025395D01*
X4228845Y2025395D01*
X4239768Y2021586D01*
X4247134Y2014473D01*
X4250690Y2003552D01*
X4250690Y1996186D01*
X4247134Y1985263D01*
X4239768Y1977897D01*
X4228845Y1974342D01*
X4217924Y1974342D01*
X4207002Y1977897D01*
X4203445Y1981707D01*
X4199890Y1988820D01*
X2450084Y2050795D02*
G01*
X2450084Y1974342D01*
X2450084Y2050795D02*
G01*
X2482850Y2050795D01*
X2493518Y2046986D01*
X2497327Y2043429D01*
X2500884Y2036063D01*
X2500884Y2028952D01*
X2497327Y2021586D01*
X2493518Y2018029D01*
X2482850Y2014473D01*
X2450084Y2014473D01*
X2475484Y2014473D02*
G01*
X2500884Y1974342D01*
X2525013Y2050795D02*
G01*
X2525013Y1974342D01*
X2525013Y2050795D02*
G01*
X2575813Y1974342D01*
X2575813Y2050795D02*
G01*
X2575813Y1974342D01*
X2599943Y2036063D02*
G01*
X2607056Y2039873D01*
X2617977Y2050795D01*
X2617977Y1974342D01*
X2839974Y2050795D02*
G01*
X2839974Y1974342D01*
X2839974Y2050795D02*
G01*
X2872740Y2050795D01*
X2883661Y2046986D01*
X2887218Y2043429D01*
X2891027Y2036063D01*
X2891027Y2028952D01*
X2887218Y2021586D01*
X2883661Y2018029D01*
X2872740Y2014473D01*
X2839974Y2014473D01*
X2865374Y2014473D02*
G01*
X2891027Y1974342D01*
X2914904Y2050795D02*
G01*
X2914904Y1974342D01*
X2914904Y2050795D02*
G01*
X2965704Y1974342D01*
X2965704Y2050795D02*
G01*
X2965704Y1974342D01*
X2993390Y2032507D02*
G01*
X2993390Y2036063D01*
X2997200Y2043429D01*
X3000756Y2046986D01*
X3008122Y2050795D01*
X3022600Y2050795D01*
X3029711Y2046986D01*
X3033522Y2043429D01*
X3037077Y2036063D01*
X3037077Y2028952D01*
X3033522Y2021586D01*
X3026156Y2010663D01*
X2989834Y1974342D01*
X3040634Y1974342D01*
X3240024Y2050795D02*
G01*
X3240024Y1974342D01*
X3240024Y2050795D02*
G01*
X3272790Y2050795D01*
X3283711Y2046986D01*
X3287268Y2043429D01*
X3290824Y2036063D01*
X3290824Y2028952D01*
X3287268Y2021586D01*
X3283711Y2018029D01*
X3272790Y2014473D01*
X3240024Y2014473D01*
X3265424Y2014473D02*
G01*
X3290824Y1974342D01*
X3314954Y2050795D02*
G01*
X3314954Y1974342D01*
X3314954Y2050795D02*
G01*
X3365754Y1974342D01*
X3365754Y2050795D02*
G01*
X3365754Y1974342D01*
X3396995Y2050795D02*
G01*
X3437127Y2050795D01*
X3415284Y2021586D01*
X3426206Y2021586D01*
X3433572Y2018029D01*
X3437127Y2014473D01*
X3440684Y2003552D01*
X3440684Y1996186D01*
X3437127Y1985263D01*
X3429761Y1977897D01*
X3418840Y1974342D01*
X3407918Y1974342D01*
X3396995Y1977897D01*
X3393440Y1981707D01*
X3389884Y1988820D01*
X379984Y5760465D02*
G01*
X379984Y5726429D01*
X382270Y5719571D01*
X386842Y5715000D01*
X393700Y5712713D01*
X398271Y5712713D01*
X405129Y5715000D01*
X409447Y5719571D01*
X411734Y5726429D01*
X411734Y5760465D01*
X426720Y5751321D02*
G01*
X431292Y5753607D01*
X438150Y5760465D01*
X438150Y5712713D01*
X3190069Y3920738D02*
G01*
X3190069Y3844284D01*
X3190069Y3920738D02*
G01*
X3237313Y3920738D01*
X3190069Y3884416D02*
G01*
X3219025Y3884416D01*
X3261189Y3920738D02*
G01*
X3261189Y3844284D01*
X3261189Y3920738D02*
G01*
X3293955Y3920738D01*
X3304877Y3917182D01*
X3308433Y3913372D01*
X3312243Y3906260D01*
X3312243Y3895338D01*
X3308433Y3887972D01*
X3304877Y3884416D01*
X3293955Y3880606D01*
X3261189Y3880606D01*
X3390729Y3902450D02*
G01*
X3387173Y3909816D01*
X3379807Y3917182D01*
X3372441Y3920738D01*
X3357963Y3920738D01*
X3350597Y3917182D01*
X3343485Y3909816D01*
X3339929Y3902450D01*
X3336119Y3891528D01*
X3336119Y3873494D01*
X3339929Y3862572D01*
X3343485Y3855206D01*
X3350597Y3848094D01*
X3357963Y3844284D01*
X3372441Y3844284D01*
X3379807Y3848094D01*
X3387173Y3855206D01*
X3390729Y3862572D01*
X3390729Y3873494D01*
X3372441Y3873494D02*
G01*
X3390729Y3873494D01*
X3443815Y3920738D02*
G01*
X3414605Y3844284D01*
X3443815Y3920738D02*
G01*
X3473025Y3844284D01*
X3425527Y3869684D02*
G01*
X3462103Y3869684D01*
X2089911Y4840825D02*
G01*
X2089911Y4764371D01*
X2089911Y4840825D02*
G01*
X2122677Y4840825D01*
X2133600Y4837015D01*
X2137156Y4833459D01*
X2140965Y4826093D01*
X2140965Y4818981D01*
X2137156Y4811615D01*
X2133600Y4808059D01*
X2122677Y4804249D01*
X2089911Y4804249D01*
X2115565Y4804249D02*
G01*
X2140965Y4764371D01*
X2164841Y4826093D02*
G01*
X2172208Y4829903D01*
X2183129Y4840825D01*
X2183129Y4764371D01*
X2250693Y4829903D02*
G01*
X2247138Y4837015D01*
X2236215Y4840825D01*
X2228850Y4840825D01*
X2217927Y4837015D01*
X2210815Y4826093D01*
X2207006Y4808059D01*
X2207006Y4789771D01*
X2210815Y4775293D01*
X2217927Y4767927D01*
X2228850Y4764371D01*
X2232659Y4764371D01*
X2243327Y4767927D01*
X2250693Y4775293D01*
X2254250Y4786215D01*
X2254250Y4789771D01*
X2250693Y4800693D01*
X2243327Y4808059D01*
X2232659Y4811615D01*
X2228850Y4811615D01*
X2217927Y4808059D01*
X2210815Y4800693D01*
X2207006Y4789771D01*
X1840003Y4850637D02*
G01*
X1840003Y4774437D01*
X1840003Y4850637D02*
G01*
X1872769Y4850637D01*
X1883691Y4847081D01*
X1887247Y4843526D01*
X1890803Y4836160D01*
X1890803Y4828794D01*
X1887247Y4821681D01*
X1883691Y4817871D01*
X1872769Y4814315D01*
X1840003Y4814315D01*
X1865403Y4814315D02*
G01*
X1890803Y4774437D01*
X1914933Y4836160D02*
G01*
X1922299Y4839715D01*
X1932967Y4850637D01*
X1932967Y4774437D01*
X2007897Y4850637D02*
G01*
X1971575Y4774437D01*
X1957097Y4850637D02*
G01*
X2007897Y4850637D01*
X2350101Y4840825D02*
G01*
X2350101Y4764371D01*
X2350101Y4840825D02*
G01*
X2382613Y4840825D01*
X2393535Y4837015D01*
X2397345Y4833459D01*
X2400901Y4826093D01*
X2400901Y4818981D01*
X2397345Y4811615D01*
X2393535Y4808059D01*
X2382613Y4804249D01*
X2350101Y4804249D01*
X2375501Y4804249D02*
G01*
X2400901Y4764371D01*
X2424777Y4826093D02*
G01*
X2432143Y4829903D01*
X2443065Y4840825D01*
X2443065Y4764371D01*
X2485229Y4840825D02*
G01*
X2474307Y4837015D01*
X2470751Y4829903D01*
X2470751Y4822537D01*
X2474307Y4815171D01*
X2481673Y4811615D01*
X2496151Y4808059D01*
X2507073Y4804249D01*
X2514439Y4797137D01*
X2517995Y4789771D01*
X2517995Y4778849D01*
X2514439Y4771737D01*
X2510629Y4767927D01*
X2499707Y4764371D01*
X2485229Y4764371D01*
X2474307Y4767927D01*
X2470751Y4771737D01*
X2467195Y4778849D01*
X2467195Y4789771D01*
X2470751Y4797137D01*
X2478117Y4804249D01*
X2488785Y4808059D01*
X2503517Y4811615D01*
X2510629Y4815171D01*
X2514439Y4822537D01*
X2514439Y4829903D01*
X2510629Y4837015D01*
X2499707Y4840825D01*
X2485229Y4840825D01*
X2610037Y4840731D02*
G01*
X2610037Y4764278D01*
X2610037Y4840731D02*
G01*
X2642803Y4840731D01*
X2653725Y4837176D01*
X2657281Y4833365D01*
X2660837Y4826254D01*
X2660837Y4818887D01*
X2657281Y4811521D01*
X2653725Y4807965D01*
X2642803Y4804410D01*
X2610037Y4804410D01*
X2635437Y4804410D02*
G01*
X2660837Y4764278D01*
X2684967Y4826254D02*
G01*
X2692079Y4829810D01*
X2703001Y4840731D01*
X2703001Y4764278D01*
X2774375Y4815331D02*
G01*
X2770819Y4804410D01*
X2763453Y4797044D01*
X2752531Y4793487D01*
X2748975Y4793487D01*
X2738053Y4797044D01*
X2730687Y4804410D01*
X2727131Y4815331D01*
X2727131Y4818887D01*
X2730687Y4829810D01*
X2738053Y4837176D01*
X2748975Y4840731D01*
X2752531Y4840731D01*
X2763453Y4837176D01*
X2770819Y4829810D01*
X2774375Y4815331D01*
X2774375Y4797044D01*
X2770819Y4779010D01*
X2763453Y4768087D01*
X2752531Y4764278D01*
X2745165Y4764278D01*
X2734243Y4768087D01*
X2730687Y4775200D01*
X2844579Y4582474D02*
G01*
X2841023Y4589840D01*
X2833657Y4597206D01*
X2826291Y4600762D01*
X2811813Y4600762D01*
X2804447Y4597206D01*
X2797335Y4589840D01*
X2793525Y4582474D01*
X2789969Y4571552D01*
X2789969Y4553518D01*
X2793525Y4542596D01*
X2797335Y4535230D01*
X2804447Y4527864D01*
X2811813Y4524308D01*
X2826291Y4524308D01*
X2833657Y4527864D01*
X2841023Y4535230D01*
X2844579Y4542596D01*
X2923065Y4582474D02*
G01*
X2919509Y4589840D01*
X2912143Y4597206D01*
X2904777Y4600762D01*
X2890299Y4600762D01*
X2883187Y4597206D01*
X2875821Y4589840D01*
X2872265Y4582474D01*
X2868455Y4571552D01*
X2868455Y4553518D01*
X2872265Y4542596D01*
X2875821Y4535230D01*
X2883187Y4527864D01*
X2890299Y4524308D01*
X2904777Y4524308D01*
X2912143Y4527864D01*
X2919509Y4535230D01*
X2923065Y4542596D01*
X2947195Y4600762D02*
G01*
X2947195Y4524308D01*
X2947195Y4524308D02*
G01*
X2990629Y4524308D01*
X3014759Y4600762D02*
G01*
X3014759Y4524308D01*
X3065559Y4600762D02*
G01*
X3014759Y4549708D01*
X3032793Y4567996D02*
G01*
X3065559Y4524308D01*
G36*
X1048105Y2094280D02*
G01*
X1048105Y1865680D01*
X1073505Y1865680D01*
X1073505Y2094280D01*
G37*
G36*
X336499Y5044287D02*
G01*
X336499Y4815687D01*
X361899Y4815687D01*
X361899Y5044287D01*
G37*
G36*
X785672Y4521911D02*
G01*
X785672Y4496511D01*
X1014272Y4496511D01*
X1014272Y4521911D01*
G37*
G36*
X478078Y3714292D02*
G01*
X478078Y3485692D01*
X503478Y3485692D01*
X503478Y3714292D01*
G37*
G36*
X478078Y2394305D02*
G01*
X478078Y2165705D01*
X503478Y2165705D01*
X503478Y2394305D01*
G37*
G36*
X1048105Y2394305D02*
G01*
X1048105Y2165705D01*
X1073505Y2165705D01*
X1073505Y2394305D01*
G37*
G36*
X1275689Y3441903D02*
G01*
X1275689Y3416503D01*
X1504289Y3416503D01*
X1504289Y3441903D01*
G37*
G36*
X1355699Y4051909D02*
G01*
X1355699Y4026509D01*
X1584299Y4026509D01*
X1584299Y4051909D01*
G37*
G36*
X665022Y4525111D02*
G01*
X665022Y4472228D01*
X710742Y4472228D01*
X710742Y4525111D01*
G37*
G36*
X665022Y4767732D02*
G01*
X665022Y4714900D01*
X710742Y4714900D01*
X710742Y4767732D01*
G37*
G36*
X942238Y3195015D02*
G01*
X942238Y3149295D01*
X995121Y3149295D01*
X995121Y3195015D01*
G37*
G36*
X1184910Y3195015D02*
G01*
X1184910Y3149295D01*
X1237742Y3149295D01*
X1237742Y3195015D01*
G37*
G36*
X4923993Y562000D02*
G01*
X4960010Y535990D01*
X4995976Y560984D01*
G37*
G36*
X5214010Y562000D02*
G01*
X5249976Y535990D01*
X5285994Y560984D01*
G37*
G36*
X5783224Y725474D02*
G01*
X5783224Y694994D01*
X5861710Y694994D01*
X5861710Y725474D01*
G37*
G36*
X5538266Y725474D02*
G01*
X5538266Y694994D01*
X5616752Y694994D01*
X5616752Y725474D01*
G37*
D13*
X1170000Y2094296D02*
G01*
X1022809Y2094296D01*
X1022809Y2094296D01*
X849998Y2094296D01*
X1169997Y1865696D02*
G01*
X849995Y1865696D01*
X1169997Y1865696D02*
G01*
X1169997Y1886882D01*
X1169997Y2073109D02*
G01*
X1169997Y2094296D01*
X849995Y1865696D02*
G01*
X849995Y1886882D01*
X849995Y2073109D02*
G01*
X849995Y2094296D01*
D12*
X1432377Y1477855D02*
G01*
X1432377Y1922137D01*
X2167615Y1922137D01*
X2167615Y1477855D01*
X1432377Y1477855D01*
D13*
X239996Y4815690D02*
G01*
X387187Y4815690D01*
X387187Y4815690D01*
X559998Y4815690D01*
X239999Y5044290D02*
G01*
X560001Y5044290D01*
X239999Y5044290D02*
G01*
X239999Y5023104D01*
X239999Y4836876D02*
G01*
X239999Y4815690D01*
X560001Y5044290D02*
G01*
X560001Y5023104D01*
X560001Y4836876D02*
G01*
X560001Y4815690D01*
X1014298Y4399988D02*
G01*
X1014298Y4547179D01*
X1014298Y4547179D01*
X1014298Y4719990D01*
X785698Y4399991D02*
G01*
X785698Y4719993D01*
X785698Y4399991D02*
G01*
X806884Y4399991D01*
X993112Y4399991D02*
G01*
X1014298Y4399991D01*
X785698Y4719993D02*
G01*
X806884Y4719993D01*
X993112Y4719993D02*
G01*
X1014298Y4719993D01*
X600001Y3714292D02*
G01*
X452810Y3714292D01*
X452810Y3714292D01*
X279999Y3714292D01*
X599998Y3485692D02*
G01*
X279996Y3485692D01*
X599998Y3485692D02*
G01*
X599998Y3506878D01*
X599998Y3693106D02*
G01*
X599998Y3714292D01*
X279996Y3485692D02*
G01*
X279996Y3506878D01*
X279996Y3693106D02*
G01*
X279996Y3714292D01*
X600001Y2394295D02*
G01*
X452810Y2394295D01*
X452810Y2394295D01*
X279999Y2394295D01*
X599998Y2165695D02*
G01*
X279996Y2165695D01*
X599998Y2165695D02*
G01*
X599998Y2186881D01*
X599998Y2373109D02*
G01*
X599998Y2394295D01*
X279996Y2165695D02*
G01*
X279996Y2186881D01*
X279996Y2373109D02*
G01*
X279996Y2394295D01*
X1170000Y2394295D02*
G01*
X1022809Y2394295D01*
X1022809Y2394295D01*
X849998Y2394295D01*
X1169997Y2165695D02*
G01*
X849995Y2165695D01*
X1169997Y2165695D02*
G01*
X1169997Y2186881D01*
X1169997Y2373109D02*
G01*
X1169997Y2394295D01*
X849995Y2165695D02*
G01*
X849995Y2186881D01*
X849995Y2373109D02*
G01*
X849995Y2394295D01*
X1504297Y3319990D02*
G01*
X1504297Y3467181D01*
X1504297Y3467181D01*
X1504297Y3639992D01*
X1275697Y3319993D02*
G01*
X1275697Y3639995D01*
X1275697Y3319993D02*
G01*
X1296883Y3319993D01*
X1483111Y3319993D02*
G01*
X1504297Y3319993D01*
X1275697Y3639995D02*
G01*
X1296883Y3639995D01*
X1483111Y3639995D02*
G01*
X1504297Y3639995D01*
X1584297Y3929989D02*
G01*
X1584297Y4077180D01*
X1584297Y4077180D01*
X1584297Y4249991D01*
X1355697Y3929992D02*
G01*
X1355697Y4249994D01*
X1355697Y3929992D02*
G01*
X1376883Y3929992D01*
X1563110Y3929992D02*
G01*
X1584297Y3929992D01*
X1355697Y4249994D02*
G01*
X1376883Y4249994D01*
X1563110Y4249994D02*
G01*
X1584297Y4249994D01*
D12*
X1240358Y4398871D02*
G01*
X1240358Y4539871D01*
X1059637Y4539871D02*
G01*
X1059637Y4398871D01*
X1074877Y4383631D02*
G01*
X1225118Y4383631D01*
X1240358Y4761110D02*
G01*
X1240358Y4620110D01*
X1059637Y4620110D02*
G01*
X1059637Y4761110D01*
X1074877Y4776350D02*
G01*
X1225118Y4776350D01*
X1470357Y4398871D02*
G01*
X1470357Y4539871D01*
X1289636Y4539871D02*
G01*
X1289636Y4398871D01*
X1304876Y4383631D02*
G01*
X1455117Y4383631D01*
X1470357Y4761110D02*
G01*
X1470357Y4620110D01*
X1289636Y4620110D02*
G01*
X1289636Y4761110D01*
X1304876Y4776350D02*
G01*
X1455117Y4776350D01*
X1700357Y4398871D02*
G01*
X1700357Y4539871D01*
X1519636Y4539871D02*
G01*
X1519636Y4398871D01*
X1534876Y4383631D02*
G01*
X1685117Y4383631D01*
X1700357Y4761110D02*
G01*
X1700357Y4620110D01*
X1519636Y4620110D02*
G01*
X1519636Y4761110D01*
X1534876Y4776350D02*
G01*
X1685117Y4776350D01*
X621118Y3420353D02*
G01*
X480118Y3420353D01*
X480118Y3239632D02*
G01*
X621118Y3239632D01*
X636358Y3254872D02*
G01*
X636358Y3405113D01*
X258879Y3420353D02*
G01*
X399879Y3420353D01*
X399879Y3239632D02*
G01*
X258879Y3239632D01*
X243639Y3254872D02*
G01*
X243639Y3405113D01*
X621118Y2050356D02*
G01*
X480118Y2050356D01*
X480118Y1869635D02*
G01*
X621118Y1869635D01*
X636358Y1884875D02*
G01*
X636358Y2035116D01*
X258879Y2050356D02*
G01*
X399879Y2050356D01*
X399879Y1869635D02*
G01*
X258879Y1869635D01*
X243639Y1884875D02*
G01*
X243639Y2035116D01*
X4028848Y3039562D02*
G01*
X4169849Y3039562D01*
X4169849Y3220283D02*
G01*
X4028848Y3220283D01*
X4013608Y3205043D02*
G01*
X4013608Y3054802D01*
X4391088Y3039562D02*
G01*
X4250088Y3039562D01*
X4250088Y3220283D02*
G01*
X4391088Y3220283D01*
X4406328Y3205043D02*
G01*
X4406328Y3054802D01*
X4028848Y3259561D02*
G01*
X4169849Y3259561D01*
X4169849Y3440282D02*
G01*
X4028848Y3440282D01*
X4013608Y3425042D02*
G01*
X4013608Y3274801D01*
X4391088Y3259561D02*
G01*
X4250088Y3259561D01*
X4250088Y3440282D02*
G01*
X4391088Y3440282D01*
X4406328Y3425042D02*
G01*
X4406328Y3274801D01*
X2581114Y3330354D02*
G01*
X2440114Y3330354D01*
X2440114Y3149633D02*
G01*
X2581114Y3149633D01*
X2596354Y3164873D02*
G01*
X2596354Y3315114D01*
X2218875Y3330354D02*
G01*
X2359875Y3330354D01*
X2359875Y3149633D02*
G01*
X2218875Y3149633D01*
X2203635Y3164873D02*
G01*
X2203635Y3315114D01*
X2581114Y3550353D02*
G01*
X2440114Y3550353D01*
X2440114Y3369632D02*
G01*
X2581114Y3369632D01*
X2596354Y3384872D02*
G01*
X2596354Y3535113D01*
X2218875Y3550353D02*
G01*
X2359875Y3550353D01*
X2359875Y3369632D02*
G01*
X2218875Y3369632D01*
X2203635Y3384872D02*
G01*
X2203635Y3535113D01*
X3239632Y2681114D02*
G01*
X3239632Y2540114D01*
X3420353Y2540114D02*
G01*
X3420353Y2681114D01*
X3405113Y2696354D02*
G01*
X3254872Y2696354D01*
X3239632Y2318875D02*
G01*
X3239632Y2459875D01*
X3420353Y2459875D02*
G01*
X3420353Y2318875D01*
X3405113Y2303635D02*
G01*
X3254872Y2303635D01*
X4809629Y4181111D02*
G01*
X4809629Y4040111D01*
X4990350Y4040111D02*
G01*
X4990350Y4181111D01*
X4975110Y4196351D02*
G01*
X4824869Y4196351D01*
X4809629Y3818872D02*
G01*
X4809629Y3959872D01*
X4990350Y3959872D02*
G01*
X4990350Y3818872D01*
X4975110Y3803632D02*
G01*
X4824869Y3803632D01*
D13*
X3689969Y4150989D02*
G01*
X3609967Y4150989D01*
X3720955Y4261965D02*
G01*
X3720955Y4181967D01*
X3578989Y4261965D02*
G01*
X3578989Y4181967D01*
X3721536Y4319554D02*
G01*
X3721536Y4399554D01*
X3690553Y4430537D02*
G01*
X3610556Y4430537D01*
X3579576Y4319554D02*
G01*
X3579576Y4399554D01*
D12*
X519681Y4479869D02*
G01*
X519681Y4760112D01*
X672622Y4479869D02*
G01*
X127375Y4479869D01*
X672622Y4760112D02*
G01*
X127375Y4760112D01*
X127375Y4479869D02*
G01*
X127375Y4520021D01*
X127375Y4760112D02*
G01*
X127375Y4719960D01*
X949876Y3340310D02*
G01*
X1230119Y3340310D01*
X949876Y3187369D02*
G01*
X949876Y3732616D01*
X1230119Y3187369D02*
G01*
X1230119Y3732616D01*
X949876Y3732616D02*
G01*
X990028Y3732616D01*
X1230119Y3732616D02*
G01*
X1189967Y3732616D01*
D13*
X454990Y1459997D02*
G01*
X454990Y1279994D01*
X144988Y1459997D02*
G01*
X144988Y1279994D01*
X454990Y929998D02*
G01*
X454990Y749995D01*
X144988Y929998D02*
G01*
X144988Y749995D01*
X4777663Y109283D02*
G01*
X4777663Y357411D01*
X4776589Y358485D01*
X1828185Y122359D02*
G01*
X1828185Y356039D01*
X1831881Y705645D02*
G01*
X1831881Y565475D01*
X1830938Y564532D01*
X2174996Y114851D02*
G01*
X2124997Y239859D01*
X2074997Y114851D01*
X1829889Y114071D02*
G01*
X4770066Y114071D01*
X4768034Y706145D02*
G01*
X4562944Y706145D01*
X2036660Y706145D02*
G01*
X1832188Y706145D01*
X4768034Y706145D02*
G01*
X4768034Y599211D01*
D10*
X5032989Y512998D02*
G01*
X5032989Y398000D01*
X4887991Y398000D01*
X4887991Y517999D01*
X4886990Y579998D02*
G01*
X4886990Y703999D01*
X5031988Y703999D01*
X5031988Y579998D01*
X5032989Y398000D02*
G01*
X5032989Y394997D01*
X5012989Y374997D01*
X4910990Y374997D01*
X4907991Y378000D01*
X4887991Y398000D01*
X5322989Y512998D02*
G01*
X5322989Y398000D01*
X5177990Y398000D01*
X5177990Y517999D01*
X5176989Y579998D02*
G01*
X5176989Y703999D01*
X5321988Y703999D01*
X5321988Y579998D01*
X5322989Y398000D02*
G01*
X5322989Y394997D01*
X5302989Y374997D01*
X5200990Y374997D01*
X5197990Y378000D01*
X5177990Y398000D01*
D12*
X1327617Y2868284D02*
G01*
X1456110Y2868284D01*
X1456110Y3051703D01*
X1327617Y3051703D01*
X1232377Y2868284D02*
G01*
X1103884Y2868284D01*
X1103884Y3051703D01*
X1232377Y3051703D01*
X1327617Y2608285D02*
G01*
X1456110Y2608285D01*
X1456110Y2791703D01*
X1327617Y2791703D01*
X1232377Y2608285D02*
G01*
X1103884Y2608285D01*
X1103884Y2791703D01*
X1232377Y2791703D01*
X1128288Y4042371D02*
G01*
X1128288Y3913878D01*
X1311706Y3913878D01*
X1311706Y4042371D01*
X1128288Y4137611D02*
G01*
X1128288Y4266105D01*
X1311706Y4266105D01*
X1311706Y4137611D01*
X5808278Y3092373D02*
G01*
X5808278Y2963880D01*
X5991697Y2963880D01*
X5991697Y3092373D01*
X5808278Y3187613D02*
G01*
X5808278Y3316107D01*
X5991697Y3316107D01*
X5991697Y3187613D01*
X6047607Y3668283D02*
G01*
X6176101Y3668283D01*
X6176101Y3851701D01*
X6047607Y3851701D01*
X5952368Y3668283D02*
G01*
X5823874Y3668283D01*
X5823874Y3851701D01*
X5952368Y3851701D01*
X6047607Y4128282D02*
G01*
X6176101Y4128282D01*
X6176101Y4311700D01*
X6047607Y4311700D01*
X5952368Y4128282D02*
G01*
X5823874Y4128282D01*
X5823874Y4311700D01*
X5952368Y4311700D01*
X852378Y491708D02*
G01*
X723884Y491708D01*
X723884Y308289D01*
X852378Y308289D01*
X947618Y491708D02*
G01*
X1076111Y491708D01*
X1076111Y308289D01*
X947618Y308289D01*
X1352377Y481708D02*
G01*
X1223883Y481708D01*
X1223883Y298289D01*
X1352377Y298289D01*
X1447617Y481708D02*
G01*
X1576110Y481708D01*
X1576110Y298289D01*
X1447617Y298289D01*
X4516051Y1542618D02*
G01*
X4516051Y1638505D01*
X4383930Y1638505D01*
X4383930Y1542618D01*
X4516051Y1457375D02*
G01*
X4516051Y1361488D01*
X4383930Y1361488D01*
X4383930Y1457375D01*
X4707369Y1016058D02*
G01*
X4611481Y1016058D01*
X4611481Y883937D01*
X4707369Y883937D01*
X4792611Y1016058D02*
G01*
X4888499Y1016058D01*
X4888499Y883937D01*
X4792611Y883937D01*
X6062078Y3024873D02*
G01*
X6062078Y2888881D01*
X6277897Y2888881D01*
X6277897Y3024873D01*
X6062078Y3215114D02*
G01*
X6062078Y3351105D01*
X6277897Y3351105D01*
X6277897Y3215114D01*
X4304870Y4727900D02*
G01*
X4168879Y4727900D01*
X4168879Y4512081D01*
X4304870Y4512081D01*
X4495111Y4727900D02*
G01*
X4631103Y4727900D01*
X4631103Y4512081D01*
X4495111Y4512081D01*
X4304870Y4307900D02*
G01*
X4168879Y4307900D01*
X4168879Y4092082D01*
X4304870Y4092082D01*
X4495111Y4307900D02*
G01*
X4631103Y4307900D01*
X4631103Y4092082D01*
X4495111Y4092082D01*
X4932080Y3054873D02*
G01*
X4932080Y2918881D01*
X5147899Y2918881D01*
X5147899Y3054873D01*
X4932080Y3245114D02*
G01*
X4932080Y3381105D01*
X5147899Y3381105D01*
X5147899Y3245114D01*
X5482079Y3054873D02*
G01*
X5482079Y2918881D01*
X5697898Y2918881D01*
X5697898Y3054873D01*
X5482079Y3245114D02*
G01*
X5482079Y3381105D01*
X5697898Y3381105D01*
X5697898Y3245114D01*
X3792082Y4204870D02*
G01*
X3792082Y4068879D01*
X4007901Y4068879D01*
X4007901Y4204870D01*
X3792082Y4395111D02*
G01*
X3792082Y4531103D01*
X4007901Y4531103D01*
X4007901Y4395111D01*
X5507898Y1795117D02*
G01*
X5507898Y1931108D01*
X5292079Y1931108D01*
X5292079Y1795117D01*
X5507898Y1604876D02*
G01*
X5507898Y1468884D01*
X5292079Y1468884D01*
X5292079Y1604876D01*
D14*
X3926949Y1754995D02*
G01*
X3926949Y1655018D01*
X3552959Y1654992D01*
X3552959Y1759005D01*
X3552997Y1844992D02*
G01*
X3552997Y1946973D01*
X3926987Y1946998D01*
X3926987Y1842968D01*
D12*
X5854108Y702619D02*
G01*
X5854108Y297378D01*
X5854108Y297378D02*
G01*
X5788309Y297378D01*
X5545869Y702619D02*
G01*
X5545869Y297378D01*
X5545869Y297378D02*
G01*
X5611667Y297378D01*
X727138Y4412612D02*
G01*
X727138Y3747371D01*
X452859Y3747371D01*
X452859Y4412612D01*
X727138Y4412612D01*
D13*
X780000Y3184992D02*
G01*
X419999Y3184992D01*
X780000Y2474996D02*
G01*
X419999Y2474996D01*
X419999Y3184992D02*
G01*
X419999Y2474996D01*
X780000Y3184992D02*
G01*
X779998Y2474996D01*
D12*
X4567369Y1522856D02*
G01*
X4567369Y1877136D01*
X5232610Y1877136D01*
X5232610Y1522856D01*
X4567369Y1522856D01*
D13*
X5789221Y5041785D02*
G01*
X5862106Y5041785D01*
X5535221Y5041785D02*
G01*
X5640994Y5041785D01*
X5281221Y5041785D02*
G01*
X5386994Y5041785D01*
X5027221Y5041785D02*
G01*
X5132994Y5041785D01*
X4773221Y5041785D02*
G01*
X4878994Y5041785D01*
X4519221Y5041785D02*
G01*
X4624994Y5041785D01*
X4265221Y5041785D02*
G01*
X4370994Y5041785D01*
X4011221Y5041785D02*
G01*
X4116994Y5041785D01*
X3757221Y5041785D02*
G01*
X3862994Y5041785D01*
X3503221Y5041785D02*
G01*
X3608994Y5041785D01*
X3249221Y5041785D02*
G01*
X3354994Y5041785D01*
X2995221Y5041785D02*
G01*
X3100994Y5041785D01*
X2741221Y5041785D02*
G01*
X2846994Y5041785D01*
X2487221Y5041785D02*
G01*
X2592994Y5041785D01*
X2233221Y5041785D02*
G01*
X2338994Y5041785D01*
X1979221Y5041785D02*
G01*
X2084994Y5041785D01*
X1725221Y5041785D02*
G01*
X1830994Y5041785D01*
X1471221Y5041785D02*
G01*
X1576994Y5041785D01*
X1217221Y5041785D02*
G01*
X1322994Y5041785D01*
X963221Y5041785D02*
G01*
X1068994Y5041785D01*
X742109Y5041785D02*
G01*
X814994Y5041785D01*
X5862106Y5549785D02*
G01*
X5862106Y5041785D01*
X742109Y5549785D02*
G01*
X742109Y5041785D01*
X5789221Y5549785D02*
G01*
X5862109Y5549785D01*
X5535221Y5549785D02*
G01*
X5640994Y5549785D01*
X5281221Y5549785D02*
G01*
X5386994Y5549785D01*
X5027221Y5549785D02*
G01*
X5132994Y5549785D01*
X4773221Y5549785D02*
G01*
X4878994Y5549785D01*
X4519221Y5549785D02*
G01*
X4624994Y5549785D01*
X4265221Y5549785D02*
G01*
X4370994Y5549785D01*
X4011221Y5549785D02*
G01*
X4116994Y5549785D01*
X3757221Y5549785D02*
G01*
X3862994Y5549785D01*
X3503221Y5549785D02*
G01*
X3608994Y5549785D01*
X3249221Y5549785D02*
G01*
X3354994Y5549785D01*
X2995221Y5549785D02*
G01*
X3100994Y5549785D01*
X2741221Y5549785D02*
G01*
X2846994Y5549785D01*
X2487221Y5549785D02*
G01*
X2592994Y5549785D01*
X2233221Y5549785D02*
G01*
X2338994Y5549785D01*
X1979221Y5549785D02*
G01*
X2084994Y5549785D01*
X1725221Y5549785D02*
G01*
X1830994Y5549785D01*
X1471221Y5549785D02*
G01*
X1576994Y5549785D01*
X1217221Y5549785D02*
G01*
X1322994Y5549785D01*
X963221Y5549785D02*
G01*
X1068994Y5549785D01*
X742111Y5549785D02*
G01*
X814994Y5549785D01*
D12*
X3479632Y2681114D02*
G01*
X3479632Y2540114D01*
X3660353Y2540114D02*
G01*
X3660353Y2681114D01*
X3645113Y2696354D02*
G01*
X3494872Y2696354D01*
X3479632Y2318875D02*
G01*
X3479632Y2459875D01*
X3660353Y2459875D02*
G01*
X3660353Y2318875D01*
X3645113Y2303635D02*
G01*
X3494872Y2303635D01*
X4028871Y3479632D02*
G01*
X4169872Y3479632D01*
X4169872Y3660353D02*
G01*
X4028871Y3660353D01*
X4013631Y3645113D02*
G01*
X4013631Y3494872D01*
X4391111Y3479632D02*
G01*
X4250110Y3479632D01*
X4250110Y3660353D02*
G01*
X4391111Y3660353D01*
X4406351Y3645113D02*
G01*
X4406351Y3494872D01*
X2581114Y3760353D02*
G01*
X2440114Y3760353D01*
X2440114Y3579632D02*
G01*
X2581114Y3579632D01*
X2596354Y3594872D02*
G01*
X2596354Y3745113D01*
X2218875Y3760353D02*
G01*
X2359875Y3760353D01*
X2359875Y3579632D02*
G01*
X2218875Y3579632D01*
X2203635Y3594872D02*
G01*
X2203635Y3745113D01*
D15*
X3089983Y4120215D02*
G01*
X3509982Y4120215D01*
X3509982Y4460214D01*
X3089983Y4460214D01*
X3089983Y4120215D01*
D12*
X5042250Y3760566D02*
G01*
X5042250Y4219605D01*
X5577489Y4219605D01*
X5577489Y3760566D01*
X5042250Y3760566D01*
D14*
X4326948Y1754995D02*
G01*
X4326948Y1655018D01*
X3952958Y1654992D01*
X3952958Y1759005D01*
X3952996Y1844992D02*
G01*
X3952996Y1946973D01*
X4326986Y1946998D01*
X4326986Y1842968D01*
X2726951Y1754995D02*
G01*
X2726951Y1655018D01*
X2352962Y1654992D01*
X2352962Y1759005D01*
X2353000Y1844992D02*
G01*
X2353000Y1946973D01*
X2726989Y1946998D01*
X2726989Y1842968D01*
X3126950Y1754995D02*
G01*
X3126950Y1655018D01*
X2752961Y1654992D01*
X2752961Y1759005D01*
X2752999Y1844992D02*
G01*
X2752999Y1946973D01*
X3126988Y1946998D01*
X3126988Y1842968D01*
X3526950Y1754995D02*
G01*
X3526950Y1655018D01*
X3152960Y1654992D01*
X3152960Y1759005D01*
X3152998Y1844992D02*
G01*
X3152998Y1946973D01*
X3526988Y1946998D01*
X3526988Y1842968D01*
D16*
X549655Y5648197D02*
G01*
X549655Y5571997D01*
X270255Y5648197D02*
G01*
X270255Y5571997D01*
X371855Y5546597D02*
G01*
X295655Y5546597D01*
X371855Y5673597D02*
G01*
X295655Y5673597D01*
X448055Y5546597D02*
G01*
X524255Y5546597D01*
X448055Y5673597D02*
G01*
X524255Y5673597D01*
D12*
X2991865Y3042432D02*
G01*
X2942292Y3042432D01*
X2942292Y3092005D01*
X3607963Y3042432D02*
G01*
X3657536Y3042432D01*
X3657536Y3092005D01*
X3607963Y3757676D02*
G01*
X3657536Y3757676D01*
X3657536Y3708102D01*
X2991865Y3757676D02*
G01*
X2942292Y3757676D01*
X2942292Y3708102D01*
X2062086Y4404870D02*
G01*
X2062086Y4268878D01*
X2277905Y4268878D01*
X2277905Y4404870D01*
X2062086Y4595111D02*
G01*
X2062086Y4731103D01*
X2277905Y4731103D01*
X2277905Y4595111D01*
X1812086Y4404870D02*
G01*
X1812086Y4268878D01*
X2027905Y4268878D01*
X2027905Y4404870D01*
X1812086Y4595111D02*
G01*
X1812086Y4731103D01*
X2027905Y4731103D01*
X2027905Y4595111D01*
X2342085Y4404870D02*
G01*
X2342085Y4268878D01*
X2557904Y4268878D01*
X2557904Y4404870D01*
X2342085Y4595111D02*
G01*
X2342085Y4731103D01*
X2557904Y4731103D01*
X2557904Y4595111D01*
X2582085Y4404870D02*
G01*
X2582085Y4268878D01*
X2797903Y4268878D01*
X2797903Y4404870D01*
X2582085Y4595111D02*
G01*
X2582085Y4731103D01*
X2797903Y4731103D01*
X2797903Y4595111D01*
X3020250Y4108940D02*
G01*
X3020250Y4249940D01*
X2839529Y4249940D02*
G01*
X2839529Y4108940D01*
X2854769Y4093700D02*
G01*
X3005010Y4093700D01*
X3020250Y4471179D02*
G01*
X3020250Y4330179D01*
X2839529Y4330179D02*
G01*
X2839529Y4471179D01*
X2854769Y4486419D02*
G01*
X3005010Y4486419D01*
G75*
G01*
X1059637Y4398871D02*
G03*
X1074877Y4383631I15240J0D01*
G75*
G01*
X1225118Y4383631D02*
G03*
X1240358Y4398871I0J15240D01*
G75*
G01*
X1059637Y4761111D02*
G02*
X1074877Y4776351I15240J0D01*
G75*
G01*
X1225118Y4776351D02*
G02*
X1240358Y4761111I0J-15240D01*
G75*
G01*
X1289637Y4398871D02*
G03*
X1304877Y4383631I15240J0D01*
G75*
G01*
X1455118Y4383631D02*
G03*
X1470358Y4398871I0J15240D01*
G75*
G01*
X1289637Y4761111D02*
G02*
X1304877Y4776351I15240J0D01*
G75*
G01*
X1455118Y4776351D02*
G02*
X1470358Y4761111I0J-15240D01*
G75*
G01*
X1519636Y4398871D02*
G03*
X1534876Y4383631I15240J0D01*
G75*
G01*
X1685117Y4383631D02*
G03*
X1700357Y4398871I0J15240D01*
G75*
G01*
X1519636Y4761111D02*
G02*
X1534876Y4776351I15240J0D01*
G75*
G01*
X1685117Y4776351D02*
G02*
X1700357Y4761111I0J-15240D01*
G75*
G01*
X621119Y3239633D02*
G03*
X636359Y3254873I0J15240D01*
G75*
G01*
X636359Y3405114D02*
G03*
X621119Y3420354I-15240J0D01*
G75*
G01*
X258879Y3239633D02*
G02*
X243639Y3254873I0J15240D01*
G75*
G01*
X243639Y3405114D02*
G02*
X258879Y3420354I15240J0D01*
G75*
G01*
X621119Y1869636D02*
G03*
X636359Y1884876I0J15240D01*
G75*
G01*
X636359Y2035117D02*
G03*
X621119Y2050357I-15240J0D01*
G75*
G01*
X258879Y1869636D02*
G02*
X243639Y1884876I0J15240D01*
G75*
G01*
X243639Y2035117D02*
G02*
X258879Y2050357I15240J0D01*
G75*
G01*
X4028849Y3220283D02*
G03*
X4013609Y3205043I0J-15240D01*
G75*
G01*
X4013609Y3054802D02*
G03*
X4028849Y3039562I15240J0D01*
G75*
G01*
X4391088Y3220283D02*
G02*
X4406328Y3205043I0J-15240D01*
G75*
G01*
X4406328Y3054802D02*
G02*
X4391088Y3039562I-15240J0D01*
G75*
G01*
X4028849Y3440283D02*
G03*
X4013609Y3425043I0J-15240D01*
G75*
G01*
X4013609Y3274802D02*
G03*
X4028849Y3259562I15240J0D01*
G75*
G01*
X4391088Y3440283D02*
G02*
X4406328Y3425043I0J-15240D01*
G75*
G01*
X4406328Y3274802D02*
G02*
X4391088Y3259562I-15240J0D01*
G75*
G01*
X2581115Y3149633D02*
G03*
X2596355Y3164873I0J15240D01*
G75*
G01*
X2596355Y3315114D02*
G03*
X2581115Y3330354I-15240J0D01*
G75*
G01*
X2218875Y3149633D02*
G02*
X2203635Y3164873I0J15240D01*
G75*
G01*
X2203635Y3315114D02*
G02*
X2218875Y3330354I15240J0D01*
G75*
G01*
X2581115Y3369633D02*
G03*
X2596355Y3384873I0J15240D01*
G75*
G01*
X2596355Y3535114D02*
G03*
X2581115Y3550354I-15240J0D01*
G75*
G01*
X2218875Y3369633D02*
G02*
X2203635Y3384873I0J15240D01*
G75*
G01*
X2203635Y3535114D02*
G02*
X2218875Y3550354I15240J0D01*
G75*
G01*
X3420354Y2681115D02*
G03*
X3405114Y2696355I-15240J0D01*
G75*
G01*
X3254873Y2696355D02*
G03*
X3239633Y2681115I0J-15240D01*
G75*
G01*
X3420354Y2318875D02*
G02*
X3405114Y2303635I-15240J0D01*
G75*
G01*
X3254873Y2303635D02*
G02*
X3239633Y2318875I0J15240D01*
G75*
G01*
X4990351Y4181112D02*
G03*
X4975111Y4196352I-15240J0D01*
G75*
G01*
X4824870Y4196352D02*
G03*
X4809630Y4181112I0J-15240D01*
G75*
G01*
X4990351Y3818872D02*
G02*
X4975111Y3803632I-15240J0D01*
G75*
G01*
X4824870Y3803632D02*
G02*
X4809630Y3818872I0J15240D01*
D13*
G75*
G01*
X3690554Y4430542D02*
G02*
X3721537Y4399559I0J-30983D01*
G75*
G01*
X3579571Y4399559D02*
G02*
X3610557Y4430542I30983J0D01*
G75*
G01*
X3720955Y4181973D02*
G02*
X3689970Y4150990I-30983J0D01*
G75*
G01*
X3609972Y4150990D02*
G02*
X3578990Y4181973I0J30983D01*
D12*
G75*
G01*
X3660353Y2681115D02*
G03*
X3645113Y2696355I-15240J0D01*
G75*
G01*
X3494872Y2696355D02*
G03*
X3479632Y2681115I0J-15240D01*
G75*
G01*
X3660353Y2318875D02*
G02*
X3645113Y2303635I-15240J0D01*
G75*
G01*
X3494872Y2303635D02*
G02*
X3479632Y2318875I0J15240D01*
G75*
G01*
X4028872Y3660353D02*
G03*
X4013632Y3645113I0J-15240D01*
G75*
G01*
X4013632Y3494872D02*
G03*
X4028872Y3479632I15240J0D01*
G75*
G01*
X4391111Y3660353D02*
G02*
X4406351Y3645113I0J-15240D01*
G75*
G01*
X4406351Y3494872D02*
G02*
X4391111Y3479632I-15240J0D01*
G75*
G01*
X2581115Y3579632D02*
G03*
X2596355Y3594872I0J15240D01*
G75*
G01*
X2596355Y3745113D02*
G03*
X2581115Y3760353I-15240J0D01*
G75*
G01*
X2218875Y3579632D02*
G02*
X2203635Y3594872I0J15240D01*
G75*
G01*
X2203635Y3745113D02*
G02*
X2218875Y3760353I15240J0D01*
D17*
G75*
G01*
X3109991Y4085237D02*
G03*
X3110245Y4085237I127J-15001D01*
D16*
G75*
G01*
X406781Y5603748D02*
G02*
X422656Y5648198I12732J20513D01*
G75*
G01*
X406870Y5603748D02*
G02*
X397256Y5559298I-7565J-21628D01*
D12*
G75*
G01*
X2839529Y4108940D02*
G03*
X2854769Y4093700I15240J0D01*
G75*
G01*
X3005010Y4093700D02*
G03*
X3020251Y4108940I0J15240D01*
G75*
G01*
X2839529Y4471180D02*
G02*
X2854769Y4486420I15240J0D01*
G75*
G01*
X3005010Y4486420D02*
G02*
X3020251Y4471180I0J-15240D01*
D17*
G75*
G01
X1522501Y1553083D02*
G03X1522501Y1553083I-15011J0D01*
G75*
G01
X1459078Y1350899D02*
G03X1459078Y1350899I-15011J0D01*
D13*
G75*
G01
X147599Y1230300D02*
G03X147599Y1230300I-12700J0D01*
G75*
G01
X147599Y700303D02*
G03X147599Y700303I-12700J0D01*
G75*
G01
X5789955Y499999D02*
G03X5789955Y499999I-89992J0D01*
D17*
G75*
G01
X4622470Y1598066D02*
G03X4622470Y1598066I-15011J0D01*
G75*
G01
X4559071Y1412875D02*
G03X4559071Y1412875I-15011J0D01*
G75*
G01
X5121681Y3824986D02*
G03X5121681Y3824986I-15011J0D01*
G75*
G01
X5058181Y3672586D02*
G03X5058181Y3672586I-15011J0D01*
D10*
G75*
G01
X2903423Y3675050D02*
G03X2903423Y3675050I-7493J0D01*
M02*
