G04 Layer: BottomSilkscreenLayer*
G04 EasyEDA v6.5.51, 2026-07-31 12:43:52*
G04 5a5feb92e1c84014a20b6db849bd16e2,3391b54213b649ec8eae316ce3f6a029,10*
G04 Gerber Generator version 0.2*
G04 Scale: 100 percent, Rotated: No, Reflected: No *
G04 Dimensions in millimeters *
G04 leading zeros omitted , absolute positions ,4 integer and 5 decimal *
%FSLAX45Y45*%
%MOMM*%

%ADD10C,0.1000*%
%ADD11C,0.1524*%
%ADD12C,0.2000*%
%ADD13C,0.2540*%
%ADD14C,0.0181*%

%LPD*%
D10*
X2255326Y1712628D02*
G01*
X2259136Y1719740D01*
X2266248Y1727106D01*
X2273614Y1730662D01*
X2288092Y1730662D01*
X2295458Y1727106D01*
X2302824Y1719740D01*
X2306380Y1712628D01*
X2309936Y1701706D01*
X2309936Y1683418D01*
X2306380Y1672496D01*
X2302824Y1665384D01*
X2295458Y1658018D01*
X2288092Y1654462D01*
X2273614Y1654462D01*
X2266248Y1658018D01*
X2259136Y1665384D01*
X2255326Y1672496D01*
X2202240Y1730662D02*
G01*
X2231450Y1654462D01*
X2202240Y1730662D02*
G01*
X2173284Y1654462D01*
X2220528Y1679862D02*
G01*
X2184206Y1679862D01*
X2149154Y1730662D02*
G01*
X2149154Y1654462D01*
X2149154Y1730662D02*
G01*
X2123754Y1730662D01*
X2112832Y1727106D01*
X2105720Y1719740D01*
X2101910Y1712628D01*
X2098354Y1701706D01*
X2098354Y1683418D01*
X2101910Y1672496D01*
X2105720Y1665384D01*
X2112832Y1658018D01*
X2123754Y1654462D01*
X2149154Y1654462D01*
X2019868Y1712628D02*
G01*
X2023424Y1719740D01*
X2030790Y1727106D01*
X2037902Y1730662D01*
X2052634Y1730662D01*
X2059746Y1727106D01*
X2067112Y1719740D01*
X2070668Y1712628D01*
X2074478Y1701706D01*
X2074478Y1683418D01*
X2070668Y1672496D01*
X2067112Y1665384D01*
X2059746Y1658018D01*
X2052634Y1654462D01*
X2037902Y1654462D01*
X2030790Y1658018D01*
X2023424Y1665384D01*
X2019868Y1672496D01*
X985555Y2962427D02*
G01*
X989111Y2969793D01*
X996477Y2977159D01*
X1003589Y2980715D01*
X1018067Y2980715D01*
X1025433Y2977159D01*
X1032799Y2969793D01*
X1036355Y2962427D01*
X1039911Y2951505D01*
X1039911Y2933471D01*
X1036355Y2922549D01*
X1032799Y2915183D01*
X1025433Y2908071D01*
X1018067Y2904261D01*
X1003589Y2904261D01*
X996477Y2908071D01*
X989111Y2915183D01*
X985555Y2922549D01*
X961425Y2966237D02*
G01*
X954313Y2969793D01*
X943391Y2980715D01*
X943391Y2904261D01*
X919261Y2966237D02*
G01*
X911895Y2969793D01*
X900973Y2980715D01*
X900973Y2904261D01*
X985461Y2712605D02*
G01*
X989017Y2719717D01*
X996383Y2727083D01*
X1003749Y2730639D01*
X1018227Y2730639D01*
X1025339Y2727083D01*
X1032705Y2719717D01*
X1036261Y2712605D01*
X1040071Y2701683D01*
X1040071Y2683395D01*
X1036261Y2672473D01*
X1032705Y2665361D01*
X1025339Y2657995D01*
X1018227Y2654439D01*
X1003749Y2654439D01*
X996383Y2657995D01*
X989017Y2665361D01*
X985461Y2672473D01*
X961585Y2716161D02*
G01*
X954219Y2719717D01*
X943297Y2730639D01*
X943297Y2654439D01*
X915611Y2712605D02*
G01*
X915611Y2716161D01*
X912055Y2723527D01*
X908245Y2727083D01*
X901133Y2730639D01*
X886655Y2730639D01*
X879289Y2727083D01*
X875733Y2723527D01*
X871923Y2716161D01*
X871923Y2708795D01*
X875733Y2701683D01*
X882845Y2690761D01*
X919167Y2654439D01*
X868367Y2654439D01*
X1012238Y3234827D02*
G01*
X1015540Y3241177D01*
X1021890Y3247527D01*
X1028240Y3250575D01*
X1040940Y3250575D01*
X1047290Y3247527D01*
X1053640Y3241177D01*
X1056942Y3234827D01*
X1059990Y3225175D01*
X1059990Y3209173D01*
X1056942Y3199775D01*
X1053640Y3193425D01*
X1047290Y3187075D01*
X1040940Y3183773D01*
X1028240Y3183773D01*
X1021890Y3187075D01*
X1015540Y3193425D01*
X1012238Y3199775D01*
X988108Y3234827D02*
G01*
X988108Y3237875D01*
X984806Y3244225D01*
X981758Y3247527D01*
X975408Y3250575D01*
X962708Y3250575D01*
X956358Y3247527D01*
X953056Y3244225D01*
X950008Y3237875D01*
X950008Y3231525D01*
X953056Y3225175D01*
X959406Y3215523D01*
X991156Y3183773D01*
X946706Y3183773D01*
X919274Y3250575D02*
G01*
X884476Y3250575D01*
X903526Y3225175D01*
X893874Y3225175D01*
X887524Y3221873D01*
X884476Y3218825D01*
X881174Y3209173D01*
X881174Y3202823D01*
X884476Y3193425D01*
X890826Y3187075D01*
X900224Y3183773D01*
X909876Y3183773D01*
X919274Y3187075D01*
X922576Y3190123D01*
X925624Y3196473D01*
X982238Y3484839D02*
G01*
X985540Y3491189D01*
X991890Y3497539D01*
X998240Y3500587D01*
X1010940Y3500587D01*
X1017290Y3497539D01*
X1023640Y3491189D01*
X1026942Y3484839D01*
X1029990Y3475187D01*
X1029990Y3459185D01*
X1026942Y3449787D01*
X1023640Y3443437D01*
X1017290Y3437087D01*
X1010940Y3433785D01*
X998240Y3433785D01*
X991890Y3437087D01*
X985540Y3443437D01*
X982238Y3449787D01*
X958108Y3484839D02*
G01*
X958108Y3487887D01*
X954806Y3494237D01*
X951758Y3497539D01*
X945408Y3500587D01*
X932708Y3500587D01*
X926358Y3497539D01*
X923056Y3494237D01*
X920008Y3487887D01*
X920008Y3481537D01*
X923056Y3475187D01*
X929406Y3465535D01*
X961156Y3433785D01*
X916706Y3433785D01*
X863874Y3500587D02*
G01*
X895624Y3456137D01*
X848126Y3456137D01*
X863874Y3500587D02*
G01*
X863874Y3433785D01*
X3389934Y4600808D02*
G01*
X3389934Y4524446D01*
X3389934Y4600808D02*
G01*
X3357206Y4600808D01*
X3346297Y4597173D01*
X3342662Y4593536D01*
X3339025Y4586264D01*
X3339025Y4578992D01*
X3342662Y4571718D01*
X3346297Y4568082D01*
X3357206Y4564446D01*
X3389934Y4564446D01*
X3364481Y4564446D02*
G01*
X3339025Y4524446D01*
X3315025Y4600808D02*
G01*
X3315025Y4524446D01*
X3315025Y4600808D02*
G01*
X3264115Y4524446D01*
X3264115Y4600808D02*
G01*
X3264115Y4524446D01*
X3382208Y2254775D02*
G01*
X3385510Y2261125D01*
X3391860Y2267475D01*
X3398210Y2270777D01*
X3410910Y2270777D01*
X3417260Y2267475D01*
X3423610Y2261125D01*
X3426912Y2254775D01*
X3429960Y2245123D01*
X3429960Y2229375D01*
X3426912Y2219723D01*
X3423610Y2213373D01*
X3417260Y2207023D01*
X3410910Y2203721D01*
X3398210Y2203721D01*
X3391860Y2207023D01*
X3385510Y2213373D01*
X3382208Y2219723D01*
X3358078Y2254775D02*
G01*
X3358078Y2257823D01*
X3355030Y2264173D01*
X3351728Y2267475D01*
X3345378Y2270777D01*
X3332678Y2270777D01*
X3326328Y2267475D01*
X3323026Y2264173D01*
X3319978Y2257823D01*
X3319978Y2251473D01*
X3323026Y2245123D01*
X3329376Y2235725D01*
X3361380Y2203721D01*
X3316676Y2203721D01*
X3257494Y2270777D02*
G01*
X3289244Y2270777D01*
X3292546Y2242075D01*
X3289244Y2245123D01*
X3279846Y2248425D01*
X3270194Y2248425D01*
X3260796Y2245123D01*
X3254446Y2238773D01*
X3251144Y2229375D01*
X3251144Y2223025D01*
X3254446Y2213373D01*
X3260796Y2207023D01*
X3270194Y2203721D01*
X3279846Y2203721D01*
X3289244Y2207023D01*
X3292546Y2210071D01*
X3295848Y2216675D01*
X3612316Y2254605D02*
G01*
X3615364Y2261209D01*
X3621714Y2267559D01*
X3628064Y2270607D01*
X3641018Y2270607D01*
X3647368Y2267559D01*
X3653718Y2261209D01*
X3656766Y2254605D01*
X3660068Y2245207D01*
X3660068Y2229205D01*
X3656766Y2219807D01*
X3653718Y2213457D01*
X3647368Y2207107D01*
X3641018Y2203805D01*
X3628064Y2203805D01*
X3621714Y2207107D01*
X3615364Y2213457D01*
X3612316Y2219807D01*
X3588186Y2254605D02*
G01*
X3588186Y2257907D01*
X3584884Y2264257D01*
X3581836Y2267559D01*
X3575232Y2270607D01*
X3562532Y2270607D01*
X3556182Y2267559D01*
X3553134Y2264257D01*
X3549832Y2257907D01*
X3549832Y2251557D01*
X3553134Y2245207D01*
X3559484Y2235555D01*
X3591234Y2203805D01*
X3546784Y2203805D01*
X3481252Y2270607D02*
G01*
X3513002Y2203805D01*
X3525702Y2270607D02*
G01*
X3481252Y2270607D01*
X2105538Y3472657D02*
G01*
X2109094Y3479769D01*
X2116460Y3487135D01*
X2123572Y3490691D01*
X2138050Y3490691D01*
X2145416Y3487135D01*
X2152782Y3479769D01*
X2156338Y3472657D01*
X2159894Y3461735D01*
X2159894Y3443447D01*
X2156338Y3432525D01*
X2152782Y3425159D01*
X2145416Y3418047D01*
X2138050Y3414237D01*
X2123572Y3414237D01*
X2116460Y3418047D01*
X2109094Y3425159D01*
X2105538Y3432525D01*
X2081408Y3476213D02*
G01*
X2074296Y3479769D01*
X2063374Y3490691D01*
X2063374Y3414237D01*
X1988444Y3490691D02*
G01*
X2024766Y3414237D01*
X2039244Y3490691D02*
G01*
X1988444Y3490691D01*
X4565429Y3342510D02*
G01*
X4568985Y3349876D01*
X4576351Y3356988D01*
X4583717Y3360798D01*
X4598195Y3360798D01*
X4605561Y3356988D01*
X4612673Y3349876D01*
X4616229Y3342510D01*
X4620039Y3331588D01*
X4620039Y3313554D01*
X4616229Y3302632D01*
X4612673Y3295266D01*
X4605561Y3287900D01*
X4598195Y3284344D01*
X4583717Y3284344D01*
X4576351Y3287900D01*
X4568985Y3295266D01*
X4565429Y3302632D01*
X4541553Y3346066D02*
G01*
X4534187Y3349876D01*
X4523265Y3360798D01*
X4523265Y3284344D01*
X4481101Y3360798D02*
G01*
X4492023Y3356988D01*
X4495579Y3349876D01*
X4495579Y3342510D01*
X4492023Y3335144D01*
X4484657Y3331588D01*
X4470179Y3328032D01*
X4459257Y3324476D01*
X4451891Y3317110D01*
X4448335Y3309744D01*
X4448335Y3298822D01*
X4451891Y3291710D01*
X4455701Y3287900D01*
X4466623Y3284344D01*
X4481101Y3284344D01*
X4492023Y3287900D01*
X4495579Y3291710D01*
X4499135Y3298822D01*
X4499135Y3309744D01*
X4495579Y3317110D01*
X4488467Y3324476D01*
X4477545Y3328032D01*
X4462813Y3331588D01*
X4455701Y3335144D01*
X4451891Y3342510D01*
X4451891Y3349876D01*
X4455701Y3356988D01*
X4466623Y3360798D01*
X4481101Y3360798D01*
X4565454Y3592497D02*
G01*
X4569010Y3599863D01*
X4576376Y3606975D01*
X4583742Y3610785D01*
X4598220Y3610785D01*
X4605332Y3606975D01*
X4612698Y3599863D01*
X4616254Y3592497D01*
X4620064Y3581575D01*
X4620064Y3563541D01*
X4616254Y3552619D01*
X4612698Y3545253D01*
X4605332Y3537887D01*
X4598220Y3534331D01*
X4583742Y3534331D01*
X4576376Y3537887D01*
X4569010Y3545253D01*
X4565454Y3552619D01*
X4541578Y3596053D02*
G01*
X4534212Y3599863D01*
X4523290Y3610785D01*
X4523290Y3534331D01*
X4492048Y3610785D02*
G01*
X4451916Y3610785D01*
X4473760Y3581575D01*
X4462838Y3581575D01*
X4455726Y3578019D01*
X4451916Y3574463D01*
X4448360Y3563541D01*
X4448360Y3556175D01*
X4451916Y3545253D01*
X4459282Y3537887D01*
X4470204Y3534331D01*
X4481126Y3534331D01*
X4492048Y3537887D01*
X4495604Y3541697D01*
X4499160Y3548809D01*
X4555454Y3142444D02*
G01*
X4559010Y3149810D01*
X4566376Y3157176D01*
X4573742Y3160732D01*
X4588220Y3160732D01*
X4595332Y3157176D01*
X4602698Y3149810D01*
X4606254Y3142444D01*
X4610064Y3131522D01*
X4610064Y3113488D01*
X4606254Y3102566D01*
X4602698Y3095200D01*
X4595332Y3088088D01*
X4588220Y3084278D01*
X4573742Y3084278D01*
X4566376Y3088088D01*
X4559010Y3095200D01*
X4555454Y3102566D01*
X4531578Y3146254D02*
G01*
X4524212Y3149810D01*
X4513290Y3160732D01*
X4513290Y3084278D01*
X4452838Y3160732D02*
G01*
X4489160Y3109932D01*
X4434804Y3109932D01*
X4452838Y3160732D02*
G01*
X4452838Y3084278D01*
X2115459Y3262403D02*
G01*
X2119015Y3269769D01*
X2126381Y3277135D01*
X2133747Y3280691D01*
X2148225Y3280691D01*
X2155337Y3277135D01*
X2162703Y3269769D01*
X2166259Y3262403D01*
X2170069Y3251735D01*
X2170069Y3233447D01*
X2166259Y3222525D01*
X2162703Y3215159D01*
X2155337Y3208047D01*
X2148225Y3204237D01*
X2133747Y3204237D01*
X2126381Y3208047D01*
X2119015Y3215159D01*
X2115459Y3222525D01*
X2091583Y3266213D02*
G01*
X2084217Y3269769D01*
X2073295Y3280691D01*
X2073295Y3204237D01*
X2005731Y3269769D02*
G01*
X2009287Y3277135D01*
X2020209Y3280691D01*
X2027575Y3280691D01*
X2038243Y3277135D01*
X2045609Y3266213D01*
X2049165Y3247925D01*
X2049165Y3229891D01*
X2045609Y3215159D01*
X2038243Y3208047D01*
X2027575Y3204237D01*
X2023765Y3204237D01*
X2012843Y3208047D01*
X2005731Y3215159D01*
X2001921Y3226081D01*
X2001921Y3229891D01*
X2005731Y3240813D01*
X2012843Y3247925D01*
X2023765Y3251735D01*
X2027575Y3251735D01*
X2038243Y3247925D01*
X2045609Y3240813D01*
X2049165Y3229891D01*
D11*
X4445000Y5347715D02*
G01*
X4445000Y5238750D01*
X4445000Y5347715D02*
G01*
X4398263Y5347715D01*
X4382770Y5342636D01*
X4377436Y5337302D01*
X4372356Y5326887D01*
X4372356Y5316473D01*
X4377436Y5306060D01*
X4382770Y5300979D01*
X4398263Y5295900D01*
X4445000Y5295900D01*
X4408677Y5295900D02*
G01*
X4372356Y5238750D01*
X4296409Y5347715D02*
G01*
X4338065Y5238750D01*
X4296409Y5347715D02*
G01*
X4254754Y5238750D01*
X4322318Y5275071D02*
G01*
X4270502Y5275071D01*
X4147820Y5332221D02*
G01*
X4158234Y5342636D01*
X4173727Y5347715D01*
X4194556Y5347715D01*
X4210050Y5342636D01*
X4220463Y5332221D01*
X4220463Y5321807D01*
X4215384Y5311394D01*
X4210050Y5306060D01*
X4199890Y5300979D01*
X4168647Y5290565D01*
X4158234Y5285486D01*
X4152900Y5280152D01*
X4147820Y5269737D01*
X4147820Y5254244D01*
X4158234Y5243829D01*
X4173727Y5238750D01*
X4194556Y5238750D01*
X4210050Y5243829D01*
X4220463Y5254244D01*
X4113529Y5347715D02*
G01*
X4113529Y5238750D01*
X4113529Y5347715D02*
G01*
X4066793Y5347715D01*
X4051300Y5342636D01*
X4045965Y5337302D01*
X4040886Y5326887D01*
X4040886Y5311394D01*
X4045965Y5300979D01*
X4051300Y5295900D01*
X4066793Y5290565D01*
X4113529Y5290565D01*
X4006595Y5347715D02*
G01*
X4006595Y5238750D01*
X4006595Y5347715D02*
G01*
X3959859Y5347715D01*
X3944111Y5342636D01*
X3939031Y5337302D01*
X3933697Y5326887D01*
X3933697Y5316473D01*
X3939031Y5306060D01*
X3944111Y5300979D01*
X3959859Y5295900D01*
X4006595Y5295900D02*
G01*
X3959859Y5295900D01*
X3944111Y5290565D01*
X3939031Y5285486D01*
X3933697Y5275071D01*
X3933697Y5259323D01*
X3939031Y5248910D01*
X3944111Y5243829D01*
X3959859Y5238750D01*
X4006595Y5238750D01*
X3899408Y5347715D02*
G01*
X3899408Y5238750D01*
X3899408Y5347715D02*
G01*
X3831843Y5347715D01*
X3899408Y5295900D02*
G01*
X3858006Y5295900D01*
X3899408Y5238750D02*
G01*
X3831843Y5238750D01*
X3797554Y5347715D02*
G01*
X3797554Y5238750D01*
X3797554Y5347715D02*
G01*
X3750818Y5347715D01*
X3735324Y5342636D01*
X3729990Y5337302D01*
X3724909Y5326887D01*
X3724909Y5316473D01*
X3729990Y5306060D01*
X3735324Y5300979D01*
X3750818Y5295900D01*
X3797554Y5295900D01*
X3761231Y5295900D02*
G01*
X3724909Y5238750D01*
X3690620Y5347715D02*
G01*
X3690620Y5238750D01*
X3690620Y5347715D02*
G01*
X3643884Y5347715D01*
X3628390Y5342636D01*
X3623056Y5337302D01*
X3617975Y5326887D01*
X3617975Y5316473D01*
X3623056Y5306060D01*
X3628390Y5300979D01*
X3643884Y5295900D01*
X3690620Y5295900D01*
X3654297Y5295900D02*
G01*
X3617975Y5238750D01*
X3583686Y5347715D02*
G01*
X3542029Y5295900D01*
X3542029Y5238750D01*
X3500374Y5347715D02*
G01*
X3542029Y5295900D01*
X3466084Y5285486D02*
G01*
X3372611Y5285486D01*
X3338322Y5347715D02*
G01*
X3338322Y5238750D01*
X3338322Y5347715D02*
G01*
X3291586Y5347715D01*
X3276091Y5342636D01*
X3270758Y5337302D01*
X3265677Y5326887D01*
X3265677Y5316473D01*
X3270758Y5306060D01*
X3276091Y5300979D01*
X3291586Y5295900D01*
X3338322Y5295900D02*
G01*
X3291586Y5295900D01*
X3276091Y5290565D01*
X3270758Y5285486D01*
X3265677Y5275071D01*
X3265677Y5259323D01*
X3270758Y5248910D01*
X3276091Y5243829D01*
X3291586Y5238750D01*
X3338322Y5238750D01*
X3200145Y5347715D02*
G01*
X3210559Y5342636D01*
X3220974Y5332221D01*
X3226054Y5321807D01*
X3231388Y5306060D01*
X3231388Y5280152D01*
X3226054Y5264657D01*
X3220974Y5254244D01*
X3210559Y5243829D01*
X3200145Y5238750D01*
X3179318Y5238750D01*
X3168904Y5243829D01*
X3158490Y5254244D01*
X3153409Y5264657D01*
X3148329Y5280152D01*
X3148329Y5306060D01*
X3153409Y5321807D01*
X3158490Y5332221D01*
X3168904Y5342636D01*
X3179318Y5347715D01*
X3200145Y5347715D01*
X3077463Y5347715D02*
G01*
X3077463Y5238750D01*
X3114040Y5347715D02*
G01*
X3041141Y5347715D01*
X2970529Y5347715D02*
G01*
X2970529Y5238750D01*
X3006852Y5347715D02*
G01*
X2934208Y5347715D01*
X2868675Y5347715D02*
G01*
X2879090Y5342636D01*
X2889504Y5332221D01*
X2894584Y5321807D01*
X2899918Y5306060D01*
X2899918Y5280152D01*
X2894584Y5264657D01*
X2889504Y5254244D01*
X2879090Y5243829D01*
X2868675Y5238750D01*
X2847847Y5238750D01*
X2837434Y5243829D01*
X2827020Y5254244D01*
X2821940Y5264657D01*
X2816859Y5280152D01*
X2816859Y5306060D01*
X2821940Y5321807D01*
X2827020Y5332221D01*
X2837434Y5342636D01*
X2847847Y5347715D01*
X2868675Y5347715D01*
X2782570Y5347715D02*
G01*
X2782570Y5238750D01*
X2782570Y5347715D02*
G01*
X2740913Y5238750D01*
X2699258Y5347715D02*
G01*
X2740913Y5238750D01*
X2699258Y5347715D02*
G01*
X2699258Y5238750D01*
X2659888Y5321807D02*
G01*
X2659888Y5326887D01*
X2654554Y5337302D01*
X2649474Y5342636D01*
X2639059Y5347715D01*
X2618231Y5347715D01*
X2607818Y5342636D01*
X2602738Y5337302D01*
X2597404Y5326887D01*
X2597404Y5316473D01*
X2602738Y5306060D01*
X2613152Y5290565D01*
X2664968Y5238750D01*
X2592324Y5238750D01*
X1618876Y1790357D02*
G01*
X1759877Y1790357D01*
X1759877Y1609636D02*
G01*
X1618876Y1609636D01*
X1603636Y1624876D02*
G01*
X1603636Y1775117D01*
X1981116Y1790357D02*
G01*
X1840115Y1790357D01*
X1840115Y1609636D02*
G01*
X1981116Y1609636D01*
X1996356Y1624876D02*
G01*
X1996356Y1775117D01*
X1461117Y2869633D02*
G01*
X1320116Y2869633D01*
X1320116Y3050354D02*
G01*
X1461117Y3050354D01*
X1476357Y3035114D02*
G01*
X1476357Y2884873D01*
X1098877Y2869633D02*
G01*
X1239878Y2869633D01*
X1239878Y3050354D02*
G01*
X1098877Y3050354D01*
X1083637Y3035114D02*
G01*
X1083637Y2884873D01*
X1461117Y2609634D02*
G01*
X1320116Y2609634D01*
X1320116Y2790355D02*
G01*
X1461117Y2790355D01*
X1476357Y2775115D02*
G01*
X1476357Y2624874D01*
X1098877Y2609634D02*
G01*
X1239878Y2609634D01*
X1239878Y2790355D02*
G01*
X1098877Y2790355D01*
X1083637Y2775115D02*
G01*
X1083637Y2624874D01*
X1461117Y3139633D02*
G01*
X1320116Y3139633D01*
X1320116Y3320354D02*
G01*
X1461117Y3320354D01*
X1476357Y3305114D02*
G01*
X1476357Y3154873D01*
X1098877Y3139633D02*
G01*
X1239878Y3139633D01*
X1239878Y3320354D02*
G01*
X1098877Y3320354D01*
X1083637Y3305114D02*
G01*
X1083637Y3154873D01*
X1461117Y3399632D02*
G01*
X1320116Y3399632D01*
X1320116Y3580353D02*
G01*
X1461117Y3580353D01*
X1476357Y3565113D02*
G01*
X1476357Y3414872D01*
X1098877Y3399632D02*
G01*
X1239878Y3399632D01*
X1239878Y3580353D02*
G01*
X1098877Y3580353D01*
X1083637Y3565113D02*
G01*
X1083637Y3414872D01*
D12*
X3344994Y4113034D02*
G01*
X3444971Y4113034D01*
X3444996Y4487024D01*
X3340983Y4487024D01*
X3254997Y4486986D02*
G01*
X3153016Y4486986D01*
X3152990Y4112996D01*
X3257021Y4112996D01*
D11*
X3420353Y2681114D02*
G01*
X3420353Y2540114D01*
X3239632Y2540114D02*
G01*
X3239632Y2681114D01*
X3254872Y2696354D02*
G01*
X3405113Y2696354D01*
X3420353Y2318875D02*
G01*
X3420353Y2459875D01*
X3239632Y2459875D02*
G01*
X3239632Y2318875D01*
X3254872Y2303635D02*
G01*
X3405113Y2303635D01*
X3660353Y2681114D02*
G01*
X3660353Y2540114D01*
X3479632Y2540114D02*
G01*
X3479632Y2681114D01*
X3494872Y2696354D02*
G01*
X3645113Y2696354D01*
X3660353Y2318875D02*
G01*
X3660353Y2459875D01*
X3479632Y2459875D02*
G01*
X3479632Y2318875D01*
X3494872Y2303635D02*
G01*
X3645113Y2303635D01*
X2581114Y3369632D02*
G01*
X2440114Y3369632D01*
X2440114Y3550353D02*
G01*
X2581114Y3550353D01*
X2596354Y3535113D02*
G01*
X2596354Y3384872D01*
X2218875Y3369632D02*
G01*
X2359875Y3369632D01*
X2359875Y3550353D02*
G01*
X2218875Y3550353D01*
X2203635Y3535113D02*
G01*
X2203635Y3384872D01*
X4028871Y3440353D02*
G01*
X4169872Y3440353D01*
X4169872Y3259632D02*
G01*
X4028871Y3259632D01*
X4013631Y3274872D02*
G01*
X4013631Y3425113D01*
X4391111Y3440353D02*
G01*
X4250110Y3440353D01*
X4250110Y3259632D02*
G01*
X4391111Y3259632D01*
X4406351Y3274872D02*
G01*
X4406351Y3425113D01*
X4028871Y3660353D02*
G01*
X4169872Y3660353D01*
X4169872Y3479632D02*
G01*
X4028871Y3479632D01*
X4013631Y3494872D02*
G01*
X4013631Y3645113D01*
X4391111Y3660353D02*
G01*
X4250110Y3660353D01*
X4250110Y3479632D02*
G01*
X4391111Y3479632D01*
X4406351Y3494872D02*
G01*
X4406351Y3645113D01*
X4028871Y3220354D02*
G01*
X4169872Y3220354D01*
X4169872Y3039633D02*
G01*
X4028871Y3039633D01*
X4013631Y3054873D02*
G01*
X4013631Y3205114D01*
X4391111Y3220354D02*
G01*
X4250110Y3220354D01*
X4250110Y3039633D02*
G01*
X4391111Y3039633D01*
X4406351Y3054873D02*
G01*
X4406351Y3205114D01*
X2581114Y3149633D02*
G01*
X2440114Y3149633D01*
X2440114Y3330354D02*
G01*
X2581114Y3330354D01*
X2596354Y3315114D02*
G01*
X2596354Y3164873D01*
X2218875Y3149633D02*
G01*
X2359875Y3149633D01*
X2359875Y3330354D02*
G01*
X2218875Y3330354D01*
X2203635Y3315114D02*
G01*
X2203635Y3164873D01*
D13*
X814880Y5041900D02*
G01*
X741994Y5041900D01*
X1068880Y5041900D02*
G01*
X963107Y5041900D01*
X1322880Y5041900D02*
G01*
X1217107Y5041900D01*
X1576880Y5041900D02*
G01*
X1471107Y5041900D01*
X1830880Y5041900D02*
G01*
X1725107Y5041900D01*
X2084880Y5041900D02*
G01*
X1979107Y5041900D01*
X2338880Y5041900D02*
G01*
X2233107Y5041900D01*
X2592880Y5041900D02*
G01*
X2487107Y5041900D01*
X2846880Y5041900D02*
G01*
X2741107Y5041900D01*
X3100880Y5041900D02*
G01*
X2995107Y5041900D01*
X3354880Y5041900D02*
G01*
X3249107Y5041900D01*
X3608880Y5041900D02*
G01*
X3503107Y5041900D01*
X3862880Y5041900D02*
G01*
X3757107Y5041900D01*
X4116880Y5041900D02*
G01*
X4011107Y5041900D01*
X4370880Y5041900D02*
G01*
X4265107Y5041900D01*
X4624880Y5041900D02*
G01*
X4519107Y5041900D01*
X4878880Y5041900D02*
G01*
X4773107Y5041900D01*
X5132880Y5041900D02*
G01*
X5027107Y5041900D01*
X5386880Y5041900D02*
G01*
X5281107Y5041900D01*
X5640880Y5041900D02*
G01*
X5535107Y5041900D01*
X5861992Y5041900D02*
G01*
X5789107Y5041900D01*
X741994Y5549900D02*
G01*
X741994Y5041900D01*
X5861992Y5549900D02*
G01*
X5861992Y5041900D01*
X814880Y5549900D02*
G01*
X741992Y5549900D01*
X1068880Y5549900D02*
G01*
X963107Y5549900D01*
X1322880Y5549900D02*
G01*
X1217107Y5549900D01*
X1576880Y5549900D02*
G01*
X1471107Y5549900D01*
X1830880Y5549900D02*
G01*
X1725107Y5549900D01*
X2084880Y5549900D02*
G01*
X1979107Y5549900D01*
X2338880Y5549900D02*
G01*
X2233107Y5549900D01*
X2592880Y5549900D02*
G01*
X2487107Y5549900D01*
X2846880Y5549900D02*
G01*
X2741107Y5549900D01*
X3100880Y5549900D02*
G01*
X2995107Y5549900D01*
X3354880Y5549900D02*
G01*
X3249107Y5549900D01*
X3608880Y5549900D02*
G01*
X3503107Y5549900D01*
X3862880Y5549900D02*
G01*
X3757107Y5549900D01*
X4116880Y5549900D02*
G01*
X4011107Y5549900D01*
X4370880Y5549900D02*
G01*
X4265107Y5549900D01*
X4624880Y5549900D02*
G01*
X4519107Y5549900D01*
X4878880Y5549900D02*
G01*
X4773107Y5549900D01*
X5132880Y5549900D02*
G01*
X5027107Y5549900D01*
X5386880Y5549900D02*
G01*
X5281107Y5549900D01*
X5640880Y5549900D02*
G01*
X5535107Y5549900D01*
X5861989Y5549900D02*
G01*
X5789107Y5549900D01*
D11*
G75*
G01*
X1618877Y1609636D02*
G02*
X1603637Y1624876I0J15240D01*
G75*
G01*
X1603637Y1775117D02*
G02*
X1618877Y1790357I15240J0D01*
G75*
G01*
X1981116Y1609636D02*
G03*
X1996356Y1624876I0J15240D01*
G75*
G01*
X1996356Y1775117D02*
G03*
X1981116Y1790357I-15240J0D01*
G75*
G01*
X1461117Y3050355D02*
G02*
X1476357Y3035115I0J-15240D01*
G75*
G01*
X1476357Y2884874D02*
G02*
X1461117Y2869634I-15240J0D01*
G75*
G01*
X1098878Y3050355D02*
G03*
X1083638Y3035115I0J-15240D01*
G75*
G01*
X1083638Y2884874D02*
G03*
X1098878Y2869634I15240J0D01*
G75*
G01*
X1461117Y2790355D02*
G02*
X1476357Y2775115I0J-15240D01*
G75*
G01*
X1476357Y2624874D02*
G02*
X1461117Y2609634I-15240J0D01*
G75*
G01*
X1098878Y2790355D02*
G03*
X1083638Y2775115I0J-15240D01*
G75*
G01*
X1083638Y2624874D02*
G03*
X1098878Y2609634I15240J0D01*
G75*
G01*
X1461117Y3320354D02*
G02*
X1476357Y3305114I0J-15240D01*
G75*
G01*
X1476357Y3154873D02*
G02*
X1461117Y3139633I-15240J0D01*
G75*
G01*
X1098878Y3320354D02*
G03*
X1083638Y3305114I0J-15240D01*
G75*
G01*
X1083638Y3154873D02*
G03*
X1098878Y3139633I15240J0D01*
G75*
G01*
X1461117Y3580354D02*
G02*
X1476357Y3565114I0J-15240D01*
G75*
G01*
X1476357Y3414873D02*
G02*
X1461117Y3399633I-15240J0D01*
G75*
G01*
X1098878Y3580354D02*
G03*
X1083638Y3565114I0J-15240D01*
G75*
G01*
X1083638Y3414873D02*
G03*
X1098878Y3399633I15240J0D01*
G75*
G01*
X3239633Y2681115D02*
G02*
X3254873Y2696355I15240J0D01*
G75*
G01*
X3405114Y2696355D02*
G02*
X3420354Y2681115I0J-15240D01*
G75*
G01*
X3239633Y2318875D02*
G03*
X3254873Y2303635I15240J0D01*
G75*
G01*
X3405114Y2303635D02*
G03*
X3420354Y2318875I0J15240D01*
G75*
G01*
X3479632Y2681115D02*
G02*
X3494872Y2696355I15240J0D01*
G75*
G01*
X3645113Y2696355D02*
G02*
X3660353Y2681115I0J-15240D01*
G75*
G01*
X3479632Y2318875D02*
G03*
X3494872Y2303635I15240J0D01*
G75*
G01*
X3645113Y2303635D02*
G03*
X3660353Y2318875I0J15240D01*
G75*
G01*
X2581115Y3550354D02*
G02*
X2596355Y3535114I0J-15240D01*
G75*
G01*
X2596355Y3384873D02*
G02*
X2581115Y3369633I-15240J0D01*
G75*
G01*
X2218875Y3550354D02*
G03*
X2203635Y3535114I0J-15240D01*
G75*
G01*
X2203635Y3384873D02*
G03*
X2218875Y3369633I15240J0D01*
G75*
G01*
X4028872Y3259633D02*
G02*
X4013632Y3274873I0J15240D01*
G75*
G01*
X4013632Y3425114D02*
G02*
X4028872Y3440354I15240J0D01*
G75*
G01*
X4391111Y3259633D02*
G03*
X4406351Y3274873I0J15240D01*
G75*
G01*
X4406351Y3425114D02*
G03*
X4391111Y3440354I-15240J0D01*
G75*
G01*
X4028872Y3479632D02*
G02*
X4013632Y3494872I0J15240D01*
G75*
G01*
X4013632Y3645113D02*
G02*
X4028872Y3660353I15240J0D01*
G75*
G01*
X4391111Y3479632D02*
G03*
X4406351Y3494872I0J15240D01*
G75*
G01*
X4406351Y3645113D02*
G03*
X4391111Y3660353I-15240J0D01*
G75*
G01*
X4028872Y3039633D02*
G02*
X4013632Y3054873I0J15240D01*
G75*
G01*
X4013632Y3205114D02*
G02*
X4028872Y3220354I15240J0D01*
G75*
G01*
X4391111Y3039633D02*
G03*
X4406351Y3054873I0J15240D01*
G75*
G01*
X4406351Y3205114D02*
G03*
X4391111Y3220354I-15240J0D01*
G75*
G01*
X2581115Y3330354D02*
G02*
X2596355Y3315114I0J-15240D01*
G75*
G01*
X2596355Y3164873D02*
G02*
X2581115Y3149633I-15240J0D01*
G75*
G01*
X2218875Y3330354D02*
G03*
X2203635Y3315114I0J-15240D01*
G75*
G01*
X2203635Y3164873D02*
G03*
X2218875Y3149633I15240J0D01*
M02*
