G04 Layer: BottomLayer*
G04 EasyEDA v6.5.51, 2026-07-31 12:43:52*
G04 5a5feb92e1c84014a20b6db849bd16e2,3391b54213b649ec8eae316ce3f6a029,10*
G04 Gerber Generator version 0.2*
G04 Scale: 100 percent, Rotated: No, Reflected: No *
G04 Dimensions in millimeters *
G04 leading zeros omitted , absolute positions ,4 integer and 5 decimal *
%FSLAX45Y45*%
%MOMM*%

%AMMACRO1*21,1,$1,$2,0,0,$3*%
%ADD10C,0.2540*%
%ADD11MACRO1,1.35X1.41X90.0000*%
%ADD12MACRO1,1.35X1.41X-90.0000*%
%ADD13MACRO1,0.65X0.8X-90.0000*%
%ADD14MACRO1,0.5X0.8X-90.0000*%
%ADD15C,0.0141*%
%ADD16R,1.3500X1.4100*%
%ADD17MACRO1,1.35X1.41X0.0000*%
%ADD18MACRO1,1.02X2.3X0.0000*%
%ADD19C,4.0000*%
%ADD20C,0.6200*%

%LPD*%
G36*
X1752549Y25908D02*
G01*
X1748688Y26670D01*
X1745386Y28905D01*
X1718106Y56134D01*
X1715211Y58623D01*
X1708759Y62179D01*
X1703374Y63703D01*
X1699107Y64008D01*
X333298Y64008D01*
X323646Y65379D01*
X301701Y67208D01*
X280974Y70662D01*
X260654Y75742D01*
X240792Y82499D01*
X221589Y90830D01*
X203098Y100736D01*
X185470Y112064D01*
X168808Y124866D01*
X153263Y138887D01*
X138887Y154178D01*
X125831Y170586D01*
X114147Y188010D01*
X103936Y206298D01*
X95250Y225399D01*
X88087Y245110D01*
X82600Y265379D01*
X78790Y285953D01*
X76606Y306984D01*
X75742Y311658D01*
X73761Y316839D01*
X71424Y321513D01*
X70358Y326034D01*
X70205Y455269D01*
X71018Y459333D01*
X73406Y462737D01*
X76962Y464870D01*
X81076Y465429D01*
X85039Y464312D01*
X96215Y454406D01*
X104444Y449326D01*
X113385Y445770D01*
X122834Y443738D01*
X132486Y443280D01*
X142036Y444550D01*
X151231Y447344D01*
X159867Y451713D01*
X167640Y457454D01*
X174294Y464413D01*
X176326Y467410D01*
X179273Y470255D01*
X183184Y471728D01*
X187299Y471525D01*
X191008Y469696D01*
X193649Y466547D01*
X194868Y462584D01*
X194360Y458470D01*
X189128Y442823D01*
X184353Y422503D01*
X181457Y401828D01*
X180492Y381000D01*
X181457Y360172D01*
X184353Y339496D01*
X189128Y319176D01*
X195783Y299415D01*
X204165Y280314D01*
X214325Y262077D01*
X226110Y244856D01*
X239471Y228803D01*
X254203Y214071D01*
X270256Y200761D01*
X287477Y188925D01*
X305714Y178816D01*
X324815Y170383D01*
X344576Y163728D01*
X364896Y158953D01*
X385572Y156057D01*
X406400Y155092D01*
X427228Y156057D01*
X447903Y158953D01*
X468223Y163728D01*
X487984Y170383D01*
X507085Y178816D01*
X525322Y188925D01*
X542544Y200761D01*
X558596Y214071D01*
X573328Y228803D01*
X586689Y244856D01*
X598474Y262077D01*
X608634Y280314D01*
X617067Y299415D01*
X623671Y319176D01*
X628446Y339496D01*
X631342Y360172D01*
X632307Y381000D01*
X631342Y401828D01*
X628446Y422503D01*
X623671Y442823D01*
X617067Y462635D01*
X608634Y481685D01*
X600557Y496214D01*
X599287Y500227D01*
X599795Y504393D01*
X601929Y508000D01*
X605332Y510438D01*
X609396Y511301D01*
X2034235Y511403D01*
X2037842Y510743D01*
X2040940Y508863D01*
X2046173Y504240D01*
X2054402Y499211D01*
X2063343Y495604D01*
X2072792Y493572D01*
X2082444Y493166D01*
X2091994Y494385D01*
X2101189Y497230D01*
X2109825Y501548D01*
X2117598Y507288D01*
X2124252Y514248D01*
X2129637Y522274D01*
X2133650Y531063D01*
X2136038Y540359D01*
X2136902Y549960D01*
X2136038Y559612D01*
X2133701Y568706D01*
X2133447Y572363D01*
X2134514Y575919D01*
X2136749Y578815D01*
X2139899Y580745D01*
X2143506Y581406D01*
X2236622Y581406D01*
X2240432Y580694D01*
X2243683Y578561D01*
X2245868Y575411D01*
X2246782Y571652D01*
X2246223Y567842D01*
X2244953Y564337D01*
X2243328Y554786D01*
X2243328Y545185D01*
X2244953Y535635D01*
X2248154Y526542D01*
X2252878Y518159D01*
X2258923Y510641D01*
X2266188Y504240D01*
X2274366Y499211D01*
X2283358Y495604D01*
X2292756Y493572D01*
X2302408Y493166D01*
X2311958Y494385D01*
X2321204Y497230D01*
X2329789Y501548D01*
X2337562Y507288D01*
X2344267Y514248D01*
X2349652Y522274D01*
X2353614Y531063D01*
X2356053Y540359D01*
X2356866Y549960D01*
X2356053Y559612D01*
X2353614Y568909D01*
X2349652Y577697D01*
X2344267Y585724D01*
X2341422Y588670D01*
X2339289Y591921D01*
X2338578Y595731D01*
X2338578Y599440D01*
X2337765Y607466D01*
X2335580Y614680D01*
X2332024Y621385D01*
X2326894Y627583D01*
X2307539Y646938D01*
X2301341Y652068D01*
X2294636Y655624D01*
X2287422Y657809D01*
X2279396Y658622D01*
X610260Y658622D01*
X606348Y659384D01*
X603046Y661619D01*
X557733Y706882D01*
X551535Y712012D01*
X544830Y715568D01*
X537616Y717753D01*
X529590Y718566D01*
X260248Y718566D01*
X256336Y719328D01*
X253034Y721563D01*
X251663Y722934D01*
X249428Y726236D01*
X248666Y730148D01*
X248666Y754380D01*
X249377Y758139D01*
X251510Y761390D01*
X254254Y764286D01*
X259638Y772261D01*
X263652Y781050D01*
X266039Y790397D01*
X266903Y799998D01*
X266039Y809599D01*
X263652Y818946D01*
X259638Y827735D01*
X254254Y835710D01*
X247599Y842670D01*
X239826Y848410D01*
X231190Y852779D01*
X221996Y855573D01*
X212445Y856843D01*
X202793Y856386D01*
X188620Y853287D01*
X184759Y854100D01*
X181508Y856335D01*
X179324Y859586D01*
X178562Y863447D01*
X178562Y1274064D01*
X179578Y1278432D01*
X182321Y1281988D01*
X186385Y1283970D01*
X190855Y1284020D01*
X192786Y1283614D01*
X202438Y1283157D01*
X211988Y1284427D01*
X221183Y1287221D01*
X229819Y1291590D01*
X237591Y1297330D01*
X244246Y1304290D01*
X249631Y1312265D01*
X253644Y1321054D01*
X256032Y1330401D01*
X256895Y1340002D01*
X256032Y1349603D01*
X253644Y1358950D01*
X249631Y1367739D01*
X244246Y1375714D01*
X237591Y1382674D01*
X229819Y1388414D01*
X221183Y1392783D01*
X211988Y1395577D01*
X202438Y1396847D01*
X192786Y1396390D01*
X183337Y1394358D01*
X174396Y1390802D01*
X166166Y1385722D01*
X160375Y1380642D01*
X157734Y1378915D01*
X152501Y1377899D01*
X145288Y1375714D01*
X143459Y1374749D01*
X139496Y1373581D01*
X135331Y1374140D01*
X131775Y1376273D01*
X129387Y1379677D01*
X128524Y1383741D01*
X128524Y2549753D01*
X129285Y2553665D01*
X131521Y2556967D01*
X143052Y2568498D01*
X146354Y2570734D01*
X150266Y2571496D01*
X235356Y2571496D01*
X239725Y2570480D01*
X243230Y2567736D01*
X249021Y2560574D01*
X256235Y2554224D01*
X264464Y2549144D01*
X273405Y2545588D01*
X282854Y2543556D01*
X292506Y2543098D01*
X302056Y2544368D01*
X311251Y2547162D01*
X319887Y2551531D01*
X327660Y2557272D01*
X334314Y2564231D01*
X339699Y2572207D01*
X343712Y2580995D01*
X346100Y2590342D01*
X346964Y2599944D01*
X346100Y2609545D01*
X343712Y2618892D01*
X339699Y2627680D01*
X334314Y2635656D01*
X327660Y2642616D01*
X319887Y2648356D01*
X311251Y2652725D01*
X302056Y2655519D01*
X292506Y2656789D01*
X282854Y2656332D01*
X273405Y2654300D01*
X264464Y2650744D01*
X261061Y2649118D01*
X258317Y2648712D01*
X130556Y2648712D01*
X122529Y2647899D01*
X115316Y2645714D01*
X108610Y2642158D01*
X102412Y2637028D01*
X84886Y2619552D01*
X81584Y2617368D01*
X77724Y2616555D01*
X73812Y2617368D01*
X70561Y2619552D01*
X68326Y2622854D01*
X67564Y2626715D01*
X64058Y5525922D01*
X65328Y5531256D01*
X66141Y5537860D01*
X66243Y5559755D01*
X68072Y5580786D01*
X71628Y5601614D01*
X76860Y5622036D01*
X83769Y5641949D01*
X92303Y5661304D01*
X102362Y5679846D01*
X113893Y5697474D01*
X126847Y5714136D01*
X141173Y5729681D01*
X156667Y5744006D01*
X173278Y5756960D01*
X190906Y5768543D01*
X209448Y5778652D01*
X228752Y5787237D01*
X248666Y5794146D01*
X269087Y5799429D01*
X289864Y5803036D01*
X310896Y5804916D01*
X332028Y5805068D01*
X355803Y5803392D01*
X6242761Y5804052D01*
X6249974Y5803493D01*
X6272479Y5804204D01*
X6294170Y5803138D01*
X6315659Y5800191D01*
X6336842Y5795467D01*
X6357518Y5788964D01*
X6377584Y5780735D01*
X6396888Y5770829D01*
X6415328Y5759348D01*
X6432702Y5746394D01*
X6448907Y5731967D01*
X6463893Y5716270D01*
X6477457Y5699353D01*
X6489547Y5681319D01*
X6500063Y5662371D01*
X6509004Y5642559D01*
X6516217Y5622137D01*
X6521653Y5601106D01*
X6525310Y5579770D01*
X6527190Y5558129D01*
X6527190Y5536438D01*
X6525463Y5514898D01*
X6525869Y5507482D01*
X6526834Y5504383D01*
X6527292Y5501335D01*
X6527292Y270205D01*
X6527038Y267817D01*
X6522923Y250952D01*
X6516420Y231038D01*
X6508292Y211785D01*
X6498590Y193243D01*
X6487464Y175514D01*
X6474917Y158800D01*
X6461048Y143154D01*
X6445961Y128625D01*
X6429756Y115417D01*
X6412534Y103581D01*
X6394399Y93167D01*
X6375450Y84277D01*
X6355842Y76911D01*
X6335725Y71221D01*
X6315202Y67106D01*
X6299250Y65278D01*
X6296863Y65278D01*
X6291478Y65887D01*
X4920589Y65887D01*
X4914087Y65125D01*
X4908245Y62890D01*
X4906213Y61722D01*
X4900980Y57556D01*
X4872532Y28905D01*
X4869230Y26670D01*
X4865370Y25908D01*
G37*

%LPC*%
G36*
X6210300Y155092D02*
G01*
X6231128Y156057D01*
X6251803Y158953D01*
X6272123Y163728D01*
X6291884Y170383D01*
X6310985Y178816D01*
X6329222Y188925D01*
X6346444Y200761D01*
X6362496Y214071D01*
X6377228Y228803D01*
X6390589Y244856D01*
X6402374Y262077D01*
X6412534Y280314D01*
X6420967Y299415D01*
X6427571Y319176D01*
X6432346Y339496D01*
X6435242Y360172D01*
X6436207Y381000D01*
X6435242Y401828D01*
X6432346Y422503D01*
X6427571Y442823D01*
X6420967Y462635D01*
X6412534Y481685D01*
X6402374Y499922D01*
X6390589Y517143D01*
X6377228Y533196D01*
X6362496Y547928D01*
X6346444Y561289D01*
X6329222Y573074D01*
X6310985Y583234D01*
X6291884Y591667D01*
X6272123Y598271D01*
X6251803Y603046D01*
X6231128Y605942D01*
X6210300Y606907D01*
X6189472Y605942D01*
X6168796Y603046D01*
X6148476Y598271D01*
X6128715Y591667D01*
X6109614Y583234D01*
X6091377Y573074D01*
X6074156Y561289D01*
X6058103Y547928D01*
X6043371Y533196D01*
X6030010Y517143D01*
X6018225Y499922D01*
X6008065Y481685D01*
X5999683Y462635D01*
X5993028Y442823D01*
X5988253Y422503D01*
X5985357Y401828D01*
X5984392Y381000D01*
X5985357Y360172D01*
X5988253Y339496D01*
X5993028Y319176D01*
X5999683Y299415D01*
X6008065Y280314D01*
X6018225Y262077D01*
X6030010Y244856D01*
X6043371Y228803D01*
X6058103Y214071D01*
X6074156Y200761D01*
X6091377Y188925D01*
X6109614Y178816D01*
X6128715Y170383D01*
X6148476Y163728D01*
X6168796Y158953D01*
X6189472Y156057D01*
G37*
G36*
X402437Y743153D02*
G01*
X411988Y744423D01*
X421182Y747217D01*
X429818Y751586D01*
X437591Y757326D01*
X444246Y764286D01*
X449630Y772261D01*
X453643Y781050D01*
X456031Y790397D01*
X456895Y799998D01*
X456031Y809599D01*
X453643Y818946D01*
X449630Y827735D01*
X444246Y835710D01*
X441451Y838657D01*
X439318Y841908D01*
X438607Y845718D01*
X438607Y1307795D01*
X439521Y1311960D01*
X443636Y1321054D01*
X446024Y1330401D01*
X446887Y1340002D01*
X446024Y1349603D01*
X443636Y1358950D01*
X439623Y1367739D01*
X434238Y1375714D01*
X431444Y1378661D01*
X429361Y1381912D01*
X428599Y1385671D01*
X428599Y1589786D01*
X429361Y1593697D01*
X431596Y1596999D01*
X493014Y1658416D01*
X496316Y1660601D01*
X500176Y1661414D01*
X1593443Y1661414D01*
X1597304Y1660601D01*
X1600606Y1658416D01*
X1602790Y1655114D01*
X1603603Y1651254D01*
X1603603Y1633067D01*
X1604314Y1626768D01*
X1606194Y1621282D01*
X1609293Y1616405D01*
X1613357Y1612290D01*
X1618284Y1609191D01*
X1623720Y1607312D01*
X1630070Y1606600D01*
X1769922Y1606600D01*
X1776222Y1607312D01*
X1781708Y1609191D01*
X1786585Y1612290D01*
X1790700Y1616405D01*
X1794205Y1620418D01*
X1797964Y1622044D01*
X1802028Y1622044D01*
X1805787Y1620418D01*
X1809292Y1616405D01*
X1813407Y1612290D01*
X1818284Y1609191D01*
X1823770Y1607312D01*
X1830070Y1606600D01*
X1858416Y1606600D01*
X1858416Y1659889D01*
X1806549Y1659889D01*
X1802688Y1660652D01*
X1799386Y1662887D01*
X1797151Y1666189D01*
X1796389Y1670050D01*
X1796389Y1729943D01*
X1797151Y1733804D01*
X1799386Y1737106D01*
X1802688Y1739341D01*
X1806549Y1740103D01*
X1858416Y1740103D01*
X1858416Y1793392D01*
X1830070Y1793392D01*
X1823770Y1792681D01*
X1818284Y1790801D01*
X1813407Y1787702D01*
X1809292Y1783588D01*
X1805787Y1779574D01*
X1802028Y1777949D01*
X1797964Y1777949D01*
X1794205Y1779574D01*
X1790700Y1783588D01*
X1786585Y1787702D01*
X1781708Y1790801D01*
X1776222Y1792681D01*
X1769922Y1793392D01*
X1630070Y1793392D01*
X1623720Y1792681D01*
X1618284Y1790801D01*
X1613357Y1787702D01*
X1609293Y1783588D01*
X1606194Y1778711D01*
X1604314Y1773224D01*
X1603603Y1766925D01*
X1603603Y1748789D01*
X1602790Y1744878D01*
X1600606Y1741576D01*
X1597304Y1739392D01*
X1593443Y1738630D01*
X480517Y1738579D01*
X472490Y1737817D01*
X465226Y1735632D01*
X458571Y1732076D01*
X452323Y1726946D01*
X363067Y1637639D01*
X357936Y1631442D01*
X354380Y1624736D01*
X352196Y1617522D01*
X351383Y1609496D01*
X351383Y1385976D01*
X350824Y1382623D01*
X349148Y1379626D01*
X342849Y1371854D01*
X338175Y1363421D01*
X334975Y1354328D01*
X333349Y1344828D01*
X333349Y1335176D01*
X334975Y1325676D01*
X338175Y1316583D01*
X342849Y1308150D01*
X348945Y1300632D01*
X359156Y1291793D01*
X360832Y1288796D01*
X361391Y1285392D01*
X361391Y845972D01*
X360832Y842568D01*
X359156Y839571D01*
X352856Y831850D01*
X348183Y823417D01*
X344982Y814324D01*
X343357Y804824D01*
X343357Y795172D01*
X344982Y785672D01*
X348183Y776579D01*
X352856Y768146D01*
X358952Y760628D01*
X366166Y754278D01*
X374396Y749198D01*
X383336Y745642D01*
X392785Y743610D01*
G37*
G36*
X3912412Y843178D02*
G01*
X3921963Y844397D01*
X3931208Y847242D01*
X3939794Y851560D01*
X3947566Y857300D01*
X3954272Y864260D01*
X3959656Y872286D01*
X3963619Y881075D01*
X3965092Y886663D01*
X3966768Y890219D01*
X3969715Y892810D01*
X3973372Y894130D01*
X3977284Y893978D01*
X3980840Y892352D01*
X3983532Y889508D01*
X3988155Y876553D01*
X3992879Y868171D01*
X3998925Y860653D01*
X4006189Y854252D01*
X4014368Y849223D01*
X4023360Y845616D01*
X4032758Y843584D01*
X4042410Y843178D01*
X4051960Y844397D01*
X4061206Y847242D01*
X4069791Y851560D01*
X4077563Y857300D01*
X4084269Y864260D01*
X4089654Y872286D01*
X4093616Y881075D01*
X4096054Y890371D01*
X4096867Y899972D01*
X4096054Y909624D01*
X4093616Y918921D01*
X4089654Y927709D01*
X4084269Y935736D01*
X4080967Y939139D01*
X4079036Y941933D01*
X4078173Y945184D01*
X4077919Y947572D01*
X4075734Y954786D01*
X4072178Y961491D01*
X4067098Y967689D01*
X4041597Y993038D01*
X4039362Y996340D01*
X4038600Y1000201D01*
X4038600Y1091184D01*
X4039362Y1095095D01*
X4041597Y1098346D01*
X4044848Y1100582D01*
X4048760Y1101344D01*
X4829556Y1101344D01*
X4837582Y1102156D01*
X4844796Y1104341D01*
X4851501Y1107897D01*
X4857699Y1113028D01*
X5003088Y1258366D01*
X5006390Y1260602D01*
X5010302Y1261364D01*
X6099556Y1261364D01*
X6107582Y1262176D01*
X6114796Y1264361D01*
X6121501Y1267917D01*
X6127699Y1273048D01*
X6266942Y1412290D01*
X6272072Y1418488D01*
X6275628Y1425194D01*
X6277813Y1432407D01*
X6278626Y1440434D01*
X6278626Y2789428D01*
X6277813Y2797454D01*
X6275628Y2804668D01*
X6272072Y2811373D01*
X6266942Y2817571D01*
X6157671Y2926842D01*
X6151473Y2931972D01*
X6144768Y2935528D01*
X6137554Y2937713D01*
X6129528Y2938526D01*
X4909159Y2938526D01*
X4905248Y2939338D01*
X4901895Y2941574D01*
X4899710Y2944977D01*
X4898999Y2948940D01*
X4899914Y2952851D01*
X4903622Y2961030D01*
X4906060Y2970377D01*
X4906873Y2979978D01*
X4906060Y2989580D01*
X4903622Y2998927D01*
X4899660Y3007715D01*
X4894224Y3015742D01*
X4891430Y3018637D01*
X4889347Y3021888D01*
X4888636Y3025698D01*
X4888636Y3929481D01*
X4887823Y3937508D01*
X4885639Y3944721D01*
X4882083Y3951376D01*
X4876952Y3957624D01*
X4777638Y4056938D01*
X4771390Y4062069D01*
X4764735Y4065625D01*
X4757521Y4067810D01*
X4749495Y4068622D01*
X3763518Y4068622D01*
X3759911Y4069283D01*
X3756761Y4071213D01*
X3754475Y4074109D01*
X3753408Y4077665D01*
X3753662Y4081322D01*
X3756050Y4090365D01*
X3756863Y4099966D01*
X3756050Y4109618D01*
X3753612Y4118914D01*
X3749649Y4127703D01*
X3744264Y4135729D01*
X3737559Y4142689D01*
X3729786Y4148429D01*
X3721201Y4152747D01*
X3711956Y4155592D01*
X3702405Y4156811D01*
X3692753Y4156405D01*
X3686200Y4154982D01*
X3682796Y4154830D01*
X3679596Y4155795D01*
X3676853Y4157726D01*
X3657650Y4176928D01*
X3651402Y4182059D01*
X3644747Y4185615D01*
X3637534Y4187799D01*
X3629507Y4188612D01*
X3618737Y4188612D01*
X3614877Y4189374D01*
X3611575Y4191558D01*
X3609390Y4194860D01*
X3608628Y4198772D01*
X3608628Y4644288D01*
X3609340Y4648098D01*
X3611422Y4651349D01*
X3614216Y4654245D01*
X3619652Y4662271D01*
X3623614Y4671060D01*
X3626053Y4680356D01*
X3626865Y4690008D01*
X3626053Y4699609D01*
X3623614Y4708956D01*
X3619652Y4717745D01*
X3614216Y4725720D01*
X3607562Y4732680D01*
X3599789Y4738420D01*
X3591204Y4742738D01*
X3581958Y4745583D01*
X3572408Y4746802D01*
X3562756Y4746396D01*
X3553358Y4744364D01*
X3544366Y4740757D01*
X3536187Y4735728D01*
X3528923Y4729327D01*
X3522878Y4721860D01*
X3518154Y4713427D01*
X3514953Y4704334D01*
X3513328Y4694885D01*
X3512210Y4691634D01*
X3510026Y4688992D01*
X3507130Y4687163D01*
X3493363Y4684369D01*
X3484372Y4680762D01*
X3476193Y4675733D01*
X3468928Y4669332D01*
X3462883Y4661814D01*
X3458159Y4653432D01*
X3454958Y4644339D01*
X3453333Y4634788D01*
X3453333Y4625187D01*
X3454958Y4615637D01*
X3458159Y4606544D01*
X3462883Y4598162D01*
X3468928Y4590643D01*
X3479139Y4581753D01*
X3480815Y4578756D01*
X3481374Y4575403D01*
X3481374Y4130497D01*
X3482187Y4122470D01*
X3484372Y4115257D01*
X3485286Y4113529D01*
X3486454Y4109567D01*
X3485896Y4105452D01*
X3483762Y4101846D01*
X3480358Y4099458D01*
X3476294Y4098594D01*
X3380486Y4098594D01*
X3372459Y4097832D01*
X3365246Y4095597D01*
X3358591Y4092041D01*
X3354781Y4088942D01*
X3351987Y4087317D01*
X3348786Y4086656D01*
X3342792Y4086402D01*
X3333343Y4084370D01*
X3324402Y4080764D01*
X3316173Y4075734D01*
X3308959Y4069334D01*
X3302863Y4061815D01*
X3298190Y4053433D01*
X3294989Y4044340D01*
X3293364Y4034790D01*
X3293364Y4025188D01*
X3294989Y4015638D01*
X3298190Y4006545D01*
X3302863Y3998163D01*
X3308959Y3990644D01*
X3316173Y3984244D01*
X3324402Y3979214D01*
X3333343Y3975608D01*
X3342792Y3973576D01*
X3352444Y3973169D01*
X3361994Y3974388D01*
X3371189Y3977233D01*
X3379825Y3981551D01*
X3391814Y3990543D01*
X3395878Y3991305D01*
X3399891Y3990441D01*
X3403244Y3988054D01*
X3405327Y3984548D01*
X3408172Y3976573D01*
X3412896Y3968140D01*
X3418941Y3960622D01*
X3425494Y3954881D01*
X3427882Y3951681D01*
X3428898Y3947820D01*
X3428339Y3943858D01*
X3424986Y3934307D01*
X3423361Y3924808D01*
X3423361Y3915156D01*
X3424986Y3905656D01*
X3428187Y3896563D01*
X3432860Y3888130D01*
X3434283Y3886352D01*
X3435959Y3883355D01*
X3436569Y3880002D01*
X3435959Y3876598D01*
X3434283Y3873601D01*
X3432860Y3871823D01*
X3428187Y3863441D01*
X3424986Y3854348D01*
X3423361Y3844798D01*
X3423361Y3835196D01*
X3424986Y3825646D01*
X3428187Y3816553D01*
X3432860Y3808171D01*
X3438956Y3800652D01*
X3446170Y3794251D01*
X3454400Y3789222D01*
X3463340Y3785615D01*
X3472789Y3783584D01*
X3482441Y3783177D01*
X3491992Y3784396D01*
X3501186Y3787241D01*
X3509822Y3791559D01*
X3521811Y3800551D01*
X3525824Y3801364D01*
X3683101Y3801364D01*
X3687013Y3800601D01*
X3690315Y3798366D01*
X3692499Y3795064D01*
X3693261Y3791153D01*
X3692448Y3787241D01*
X3690213Y3783939D01*
X3686911Y3781755D01*
X3684371Y3780790D01*
X3676192Y3775710D01*
X3668928Y3769360D01*
X3662883Y3761841D01*
X3658158Y3753408D01*
X3654958Y3744315D01*
X3653332Y3734815D01*
X3653332Y3725164D01*
X3654958Y3715664D01*
X3658158Y3706571D01*
X3662883Y3698138D01*
X3668928Y3690620D01*
X3676192Y3684270D01*
X3684371Y3679190D01*
X3693363Y3675634D01*
X3703421Y3673449D01*
X3706622Y3672179D01*
X3709212Y3669893D01*
X3710889Y3666896D01*
X3711448Y3663492D01*
X3711448Y3000502D01*
X3712260Y2992475D01*
X3714445Y2985262D01*
X3718001Y2978556D01*
X3723132Y2972358D01*
X3832402Y2863088D01*
X3838600Y2857957D01*
X3845306Y2854401D01*
X3852519Y2852216D01*
X3860546Y2851404D01*
X3984244Y2851404D01*
X3987800Y2850743D01*
X3990949Y2848864D01*
X3996182Y2844241D01*
X4004360Y2839212D01*
X4013352Y2835605D01*
X4027322Y2832658D01*
X4030472Y2830423D01*
X4032605Y2827172D01*
X4033316Y2823413D01*
X4033316Y2815183D01*
X4034942Y2805633D01*
X4034993Y2802382D01*
X4034028Y2799334D01*
X4032097Y2796743D01*
X3825748Y2590393D01*
X3822496Y2588158D01*
X3818585Y2587396D01*
X3814724Y2588158D01*
X3811422Y2590393D01*
X3809187Y2593644D01*
X3808425Y2597556D01*
X3808425Y2789326D01*
X3807663Y2797302D01*
X3805478Y2804566D01*
X3801922Y2811221D01*
X3796792Y2817469D01*
X3667709Y2946806D01*
X3661460Y2951886D01*
X3654806Y2955493D01*
X3647592Y2957677D01*
X3639565Y2958490D01*
X3255924Y2958490D01*
X3251962Y2959303D01*
X3239820Y2968396D01*
X3231184Y2972765D01*
X3221990Y2975559D01*
X3212439Y2976829D01*
X3202787Y2976372D01*
X3193338Y2974340D01*
X3184398Y2970784D01*
X3176168Y2965704D01*
X3168954Y2959354D01*
X3162858Y2951835D01*
X3158185Y2943402D01*
X3157372Y2941066D01*
X3155391Y2937713D01*
X3152343Y2935376D01*
X3148634Y2934309D01*
X3144774Y2934716D01*
X3141980Y2935579D01*
X3132429Y2936849D01*
X3122777Y2936392D01*
X3113328Y2934360D01*
X3104388Y2930804D01*
X3096158Y2925724D01*
X3088944Y2919374D01*
X3082848Y2911856D01*
X3078175Y2903423D01*
X3074974Y2894330D01*
X3073349Y2884830D01*
X3073349Y2875178D01*
X3074974Y2865678D01*
X3078175Y2856585D01*
X3082848Y2848152D01*
X3088944Y2840634D01*
X3096158Y2834284D01*
X3104388Y2829204D01*
X3113328Y2825648D01*
X3122777Y2823616D01*
X3128670Y2823362D01*
X3131870Y2822702D01*
X3134664Y2821025D01*
X3138474Y2817926D01*
X3145129Y2814320D01*
X3152343Y2812084D01*
X3160522Y2811272D01*
X3599789Y2811272D01*
X3603701Y2810510D01*
X3607003Y2808274D01*
X3678478Y2736799D01*
X3680714Y2733497D01*
X3681476Y2729585D01*
X3681476Y2682341D01*
X3680663Y2678379D01*
X3678377Y2675077D01*
X3674973Y2672892D01*
X3671011Y2672181D01*
X3667048Y2673146D01*
X3663797Y2675534D01*
X3661714Y2678988D01*
X3660800Y2681732D01*
X3657701Y2686608D01*
X3653586Y2690723D01*
X3648710Y2693771D01*
X3643223Y2695702D01*
X3636924Y2696413D01*
X3503066Y2696413D01*
X3496716Y2695702D01*
X3491280Y2693771D01*
X3486404Y2690723D01*
X3482289Y2686608D01*
X3479190Y2681732D01*
X3477310Y2676245D01*
X3476599Y2669946D01*
X3476599Y2648762D01*
X3475786Y2644851D01*
X3473602Y2641600D01*
X3470300Y2639364D01*
X3466439Y2638602D01*
X3433572Y2638602D01*
X3429660Y2639364D01*
X3426358Y2641600D01*
X3424174Y2644851D01*
X3423412Y2648762D01*
X3423412Y2669946D01*
X3422700Y2676245D01*
X3420770Y2681732D01*
X3417722Y2686608D01*
X3413607Y2690723D01*
X3408730Y2693771D01*
X3403244Y2695702D01*
X3396945Y2696413D01*
X3263087Y2696413D01*
X3256737Y2695702D01*
X3251301Y2693771D01*
X3246374Y2690723D01*
X3242310Y2686608D01*
X3239211Y2681732D01*
X3237280Y2676245D01*
X3236569Y2669946D01*
X3236569Y2548890D01*
X3235807Y2544978D01*
X3233623Y2541727D01*
X3230321Y2539492D01*
X3226409Y2538730D01*
X1330096Y2538730D01*
X1326184Y2539492D01*
X1322882Y2541727D01*
X1321511Y2543098D01*
X1319276Y2546400D01*
X1318514Y2550312D01*
X1318514Y2596438D01*
X1319276Y2600299D01*
X1321511Y2603601D01*
X1324762Y2605836D01*
X1328674Y2606598D01*
X1449933Y2606598D01*
X1456232Y2607310D01*
X1461719Y2609189D01*
X1466596Y2612288D01*
X1470710Y2616403D01*
X1473809Y2621280D01*
X1475689Y2626766D01*
X1476400Y2633065D01*
X1476400Y2766923D01*
X1475689Y2773222D01*
X1473809Y2778709D01*
X1470710Y2783586D01*
X1466596Y2787700D01*
X1461719Y2790799D01*
X1456232Y2792679D01*
X1449933Y2793390D01*
X1428750Y2793390D01*
X1424889Y2794152D01*
X1421587Y2796387D01*
X1419352Y2799689D01*
X1418590Y2803550D01*
X1418590Y2856433D01*
X1419352Y2860294D01*
X1421587Y2863596D01*
X1424889Y2865831D01*
X1428750Y2866593D01*
X1449933Y2866593D01*
X1456232Y2867304D01*
X1461719Y2869184D01*
X1466596Y2872282D01*
X1470710Y2876397D01*
X1473809Y2881274D01*
X1475689Y2886760D01*
X1476400Y2893060D01*
X1476400Y2917393D01*
X1477162Y2921254D01*
X1479346Y2924556D01*
X1482598Y2926740D01*
X1486458Y2927553D01*
X1490370Y2926842D01*
X1493367Y2925622D01*
X1502765Y2923590D01*
X1512417Y2923184D01*
X1521968Y2924403D01*
X1531213Y2927248D01*
X1539798Y2931566D01*
X1551838Y2940558D01*
X1555851Y2941370D01*
X2266137Y2941370D01*
X2270201Y2940558D01*
X2273604Y2938119D01*
X2275738Y2934563D01*
X2276297Y2930448D01*
X2275128Y2926435D01*
X2274265Y2924810D01*
X2272080Y2917596D01*
X2271166Y2912668D01*
X2269642Y2910128D01*
X2262886Y2901848D01*
X2258161Y2893415D01*
X2254961Y2884322D01*
X2253335Y2874822D01*
X2253335Y2865170D01*
X2254961Y2855671D01*
X2258161Y2846578D01*
X2262886Y2838145D01*
X2268931Y2830626D01*
X2276195Y2824276D01*
X2284374Y2819196D01*
X2293366Y2815590D01*
X2302764Y2813558D01*
X2311654Y2813202D01*
X2315413Y2812288D01*
X2318562Y2810103D01*
X2320645Y2806852D01*
X2321356Y2803042D01*
X2321356Y2795930D01*
X2320798Y2792577D01*
X2319121Y2789580D01*
X2312873Y2781808D01*
X2308148Y2773426D01*
X2304948Y2764332D01*
X2303322Y2754782D01*
X2303322Y2745181D01*
X2304948Y2735630D01*
X2308148Y2726537D01*
X2312873Y2718155D01*
X2318918Y2710637D01*
X2326182Y2704236D01*
X2334361Y2699207D01*
X2343353Y2695600D01*
X2352751Y2693568D01*
X2362403Y2693162D01*
X2371953Y2694381D01*
X2381199Y2697226D01*
X2389784Y2701544D01*
X2397556Y2707284D01*
X2404262Y2714244D01*
X2409647Y2722270D01*
X2413609Y2731058D01*
X2416048Y2740355D01*
X2416860Y2749956D01*
X2416048Y2759608D01*
X2413609Y2768904D01*
X2409647Y2777693D01*
X2404262Y2785719D01*
X2401417Y2788666D01*
X2399334Y2791917D01*
X2398572Y2795676D01*
X2398572Y2799791D01*
X2399385Y2803702D01*
X2401570Y2806954D01*
X2413000Y2818384D01*
X2416302Y2820619D01*
X2420162Y2821381D01*
X2619502Y2821381D01*
X2627528Y2822194D01*
X2634742Y2824378D01*
X2641396Y2827934D01*
X2647645Y2833065D01*
X2716936Y2902356D01*
X2722067Y2908554D01*
X2725623Y2915208D01*
X2727807Y2922473D01*
X2728620Y2930499D01*
X2728620Y3149803D01*
X2729382Y3153664D01*
X2731566Y3156966D01*
X2745232Y3170631D01*
X2748686Y3172917D01*
X2752801Y3173577D01*
X2762402Y3173171D01*
X2771952Y3174390D01*
X2781198Y3177235D01*
X2789834Y3181553D01*
X2797556Y3187293D01*
X2804261Y3194253D01*
X2809646Y3202279D01*
X2813608Y3211068D01*
X2816047Y3220364D01*
X2816860Y3230016D01*
X2816047Y3239617D01*
X2812338Y3254095D01*
X2813304Y3258362D01*
X2816047Y3261867D01*
X2817571Y3263138D01*
X2846832Y3292398D01*
X2851962Y3298596D01*
X2855518Y3305301D01*
X2857703Y3312515D01*
X2858820Y3317798D01*
X2860700Y3320592D01*
X2864256Y3324250D01*
X2869641Y3332276D01*
X2873603Y3341065D01*
X2876042Y3350361D01*
X2876854Y3359962D01*
X2876042Y3369614D01*
X2873603Y3378911D01*
X2869641Y3387699D01*
X2864256Y3395726D01*
X2857550Y3402685D01*
X2849778Y3408426D01*
X2841193Y3412744D01*
X2831947Y3415588D01*
X2822397Y3416808D01*
X2812745Y3416401D01*
X2803347Y3414369D01*
X2794101Y3410610D01*
X2790037Y3409187D01*
X2785770Y3409543D01*
X2782062Y3411626D01*
X2779522Y3415080D01*
X2778607Y3419246D01*
X2778607Y3507790D01*
X2779522Y3511956D01*
X2783636Y3521049D01*
X2786024Y3530396D01*
X2786888Y3539998D01*
X2786024Y3549599D01*
X2783636Y3558946D01*
X2779623Y3567734D01*
X2774238Y3575710D01*
X2771444Y3578656D01*
X2769311Y3581908D01*
X2768600Y3585718D01*
X2768600Y3612743D01*
X2769565Y3617061D01*
X2772257Y3620566D01*
X2776220Y3622548D01*
X2780639Y3622700D01*
X2784703Y3620973D01*
X2787650Y3617620D01*
X2792882Y3608120D01*
X2798927Y3600653D01*
X2806192Y3594252D01*
X2814370Y3589223D01*
X2823362Y3585616D01*
X2832760Y3583584D01*
X2842412Y3583178D01*
X2851962Y3584397D01*
X2861208Y3587242D01*
X2869793Y3591560D01*
X2877566Y3597300D01*
X2884271Y3604260D01*
X2889656Y3612286D01*
X2893618Y3621074D01*
X2896057Y3630371D01*
X2896870Y3639972D01*
X2896057Y3649624D01*
X2893618Y3658920D01*
X2889656Y3667709D01*
X2884271Y3675735D01*
X2881426Y3678682D01*
X2879344Y3681933D01*
X2878582Y3685692D01*
X2878582Y3697224D01*
X2879344Y3701034D01*
X2881426Y3704285D01*
X2884576Y3706520D01*
X2888335Y3707384D01*
X2892145Y3706825D01*
X2904388Y3699205D01*
X2913329Y3695598D01*
X2922778Y3693566D01*
X2932430Y3693160D01*
X2941980Y3694379D01*
X2951175Y3697224D01*
X2959811Y3701542D01*
X2967583Y3707282D01*
X2974238Y3714242D01*
X2979623Y3722268D01*
X2983636Y3731056D01*
X2986024Y3740353D01*
X2986887Y3749954D01*
X2986024Y3759606D01*
X2983636Y3768902D01*
X2979623Y3777691D01*
X2974238Y3785717D01*
X2971342Y3788765D01*
X2969209Y3792016D01*
X2968498Y3795776D01*
X2968498Y4144213D01*
X2969209Y4148023D01*
X2971342Y4151274D01*
X2974187Y4154271D01*
X2979572Y4162247D01*
X2983585Y4171035D01*
X2985973Y4180382D01*
X2986836Y4189984D01*
X2985973Y4199585D01*
X2983585Y4208932D01*
X2979572Y4217720D01*
X2974187Y4225696D01*
X2967532Y4232656D01*
X2959760Y4238396D01*
X2951124Y4242765D01*
X2941929Y4245559D01*
X2932379Y4246829D01*
X2922727Y4246372D01*
X2913278Y4244340D01*
X2904337Y4240784D01*
X2896108Y4235704D01*
X2888894Y4229354D01*
X2882798Y4221835D01*
X2878124Y4213402D01*
X2874924Y4204309D01*
X2873298Y4194810D01*
X2873298Y4185158D01*
X2874924Y4175658D01*
X2878124Y4166565D01*
X2882798Y4158132D01*
X2889046Y4150461D01*
X2890723Y4147464D01*
X2891282Y4144060D01*
X2891282Y3812692D01*
X2890316Y3808374D01*
X2887573Y3804818D01*
X2883611Y3802837D01*
X2879140Y3802735D01*
X2875076Y3804513D01*
X2869793Y3808425D01*
X2861208Y3812743D01*
X2851962Y3815587D01*
X2842412Y3816807D01*
X2832760Y3816400D01*
X2823362Y3814368D01*
X2814370Y3810762D01*
X2806192Y3805732D01*
X2798927Y3799332D01*
X2792882Y3791813D01*
X2788158Y3783431D01*
X2784957Y3774338D01*
X2783332Y3764787D01*
X2783332Y3755186D01*
X2784957Y3745636D01*
X2788158Y3736543D01*
X2792882Y3728161D01*
X2799130Y3720388D01*
X2800807Y3717391D01*
X2801366Y3714038D01*
X2801366Y3685946D01*
X2800807Y3682593D01*
X2799130Y3679596D01*
X2792882Y3671874D01*
X2787650Y3662375D01*
X2784703Y3659022D01*
X2780639Y3657295D01*
X2776220Y3657447D01*
X2772257Y3659428D01*
X2769565Y3662934D01*
X2768600Y3667251D01*
X2768600Y3699510D01*
X2767787Y3707536D01*
X2765602Y3714750D01*
X2762046Y3721455D01*
X2756916Y3727653D01*
X2721508Y3763060D01*
X2719324Y3766362D01*
X2718562Y3770274D01*
X2718562Y4809490D01*
X2717749Y4817516D01*
X2715564Y4824780D01*
X2712008Y4831435D01*
X2706878Y4837633D01*
X2681935Y4862626D01*
X2679700Y4865928D01*
X2678938Y4869840D01*
X2679700Y4873701D01*
X2681935Y4877003D01*
X2685186Y4879187D01*
X2689098Y4880000D01*
X2717444Y4880000D01*
X2723743Y4880711D01*
X2729230Y4882591D01*
X2734106Y4885690D01*
X2738221Y4889754D01*
X2741269Y4894681D01*
X2743200Y4900117D01*
X2743911Y4906467D01*
X2743911Y5135321D01*
X2743200Y5141620D01*
X2741269Y5147106D01*
X2738221Y5151983D01*
X2734106Y5156098D01*
X2729230Y5159197D01*
X2723743Y5161076D01*
X2717444Y5161788D01*
X2616555Y5161788D01*
X2610256Y5161076D01*
X2604770Y5159197D01*
X2599893Y5156098D01*
X2595778Y5151983D01*
X2592730Y5147106D01*
X2590800Y5141620D01*
X2590088Y5135321D01*
X2590088Y4918710D01*
X2589326Y4914798D01*
X2587091Y4911547D01*
X2583840Y4909312D01*
X2579928Y4908550D01*
X2500071Y4908550D01*
X2496159Y4909312D01*
X2492857Y4911547D01*
X2490673Y4914798D01*
X2489911Y4918710D01*
X2489911Y5135321D01*
X2489200Y5141620D01*
X2487269Y5147106D01*
X2484221Y5151983D01*
X2480106Y5156098D01*
X2475230Y5159197D01*
X2469743Y5161076D01*
X2463444Y5161788D01*
X2368753Y5161788D01*
X2364841Y5162550D01*
X2361590Y5164785D01*
X2359355Y5168087D01*
X2358593Y5171948D01*
X2358593Y5214315D01*
X2359355Y5218074D01*
X2361438Y5221325D01*
X2364232Y5224272D01*
X2369616Y5232247D01*
X2373630Y5241036D01*
X2376017Y5250383D01*
X2376881Y5259984D01*
X2376017Y5269585D01*
X2373630Y5278932D01*
X2369616Y5287721D01*
X2364232Y5295696D01*
X2357577Y5302656D01*
X2349804Y5308396D01*
X2341168Y5312765D01*
X2331974Y5315559D01*
X2322423Y5316829D01*
X2312771Y5316372D01*
X2309622Y5315712D01*
X2305608Y5315661D01*
X2301900Y5317134D01*
X2299055Y5319979D01*
X2297480Y5323636D01*
X2297480Y5327650D01*
X2303627Y5341061D01*
X2306066Y5350357D01*
X2306878Y5359958D01*
X2306066Y5369610D01*
X2303627Y5378907D01*
X2299665Y5387695D01*
X2294280Y5395722D01*
X2287574Y5402681D01*
X2279802Y5408422D01*
X2271217Y5412740D01*
X2261971Y5415584D01*
X2252421Y5416804D01*
X2242769Y5416397D01*
X2233371Y5414365D01*
X2224379Y5410758D01*
X2216200Y5405729D01*
X2208936Y5399328D01*
X2202891Y5391810D01*
X2198166Y5383428D01*
X2194966Y5374335D01*
X2193340Y5364784D01*
X2193340Y5355183D01*
X2194966Y5345633D01*
X2198166Y5336540D01*
X2202891Y5328158D01*
X2209139Y5320385D01*
X2210816Y5317388D01*
X2211425Y5313984D01*
X2211425Y5171948D01*
X2210612Y5168087D01*
X2208428Y5164785D01*
X2205126Y5162550D01*
X2201214Y5161788D01*
X2108555Y5161788D01*
X2102256Y5161076D01*
X2096770Y5159197D01*
X2091893Y5156098D01*
X2087778Y5151983D01*
X2084730Y5147106D01*
X2082800Y5141620D01*
X2082088Y5135321D01*
X2082088Y4906467D01*
X2082800Y4900117D01*
X2084730Y4894681D01*
X2087778Y4889754D01*
X2091893Y4885690D01*
X2096770Y4882591D01*
X2102256Y4880711D01*
X2108555Y4880000D01*
X2209444Y4880000D01*
X2220061Y4881473D01*
X2223770Y4880610D01*
X2226868Y4878476D01*
X2312365Y4793030D01*
X2318562Y4787950D01*
X2325268Y4784344D01*
X2332482Y4782159D01*
X2340508Y4781397D01*
X2581198Y4781397D01*
X2585110Y4780584D01*
X2588412Y4778400D01*
X2590596Y4775098D01*
X2591358Y4771237D01*
X2591308Y3720592D01*
X2592120Y3712565D01*
X2594305Y3705351D01*
X2597861Y3698646D01*
X2602992Y3692448D01*
X2628442Y3666947D01*
X2630678Y3663645D01*
X2631440Y3659733D01*
X2631440Y3635908D01*
X2630525Y3631742D01*
X2627985Y3628288D01*
X2624277Y3626205D01*
X2620010Y3625850D01*
X2612440Y3626815D01*
X2602788Y3626408D01*
X2593340Y3624376D01*
X2584399Y3620770D01*
X2576169Y3615740D01*
X2570988Y3611118D01*
X2567838Y3609238D01*
X2564282Y3608578D01*
X2420518Y3608578D01*
X2412492Y3607815D01*
X2405227Y3605631D01*
X2398572Y3602075D01*
X2392324Y3596944D01*
X2373071Y3577640D01*
X2367940Y3571392D01*
X2364384Y3564737D01*
X2363114Y3560622D01*
X2361031Y3556863D01*
X2357577Y3554323D01*
X2353411Y3553409D01*
X2341575Y3553409D01*
X2341575Y3500069D01*
X2351227Y3500069D01*
X2355138Y3499307D01*
X2358390Y3497122D01*
X2360625Y3493820D01*
X2361387Y3489909D01*
X2361387Y3430066D01*
X2360625Y3426155D01*
X2358390Y3422853D01*
X2355138Y3420668D01*
X2351227Y3419906D01*
X2341575Y3419906D01*
X2341575Y3366566D01*
X2351227Y3366566D01*
X2355138Y3365804D01*
X2358390Y3363620D01*
X2360625Y3360318D01*
X2361387Y3356406D01*
X2361387Y3343554D01*
X2360625Y3339693D01*
X2358390Y3336391D01*
X2355138Y3334156D01*
X2351227Y3333394D01*
X2341575Y3333394D01*
X2341575Y3280105D01*
X2351227Y3280105D01*
X2355138Y3279343D01*
X2358390Y3277108D01*
X2360625Y3273806D01*
X2361387Y3269945D01*
X2361387Y3210052D01*
X2360625Y3206140D01*
X2358390Y3202889D01*
X2355138Y3200654D01*
X2351227Y3199892D01*
X2341575Y3199892D01*
X2341575Y3158998D01*
X2340762Y3154934D01*
X2338425Y3151581D01*
X2334920Y3149447D01*
X2330805Y3148838D01*
X2326843Y3149904D01*
X2321204Y3152749D01*
X2311958Y3155594D01*
X2302408Y3156813D01*
X2292756Y3156407D01*
X2283358Y3154375D01*
X2273858Y3150463D01*
X2269845Y3149041D01*
X2265578Y3149396D01*
X2261819Y3151479D01*
X2259279Y3154934D01*
X2258415Y3159099D01*
X2258415Y3199892D01*
X2198878Y3199892D01*
X2194966Y3200654D01*
X2191715Y3202889D01*
X2189480Y3206140D01*
X2188718Y3210052D01*
X2188718Y3269945D01*
X2189480Y3273806D01*
X2191715Y3277108D01*
X2194966Y3279343D01*
X2198878Y3280105D01*
X2258415Y3280105D01*
X2258415Y3333394D01*
X2230069Y3333394D01*
X2223719Y3332683D01*
X2218283Y3330803D01*
X2213356Y3327704D01*
X2209292Y3323590D01*
X2207463Y3320745D01*
X2204466Y3317646D01*
X2200402Y3316071D01*
X2196084Y3316376D01*
X2192274Y3318459D01*
X2189632Y3321913D01*
X2188718Y3326129D01*
X2188718Y3373831D01*
X2189632Y3378098D01*
X2192274Y3381552D01*
X2196084Y3383635D01*
X2200402Y3383889D01*
X2204466Y3382365D01*
X2207463Y3379266D01*
X2209292Y3376371D01*
X2213356Y3372307D01*
X2218283Y3369208D01*
X2223719Y3367278D01*
X2230069Y3366566D01*
X2258415Y3366566D01*
X2258415Y3419906D01*
X2198878Y3419906D01*
X2194966Y3420668D01*
X2191715Y3422853D01*
X2189480Y3426155D01*
X2188718Y3430066D01*
X2188718Y3489909D01*
X2189480Y3493820D01*
X2191715Y3497122D01*
X2194966Y3499307D01*
X2198878Y3500069D01*
X2258415Y3500069D01*
X2258415Y3553409D01*
X2241397Y3553409D01*
X2237435Y3554222D01*
X2234133Y3556457D01*
X2231948Y3559860D01*
X2231237Y3563823D01*
X2232152Y3567734D01*
X2233625Y3571036D01*
X2236063Y3580384D01*
X2236876Y3589985D01*
X2236368Y3595725D01*
X2236774Y3599535D01*
X2237689Y3602583D01*
X2238502Y3610610D01*
X2238502Y3989679D01*
X2239264Y3993591D01*
X2241499Y3996893D01*
X2256790Y4012234D01*
X2261920Y4018432D01*
X2265476Y4025137D01*
X2267661Y4032351D01*
X2268474Y4040378D01*
X2268474Y4602175D01*
X2269185Y4605985D01*
X2271318Y4609185D01*
X2274112Y4612132D01*
X2279497Y4620158D01*
X2283510Y4628946D01*
X2285898Y4638243D01*
X2286762Y4647844D01*
X2285898Y4657496D01*
X2283510Y4666792D01*
X2279497Y4675581D01*
X2274112Y4683607D01*
X2267458Y4690567D01*
X2259685Y4696307D01*
X2251049Y4700625D01*
X2241854Y4703470D01*
X2232304Y4704689D01*
X2222652Y4704283D01*
X2213203Y4702251D01*
X2204262Y4698644D01*
X2196033Y4693615D01*
X2188819Y4687265D01*
X2181961Y4678527D01*
X2178862Y4675936D01*
X2175052Y4674717D01*
X2171090Y4675124D01*
X2167534Y4677003D01*
X2161387Y4682032D01*
X2154682Y4685588D01*
X2147468Y4687773D01*
X2139442Y4688586D01*
X1965807Y4688586D01*
X1961845Y4689398D01*
X1949805Y4698390D01*
X1941169Y4702759D01*
X1931974Y4705553D01*
X1922424Y4706823D01*
X1912772Y4706366D01*
X1903323Y4704334D01*
X1894382Y4700778D01*
X1886153Y4695698D01*
X1878939Y4689348D01*
X1872843Y4681829D01*
X1868170Y4673396D01*
X1864969Y4664303D01*
X1863343Y4654804D01*
X1863343Y4645152D01*
X1864969Y4635652D01*
X1868170Y4626559D01*
X1872843Y4618126D01*
X1878939Y4610608D01*
X1886153Y4604258D01*
X1894382Y4599178D01*
X1903323Y4595622D01*
X1912772Y4593590D01*
X1922424Y4593132D01*
X1931974Y4594402D01*
X1941169Y4597196D01*
X1949805Y4601565D01*
X1961845Y4610557D01*
X1965807Y4611370D01*
X2119731Y4611370D01*
X2123643Y4610608D01*
X2126945Y4608372D01*
X2138476Y4596841D01*
X2140712Y4593539D01*
X2141474Y4589627D01*
X2141474Y4155897D01*
X2140559Y4151731D01*
X2138019Y4148277D01*
X2134311Y4146194D01*
X2130044Y4145838D01*
X2122424Y4146804D01*
X2112772Y4146397D01*
X2103323Y4144365D01*
X2094382Y4140758D01*
X2085644Y4135374D01*
X2082495Y4134104D01*
X2079040Y4133951D01*
X2075738Y4134967D01*
X2072995Y4136999D01*
X2067560Y4142689D01*
X2059838Y4148429D01*
X2051202Y4152747D01*
X2041956Y4155592D01*
X2032406Y4156811D01*
X2022754Y4156405D01*
X2013356Y4154373D01*
X2004415Y4150766D01*
X1996186Y4145737D01*
X1988921Y4139336D01*
X1982876Y4131818D01*
X1978152Y4123436D01*
X1974951Y4114342D01*
X1973325Y4104792D01*
X1973478Y4094429D01*
X1973325Y4090314D01*
X1971548Y4086606D01*
X1968449Y4083862D01*
X1964588Y4082592D01*
X1960473Y4082999D01*
X1951989Y4085590D01*
X1942439Y4086809D01*
X1932787Y4086402D01*
X1923338Y4084370D01*
X1914398Y4080764D01*
X1906168Y4075734D01*
X1898954Y4069334D01*
X1892858Y4061815D01*
X1888185Y4053433D01*
X1884984Y4044340D01*
X1883359Y4034790D01*
X1883359Y4025188D01*
X1884984Y4015638D01*
X1888185Y4006545D01*
X1892858Y3998163D01*
X1899157Y3990390D01*
X1900783Y3987393D01*
X1901393Y3984040D01*
X1901393Y3855974D01*
X1900783Y3852570D01*
X1899157Y3849573D01*
X1892858Y3841851D01*
X1888185Y3833418D01*
X1884984Y3824325D01*
X1883359Y3814826D01*
X1883359Y3805174D01*
X1884984Y3795674D01*
X1888185Y3786581D01*
X1892858Y3778148D01*
X1898954Y3770629D01*
X1906168Y3764279D01*
X1914398Y3759200D01*
X1923338Y3755644D01*
X1932787Y3753612D01*
X1942439Y3753154D01*
X1951989Y3754424D01*
X1961184Y3757218D01*
X1969820Y3761587D01*
X1975205Y3765550D01*
X1979269Y3767328D01*
X1983689Y3767226D01*
X1987651Y3765194D01*
X1990394Y3761689D01*
X1991360Y3757371D01*
X1991360Y3675938D01*
X1990801Y3672586D01*
X1989124Y3669588D01*
X1982876Y3661816D01*
X1978152Y3653434D01*
X1974951Y3644341D01*
X1973325Y3634790D01*
X1973325Y3625189D01*
X1974951Y3615639D01*
X1978152Y3606546D01*
X1982876Y3598164D01*
X1988921Y3590645D01*
X1996186Y3584244D01*
X2004364Y3579215D01*
X2013356Y3575608D01*
X2022754Y3573576D01*
X2032406Y3573170D01*
X2041956Y3574389D01*
X2051202Y3577234D01*
X2059787Y3581552D01*
X2065070Y3585464D01*
X2069134Y3587242D01*
X2073605Y3587140D01*
X2077567Y3585159D01*
X2080310Y3581603D01*
X2081275Y3577285D01*
X2081275Y3530600D01*
X2082088Y3522573D01*
X2084273Y3515360D01*
X2087829Y3508654D01*
X2092960Y3502456D01*
X2108504Y3486861D01*
X2110740Y3483559D01*
X2111502Y3479647D01*
X2111502Y3130296D01*
X2112314Y3122269D01*
X2114499Y3115056D01*
X2118055Y3108350D01*
X2123186Y3102152D01*
X2139391Y3085896D01*
X2141575Y3082645D01*
X2142337Y3078734D01*
X2141575Y3074822D01*
X2139391Y3071571D01*
X2136089Y3069336D01*
X2132177Y3068574D01*
X1660245Y3068574D01*
X1656334Y3069336D01*
X1653082Y3071520D01*
X1591513Y3132937D01*
X1589278Y3136239D01*
X1588516Y3140100D01*
X1588516Y3589528D01*
X1587703Y3597554D01*
X1585518Y3604768D01*
X1581962Y3611473D01*
X1576832Y3617671D01*
X1527505Y3666998D01*
X1521307Y3672128D01*
X1514602Y3675684D01*
X1507388Y3677869D01*
X1499362Y3678682D01*
X1060450Y3678682D01*
X1052423Y3677869D01*
X1045210Y3675684D01*
X1038504Y3672128D01*
X1032306Y3666998D01*
X982980Y3617671D01*
X977849Y3611473D01*
X974293Y3604768D01*
X972108Y3597554D01*
X971296Y3589528D01*
X971296Y2570480D01*
X972108Y2562453D01*
X974293Y2555240D01*
X977849Y2548534D01*
X982929Y2542336D01*
X1132382Y2393137D01*
X1138580Y2388057D01*
X1145286Y2384501D01*
X1152499Y2382316D01*
X1160526Y2381504D01*
X1929739Y2381504D01*
X1933651Y2380742D01*
X1936953Y2378506D01*
X2018334Y2297125D01*
X2020570Y2293823D01*
X2021332Y2289911D01*
X2021332Y1590548D01*
X2022144Y1582521D01*
X2024329Y1575308D01*
X2027885Y1568602D01*
X2033016Y1562404D01*
X2092248Y1503172D01*
X2102561Y1494739D01*
X2104339Y1490675D01*
X2104237Y1486204D01*
X2102256Y1482242D01*
X2098751Y1479499D01*
X2094382Y1478534D01*
X1435862Y1478534D01*
X1431899Y1479346D01*
X1419809Y1488440D01*
X1411173Y1492758D01*
X1401978Y1495602D01*
X1392428Y1496822D01*
X1382776Y1496415D01*
X1373327Y1494383D01*
X1364386Y1490776D01*
X1356156Y1485747D01*
X1348943Y1479346D01*
X1342847Y1471828D01*
X1338173Y1463446D01*
X1334973Y1454353D01*
X1333347Y1444802D01*
X1333347Y1435201D01*
X1334973Y1425651D01*
X1338173Y1416558D01*
X1342847Y1408176D01*
X1344269Y1406398D01*
X1345946Y1403400D01*
X1346555Y1399997D01*
X1345946Y1396644D01*
X1344269Y1393647D01*
X1342745Y1391767D01*
X1338072Y1383334D01*
X1334871Y1374241D01*
X1333246Y1364742D01*
X1333246Y1355090D01*
X1334871Y1345590D01*
X1338072Y1336497D01*
X1342745Y1328064D01*
X1348841Y1320546D01*
X1356055Y1314196D01*
X1364284Y1309116D01*
X1373225Y1305560D01*
X1382674Y1303528D01*
X1392326Y1303070D01*
X1401876Y1304340D01*
X1411071Y1307134D01*
X1417370Y1310335D01*
X1419606Y1311148D01*
X1421942Y1311402D01*
X2154174Y1311402D01*
X2157730Y1310741D01*
X2160879Y1308862D01*
X2166061Y1304290D01*
X2174290Y1299210D01*
X2183231Y1295654D01*
X2192680Y1293622D01*
X2202332Y1293164D01*
X2211882Y1294434D01*
X2221077Y1297228D01*
X2229713Y1301597D01*
X2237486Y1307338D01*
X2244140Y1314297D01*
X2249525Y1322273D01*
X2253538Y1331061D01*
X2255926Y1340408D01*
X2256790Y1350010D01*
X2255926Y1359611D01*
X2253538Y1368958D01*
X2249525Y1377746D01*
X2244140Y1385722D01*
X2240635Y1389380D01*
X2238705Y1392224D01*
X2237841Y1395577D01*
X2238146Y1398981D01*
X2243632Y1411071D01*
X2246020Y1420368D01*
X2246884Y1429969D01*
X2246020Y1439621D01*
X2243632Y1448917D01*
X2239619Y1457706D01*
X2234234Y1465732D01*
X2224125Y1476298D01*
X2222855Y1480312D01*
X2223312Y1484528D01*
X2225446Y1488135D01*
X2228850Y1490624D01*
X2232964Y1491488D01*
X3769715Y1491488D01*
X3773627Y1490726D01*
X3776929Y1488490D01*
X3969461Y1295958D01*
X3971645Y1292707D01*
X3972407Y1288796D01*
X3971645Y1284884D01*
X3969461Y1281633D01*
X3966159Y1279398D01*
X3962247Y1278636D01*
X3900424Y1278636D01*
X3892397Y1277823D01*
X3885184Y1275638D01*
X3878478Y1272082D01*
X3872280Y1266952D01*
X3822954Y1217625D01*
X3817823Y1211427D01*
X3814267Y1204722D01*
X3812082Y1197508D01*
X3811270Y1189482D01*
X3811270Y960628D01*
X3812082Y952601D01*
X3814267Y945387D01*
X3817823Y938682D01*
X3822954Y932484D01*
X3850335Y905052D01*
X3852570Y901750D01*
X3853332Y897839D01*
X3853332Y895197D01*
X3854958Y885647D01*
X3858158Y876553D01*
X3862882Y868171D01*
X3868928Y860653D01*
X3876192Y854252D01*
X3884371Y849223D01*
X3893362Y845616D01*
X3902760Y843584D01*
G37*
G36*
X1941575Y1606600D02*
G01*
X1969922Y1606600D01*
X1976272Y1607312D01*
X1981707Y1609191D01*
X1986635Y1612290D01*
X1990699Y1616405D01*
X1993798Y1621282D01*
X1995678Y1626768D01*
X1996389Y1633067D01*
X1996389Y1659889D01*
X1941575Y1659889D01*
G37*
G36*
X1941575Y1740103D02*
G01*
X1996389Y1740103D01*
X1996389Y1766925D01*
X1995678Y1773224D01*
X1993798Y1778711D01*
X1990699Y1783588D01*
X1986635Y1787702D01*
X1981707Y1790801D01*
X1976272Y1792681D01*
X1969922Y1793392D01*
X1941575Y1793392D01*
G37*
G36*
X5252415Y3723182D02*
G01*
X5261965Y3724401D01*
X5271211Y3727246D01*
X5279796Y3731564D01*
X5287568Y3737305D01*
X5294274Y3744264D01*
X5299659Y3752291D01*
X5303621Y3761079D01*
X5306060Y3770376D01*
X5306872Y3779977D01*
X5306060Y3789629D01*
X5303621Y3798925D01*
X5299659Y3807714D01*
X5294274Y3815740D01*
X5291429Y3818686D01*
X5289346Y3821887D01*
X5288635Y3825697D01*
X5288635Y4054449D01*
X5289346Y4058259D01*
X5291429Y4061460D01*
X5294172Y4064355D01*
X5299557Y4072331D01*
X5303570Y4081119D01*
X5305958Y4090466D01*
X5306822Y4100068D01*
X5305958Y4109669D01*
X5303570Y4119016D01*
X5299557Y4127804D01*
X5294172Y4135780D01*
X5287518Y4142740D01*
X5279745Y4148480D01*
X5271109Y4152849D01*
X5261914Y4155643D01*
X5252364Y4156913D01*
X5242712Y4156456D01*
X5233263Y4154424D01*
X5224322Y4150868D01*
X5216093Y4145787D01*
X5208879Y4139437D01*
X5202783Y4131919D01*
X5198110Y4123486D01*
X5194909Y4114393D01*
X5193284Y4104894D01*
X5193284Y4095242D01*
X5194909Y4085742D01*
X5198110Y4076649D01*
X5202783Y4068216D01*
X5209133Y4060393D01*
X5210810Y4057396D01*
X5211419Y4053992D01*
X5211419Y3826001D01*
X5210810Y3822598D01*
X5209133Y3819601D01*
X5202885Y3811828D01*
X5198160Y3803446D01*
X5194960Y3794353D01*
X5193334Y3784803D01*
X5193334Y3775201D01*
X5194960Y3765651D01*
X5198160Y3756558D01*
X5202885Y3748176D01*
X5208930Y3740658D01*
X5216194Y3734257D01*
X5224373Y3729228D01*
X5233365Y3725621D01*
X5242763Y3723589D01*
G37*
G36*
X3132429Y3853179D02*
G01*
X3141980Y3854399D01*
X3151174Y3857244D01*
X3159810Y3861562D01*
X3167583Y3867302D01*
X3174238Y3874262D01*
X3179622Y3882288D01*
X3183636Y3891076D01*
X3186023Y3900373D01*
X3186887Y3909974D01*
X3186023Y3919626D01*
X3183636Y3928922D01*
X3179622Y3937711D01*
X3174238Y3945737D01*
X3171444Y3948684D01*
X3169310Y3951884D01*
X3168599Y3955694D01*
X3168599Y3984294D01*
X3169310Y3988104D01*
X3171444Y3991305D01*
X3174238Y3994251D01*
X3179622Y4002278D01*
X3183636Y4011066D01*
X3186023Y4020362D01*
X3186887Y4029964D01*
X3186023Y4039615D01*
X3183636Y4048912D01*
X3179622Y4057700D01*
X3174238Y4065727D01*
X3167583Y4072686D01*
X3159810Y4078427D01*
X3151174Y4082745D01*
X3141980Y4085590D01*
X3132429Y4086809D01*
X3122777Y4086402D01*
X3113328Y4084370D01*
X3104388Y4080764D01*
X3096158Y4075734D01*
X3088944Y4069334D01*
X3082848Y4061815D01*
X3078175Y4053433D01*
X3074974Y4044340D01*
X3073349Y4034790D01*
X3073349Y4025188D01*
X3074974Y4015638D01*
X3078175Y4006545D01*
X3082848Y3998163D01*
X3089148Y3990390D01*
X3090824Y3987393D01*
X3091383Y3983990D01*
X3091383Y3955999D01*
X3090824Y3952595D01*
X3089148Y3949598D01*
X3082848Y3941826D01*
X3078175Y3933444D01*
X3074974Y3924350D01*
X3073349Y3914800D01*
X3073349Y3905199D01*
X3074974Y3895648D01*
X3078175Y3886555D01*
X3082848Y3878173D01*
X3088944Y3870655D01*
X3096158Y3864254D01*
X3104388Y3859225D01*
X3113328Y3855618D01*
X3122777Y3853586D01*
G37*
G36*
X3350564Y4121607D02*
G01*
X3429406Y4121607D01*
X3435756Y4122318D01*
X3441192Y4124198D01*
X3446119Y4127296D01*
X3450183Y4131411D01*
X3453282Y4136288D01*
X3455212Y4141774D01*
X3455924Y4148074D01*
X3455924Y4211929D01*
X3455212Y4218279D01*
X3454450Y4220413D01*
X3453892Y4223766D01*
X3455162Y4229252D01*
X3455924Y4235551D01*
X3455924Y4284421D01*
X3455162Y4290720D01*
X3453129Y4296613D01*
X3452571Y4300016D01*
X3453129Y4303369D01*
X3455162Y4309262D01*
X3455924Y4315561D01*
X3455924Y4364431D01*
X3455162Y4370730D01*
X3454450Y4372914D01*
X3453841Y4376267D01*
X3455162Y4381754D01*
X3455873Y4388053D01*
X3455873Y4451908D01*
X3455162Y4458258D01*
X3453282Y4463694D01*
X3450183Y4468622D01*
X3446068Y4472686D01*
X3441192Y4475784D01*
X3435756Y4477664D01*
X3429406Y4478375D01*
X3350564Y4478375D01*
X3344214Y4477664D01*
X3338779Y4475784D01*
X3333851Y4472686D01*
X3329787Y4468622D01*
X3326688Y4463694D01*
X3324809Y4458258D01*
X3324047Y4451908D01*
X3324047Y4388053D01*
X3324809Y4381754D01*
X3325520Y4379569D01*
X3326129Y4376216D01*
X3324809Y4370730D01*
X3324098Y4364431D01*
X3324098Y4315561D01*
X3324809Y4309262D01*
X3326841Y4303369D01*
X3327450Y4300016D01*
X3326841Y4296613D01*
X3324809Y4290720D01*
X3324098Y4284421D01*
X3324098Y4235551D01*
X3324809Y4229252D01*
X3325571Y4227068D01*
X3326129Y4223715D01*
X3324809Y4218279D01*
X3324098Y4211929D01*
X3324098Y4148074D01*
X3324809Y4141774D01*
X3326739Y4136288D01*
X3329787Y4131411D01*
X3333902Y4127296D01*
X3338779Y4124198D01*
X3344265Y4122318D01*
G37*
G36*
X3170580Y4121607D02*
G01*
X3249422Y4121607D01*
X3255772Y4122318D01*
X3261207Y4124198D01*
X3266135Y4127296D01*
X3270199Y4131360D01*
X3273298Y4136288D01*
X3275177Y4141724D01*
X3275939Y4148074D01*
X3275939Y4211929D01*
X3275177Y4218228D01*
X3274466Y4220413D01*
X3273856Y4223766D01*
X3275177Y4229252D01*
X3275888Y4235551D01*
X3275888Y4284421D01*
X3275177Y4290720D01*
X3273145Y4296613D01*
X3272536Y4299966D01*
X3273145Y4303369D01*
X3275177Y4309262D01*
X3275888Y4315561D01*
X3275888Y4364431D01*
X3275177Y4370730D01*
X3274415Y4372914D01*
X3273856Y4376267D01*
X3275177Y4381703D01*
X3275888Y4388053D01*
X3275888Y4451908D01*
X3275177Y4458208D01*
X3273247Y4463694D01*
X3270199Y4468571D01*
X3266084Y4472686D01*
X3261207Y4475784D01*
X3255721Y4477664D01*
X3249422Y4478375D01*
X3170580Y4478375D01*
X3164230Y4477664D01*
X3158794Y4475784D01*
X3153867Y4472686D01*
X3149803Y4468571D01*
X3146704Y4463694D01*
X3144774Y4458208D01*
X3144062Y4451908D01*
X3144062Y4411878D01*
X3143758Y4409287D01*
X3142792Y4406900D01*
X3138170Y4398619D01*
X3134969Y4389526D01*
X3133344Y4380026D01*
X3133344Y4370374D01*
X3134969Y4360875D01*
X3138170Y4351782D01*
X3142792Y4343501D01*
X3143758Y4341063D01*
X3144113Y4338523D01*
X3144113Y4315561D01*
X3144824Y4309262D01*
X3146856Y4303369D01*
X3147415Y4299966D01*
X3146856Y4296613D01*
X3144824Y4290720D01*
X3144113Y4284421D01*
X3144113Y4235551D01*
X3144824Y4229252D01*
X3145536Y4227068D01*
X3146145Y4223715D01*
X3144824Y4218228D01*
X3144113Y4211929D01*
X3144113Y4148074D01*
X3144824Y4141724D01*
X3146704Y4136288D01*
X3149803Y4131360D01*
X3153918Y4127296D01*
X3158794Y4124198D01*
X3164230Y4122318D01*
G37*
G36*
X3842410Y4563160D02*
G01*
X3851960Y4564430D01*
X3861155Y4567224D01*
X3869791Y4571593D01*
X3881831Y4580585D01*
X3885793Y4581398D01*
X3914394Y4581398D01*
X3917950Y4580737D01*
X3921099Y4578858D01*
X3926281Y4574286D01*
X3934510Y4569206D01*
X3943451Y4565650D01*
X3952900Y4563618D01*
X3962552Y4563160D01*
X3972102Y4564430D01*
X3981297Y4567224D01*
X3989933Y4571593D01*
X3997706Y4577334D01*
X4004360Y4584293D01*
X4009745Y4592269D01*
X4013758Y4601057D01*
X4016146Y4610404D01*
X4017010Y4620006D01*
X4016146Y4629607D01*
X4013758Y4638954D01*
X4009745Y4647742D01*
X4004360Y4655718D01*
X3997706Y4662678D01*
X3989933Y4668418D01*
X3981297Y4672787D01*
X3972102Y4675581D01*
X3962552Y4676851D01*
X3952900Y4676394D01*
X3943451Y4674362D01*
X3934510Y4670806D01*
X3926281Y4665726D01*
X3921099Y4661154D01*
X3917950Y4659274D01*
X3914394Y4658614D01*
X3885793Y4658614D01*
X3881831Y4659426D01*
X3869791Y4668418D01*
X3861155Y4672787D01*
X3851960Y4675581D01*
X3842410Y4676851D01*
X3832758Y4676394D01*
X3823309Y4674362D01*
X3814368Y4670806D01*
X3806139Y4665726D01*
X3798925Y4659376D01*
X3792829Y4651857D01*
X3788156Y4643424D01*
X3784955Y4634331D01*
X3783329Y4624832D01*
X3783329Y4615180D01*
X3784955Y4605680D01*
X3788156Y4596587D01*
X3792829Y4588154D01*
X3798925Y4580636D01*
X3806139Y4574286D01*
X3814368Y4569206D01*
X3823309Y4565650D01*
X3832758Y4563618D01*
G37*
G36*
X3968851Y4880000D02*
G01*
X3987444Y4880000D01*
X3993743Y4880711D01*
X3999229Y4882591D01*
X4004106Y4885690D01*
X4008221Y4889754D01*
X4011269Y4894681D01*
X4013200Y4900117D01*
X4013911Y4906467D01*
X4013911Y4957064D01*
X3968851Y4957064D01*
G37*
G36*
X5746851Y4880000D02*
G01*
X5765444Y4880000D01*
X5771743Y4880711D01*
X5777230Y4882591D01*
X5782106Y4885690D01*
X5786221Y4889754D01*
X5789269Y4894681D01*
X5791200Y4900117D01*
X5791911Y4906467D01*
X5791911Y4957064D01*
X5746851Y4957064D01*
G37*
G36*
X3886555Y4880000D02*
G01*
X3905148Y4880000D01*
X3905148Y4957064D01*
X3860088Y4957064D01*
X3860088Y4906467D01*
X3860800Y4900117D01*
X3862730Y4894681D01*
X3865778Y4889754D01*
X3869893Y4885690D01*
X3874770Y4882591D01*
X3880256Y4880711D01*
G37*
G36*
X1936851Y4880000D02*
G01*
X1955444Y4880000D01*
X1961743Y4880711D01*
X1967230Y4882591D01*
X1972106Y4885690D01*
X1976221Y4889754D01*
X1979269Y4894681D01*
X1981200Y4900117D01*
X1981911Y4906467D01*
X1981911Y4957064D01*
X1936851Y4957064D01*
G37*
G36*
X5664555Y4880000D02*
G01*
X5683148Y4880000D01*
X5683148Y4957064D01*
X5638088Y4957064D01*
X5638088Y4906467D01*
X5638800Y4900117D01*
X5640730Y4894681D01*
X5643778Y4889754D01*
X5647893Y4885690D01*
X5652770Y4882591D01*
X5658256Y4880711D01*
G37*
G36*
X1854555Y4880000D02*
G01*
X1873148Y4880000D01*
X1873148Y4957064D01*
X1828088Y4957064D01*
X1828088Y4906467D01*
X1828800Y4900117D01*
X1830730Y4894681D01*
X1833778Y4889754D01*
X1837893Y4885690D01*
X1842770Y4882591D01*
X1848256Y4880711D01*
G37*
G36*
X1092555Y4880000D02*
G01*
X1193444Y4880000D01*
X1199743Y4880711D01*
X1205230Y4882591D01*
X1210106Y4885690D01*
X1214221Y4889754D01*
X1217269Y4894681D01*
X1219200Y4900117D01*
X1219911Y4906467D01*
X1219911Y5135321D01*
X1219200Y5141620D01*
X1217269Y5147106D01*
X1214221Y5151983D01*
X1210106Y5156098D01*
X1205230Y5159197D01*
X1199743Y5161076D01*
X1193444Y5161788D01*
X1092555Y5161788D01*
X1086256Y5161076D01*
X1080770Y5159197D01*
X1075893Y5156098D01*
X1071778Y5151983D01*
X1068730Y5147106D01*
X1066800Y5141620D01*
X1066088Y5135321D01*
X1066088Y4906467D01*
X1066800Y4900117D01*
X1068730Y4894681D01*
X1071778Y4889754D01*
X1075893Y4885690D01*
X1080770Y4882591D01*
X1086256Y4880711D01*
G37*
G36*
X1346555Y4880000D02*
G01*
X1447444Y4880000D01*
X1453743Y4880711D01*
X1459230Y4882591D01*
X1464106Y4885690D01*
X1468221Y4889754D01*
X1471269Y4894681D01*
X1473200Y4900117D01*
X1473911Y4906467D01*
X1473911Y5135321D01*
X1473200Y5141620D01*
X1471269Y5147106D01*
X1468221Y5151983D01*
X1464106Y5156098D01*
X1459230Y5159197D01*
X1453743Y5161076D01*
X1447444Y5161788D01*
X1346555Y5161788D01*
X1340256Y5161076D01*
X1334770Y5159197D01*
X1329893Y5156098D01*
X1325778Y5151983D01*
X1322730Y5147106D01*
X1320800Y5141620D01*
X1320088Y5135321D01*
X1320088Y4906467D01*
X1320800Y4900117D01*
X1322730Y4894681D01*
X1325778Y4889754D01*
X1329893Y4885690D01*
X1334770Y4882591D01*
X1340256Y4880711D01*
G37*
G36*
X1600555Y4880000D02*
G01*
X1701444Y4880000D01*
X1707743Y4880711D01*
X1713230Y4882591D01*
X1718106Y4885690D01*
X1722221Y4889754D01*
X1725269Y4894681D01*
X1727200Y4900117D01*
X1727911Y4906467D01*
X1727911Y5135321D01*
X1727200Y5141620D01*
X1725269Y5147106D01*
X1722221Y5151983D01*
X1718106Y5156098D01*
X1713230Y5159197D01*
X1707743Y5161076D01*
X1701444Y5161788D01*
X1600555Y5161788D01*
X1594256Y5161076D01*
X1588770Y5159197D01*
X1583893Y5156098D01*
X1579778Y5151983D01*
X1576730Y5147106D01*
X1574800Y5141620D01*
X1574088Y5135321D01*
X1574088Y4906467D01*
X1574800Y4900117D01*
X1576730Y4894681D01*
X1579778Y4889754D01*
X1583893Y4885690D01*
X1588770Y4882591D01*
X1594256Y4880711D01*
G37*
G36*
X838555Y4880000D02*
G01*
X939444Y4880000D01*
X945743Y4880711D01*
X951230Y4882591D01*
X956106Y4885690D01*
X960221Y4889754D01*
X963269Y4894681D01*
X965200Y4900117D01*
X965911Y4906467D01*
X965911Y5135321D01*
X965200Y5141620D01*
X963269Y5147106D01*
X960221Y5151983D01*
X956106Y5156098D01*
X951230Y5159197D01*
X945743Y5161076D01*
X939444Y5161788D01*
X838555Y5161788D01*
X832256Y5161076D01*
X826769Y5159197D01*
X821893Y5156098D01*
X817778Y5151983D01*
X814730Y5147106D01*
X812800Y5141620D01*
X812088Y5135321D01*
X812088Y4906467D01*
X812800Y4900117D01*
X814730Y4894681D01*
X817778Y4889754D01*
X821893Y4885690D01*
X826769Y4882591D01*
X832256Y4880711D01*
G37*
G36*
X4140555Y4880000D02*
G01*
X4241444Y4880000D01*
X4247743Y4880711D01*
X4253230Y4882591D01*
X4258106Y4885690D01*
X4262221Y4889754D01*
X4265269Y4894681D01*
X4267200Y4900117D01*
X4267911Y4906467D01*
X4267911Y5135321D01*
X4267200Y5141620D01*
X4265269Y5147106D01*
X4262221Y5151983D01*
X4258106Y5156098D01*
X4253230Y5159197D01*
X4247743Y5161076D01*
X4241444Y5161788D01*
X4140555Y5161788D01*
X4134256Y5161076D01*
X4128770Y5159197D01*
X4123893Y5156098D01*
X4119778Y5151983D01*
X4116730Y5147106D01*
X4114800Y5141620D01*
X4114088Y5135321D01*
X4114088Y4906467D01*
X4114800Y4900117D01*
X4116730Y4894681D01*
X4119778Y4889754D01*
X4123893Y4885690D01*
X4128770Y4882591D01*
X4134256Y4880711D01*
G37*
G36*
X4394555Y4880000D02*
G01*
X4495444Y4880000D01*
X4501743Y4880711D01*
X4507230Y4882591D01*
X4512106Y4885690D01*
X4516221Y4889754D01*
X4519269Y4894681D01*
X4521200Y4900117D01*
X4521911Y4906467D01*
X4521911Y5135321D01*
X4521200Y5141620D01*
X4519269Y5147106D01*
X4516221Y5151983D01*
X4512106Y5156098D01*
X4507230Y5159197D01*
X4501743Y5161076D01*
X4495444Y5161788D01*
X4394555Y5161788D01*
X4388256Y5161076D01*
X4382770Y5159197D01*
X4377893Y5156098D01*
X4373778Y5151983D01*
X4370730Y5147106D01*
X4368800Y5141620D01*
X4368088Y5135321D01*
X4368088Y4906467D01*
X4368800Y4900117D01*
X4370730Y4894681D01*
X4373778Y4889754D01*
X4377893Y4885690D01*
X4382770Y4882591D01*
X4388256Y4880711D01*
G37*
G36*
X4648555Y4880000D02*
G01*
X4749444Y4880000D01*
X4755743Y4880711D01*
X4761230Y4882591D01*
X4766106Y4885690D01*
X4770221Y4889754D01*
X4773269Y4894681D01*
X4775200Y4900117D01*
X4775911Y4906467D01*
X4775911Y5135321D01*
X4775200Y5141620D01*
X4773269Y5147106D01*
X4770221Y5151983D01*
X4766106Y5156098D01*
X4761230Y5159197D01*
X4755743Y5161076D01*
X4749444Y5161788D01*
X4648555Y5161788D01*
X4642256Y5161076D01*
X4636770Y5159197D01*
X4631893Y5156098D01*
X4627778Y5151983D01*
X4624730Y5147106D01*
X4622800Y5141620D01*
X4622088Y5135321D01*
X4622088Y4906467D01*
X4622800Y4900117D01*
X4624730Y4894681D01*
X4627778Y4889754D01*
X4631893Y4885690D01*
X4636770Y4882591D01*
X4642256Y4880711D01*
G37*
G36*
X3632555Y4880000D02*
G01*
X3733444Y4880000D01*
X3739743Y4880711D01*
X3745229Y4882591D01*
X3750106Y4885690D01*
X3754221Y4889754D01*
X3757269Y4894681D01*
X3759200Y4900117D01*
X3759911Y4906467D01*
X3759911Y5135321D01*
X3759200Y5141620D01*
X3757269Y5147106D01*
X3754221Y5151983D01*
X3750106Y5156098D01*
X3745229Y5159197D01*
X3739743Y5161076D01*
X3733444Y5161788D01*
X3632555Y5161788D01*
X3626256Y5161076D01*
X3620770Y5159197D01*
X3615893Y5156098D01*
X3611778Y5151983D01*
X3608730Y5147106D01*
X3606800Y5141620D01*
X3606088Y5135321D01*
X3606088Y4906467D01*
X3606800Y4900117D01*
X3608730Y4894681D01*
X3611778Y4889754D01*
X3615893Y4885690D01*
X3620770Y4882591D01*
X3626256Y4880711D01*
G37*
G36*
X2870555Y4880000D02*
G01*
X2971444Y4880000D01*
X2977743Y4880711D01*
X2983230Y4882591D01*
X2988106Y4885690D01*
X2992221Y4889754D01*
X2995269Y4894681D01*
X2997200Y4900117D01*
X2997911Y4906467D01*
X2997911Y5135321D01*
X2997200Y5141620D01*
X2995269Y5147106D01*
X2992221Y5151983D01*
X2988106Y5156098D01*
X2983230Y5159197D01*
X2977743Y5161076D01*
X2971444Y5161788D01*
X2870555Y5161788D01*
X2864256Y5161076D01*
X2858770Y5159197D01*
X2853893Y5156098D01*
X2849778Y5151983D01*
X2846730Y5147106D01*
X2844800Y5141620D01*
X2844088Y5135321D01*
X2844088Y4906467D01*
X2844800Y4900117D01*
X2846730Y4894681D01*
X2849778Y4889754D01*
X2853893Y4885690D01*
X2858770Y4882591D01*
X2864256Y4880711D01*
G37*
G36*
X3124555Y4880000D02*
G01*
X3225444Y4880000D01*
X3231743Y4880711D01*
X3237230Y4882591D01*
X3242106Y4885690D01*
X3246221Y4889754D01*
X3249269Y4894681D01*
X3251200Y4900117D01*
X3251911Y4906467D01*
X3251911Y5135321D01*
X3251200Y5141620D01*
X3249269Y5147106D01*
X3246221Y5151983D01*
X3242106Y5156098D01*
X3237230Y5159197D01*
X3231743Y5161076D01*
X3225444Y5161788D01*
X3124555Y5161788D01*
X3118256Y5161076D01*
X3112770Y5159197D01*
X3107893Y5156098D01*
X3103778Y5151983D01*
X3100730Y5147106D01*
X3098800Y5141620D01*
X3098088Y5135321D01*
X3098088Y4906467D01*
X3098800Y4900117D01*
X3100730Y4894681D01*
X3103778Y4889754D01*
X3107893Y4885690D01*
X3112770Y4882591D01*
X3118256Y4880711D01*
G37*
G36*
X5156555Y4880000D02*
G01*
X5257444Y4880000D01*
X5263743Y4880711D01*
X5269230Y4882591D01*
X5274106Y4885690D01*
X5278221Y4889754D01*
X5281269Y4894681D01*
X5283200Y4900117D01*
X5283911Y4906467D01*
X5283911Y5135321D01*
X5283200Y5141620D01*
X5281269Y5147106D01*
X5278221Y5151983D01*
X5274106Y5156098D01*
X5269230Y5159197D01*
X5263743Y5161076D01*
X5257444Y5161788D01*
X5156555Y5161788D01*
X5150256Y5161076D01*
X5144770Y5159197D01*
X5139893Y5156098D01*
X5135778Y5151983D01*
X5132730Y5147106D01*
X5130800Y5141620D01*
X5130088Y5135321D01*
X5130088Y4906467D01*
X5130800Y4900117D01*
X5132730Y4894681D01*
X5135778Y4889754D01*
X5139893Y4885690D01*
X5144770Y4882591D01*
X5150256Y4880711D01*
G37*
G36*
X5410555Y4880000D02*
G01*
X5511444Y4880000D01*
X5517743Y4880711D01*
X5523230Y4882591D01*
X5528106Y4885690D01*
X5532221Y4889754D01*
X5535269Y4894681D01*
X5537200Y4900117D01*
X5537911Y4906467D01*
X5537911Y5135321D01*
X5537200Y5141620D01*
X5535269Y5147106D01*
X5532221Y5151983D01*
X5528106Y5156098D01*
X5523230Y5159197D01*
X5517743Y5161076D01*
X5511444Y5161788D01*
X5410555Y5161788D01*
X5404256Y5161076D01*
X5398770Y5159197D01*
X5393893Y5156098D01*
X5389778Y5151983D01*
X5386730Y5147106D01*
X5384800Y5141620D01*
X5384088Y5135321D01*
X5384088Y4906467D01*
X5384800Y4900117D01*
X5386730Y4894681D01*
X5389778Y4889754D01*
X5393893Y4885690D01*
X5398770Y4882591D01*
X5404256Y4880711D01*
G37*
G36*
X4902555Y4880000D02*
G01*
X5003444Y4880000D01*
X5009743Y4880711D01*
X5015230Y4882591D01*
X5020106Y4885690D01*
X5024221Y4889754D01*
X5027269Y4894681D01*
X5029200Y4900117D01*
X5029911Y4906467D01*
X5029911Y5135321D01*
X5029200Y5141620D01*
X5027269Y5147106D01*
X5024221Y5151983D01*
X5020106Y5156098D01*
X5015230Y5159197D01*
X5009743Y5161076D01*
X5003444Y5161788D01*
X4902555Y5161788D01*
X4896256Y5161076D01*
X4890770Y5159197D01*
X4885893Y5156098D01*
X4881778Y5151983D01*
X4878730Y5147106D01*
X4876800Y5141620D01*
X4876088Y5135321D01*
X4876088Y4906467D01*
X4876800Y4900117D01*
X4878730Y4894681D01*
X4881778Y4889754D01*
X4885893Y4885690D01*
X4890770Y4882591D01*
X4896256Y4880711D01*
G37*
G36*
X3378555Y4880000D02*
G01*
X3479444Y4880000D01*
X3485743Y4880711D01*
X3491229Y4882591D01*
X3496106Y4885690D01*
X3500221Y4889754D01*
X3503269Y4894681D01*
X3505200Y4900117D01*
X3505911Y4906467D01*
X3505911Y5135321D01*
X3505200Y5141620D01*
X3503269Y5147106D01*
X3500221Y5151983D01*
X3496106Y5156098D01*
X3491229Y5159197D01*
X3485743Y5161076D01*
X3479444Y5161788D01*
X3378555Y5161788D01*
X3372256Y5161076D01*
X3366770Y5159197D01*
X3361893Y5156098D01*
X3357778Y5151983D01*
X3354730Y5147106D01*
X3352800Y5141620D01*
X3352088Y5135321D01*
X3352088Y4906467D01*
X3352800Y4900117D01*
X3354730Y4894681D01*
X3357778Y4889754D01*
X3361893Y4885690D01*
X3366770Y4882591D01*
X3372256Y4880711D01*
G37*
G36*
X6197600Y5057292D02*
G01*
X6218428Y5058257D01*
X6239103Y5061153D01*
X6259423Y5065928D01*
X6279184Y5072583D01*
X6298285Y5081016D01*
X6316522Y5091125D01*
X6333744Y5102961D01*
X6349796Y5116271D01*
X6364528Y5131003D01*
X6377889Y5147056D01*
X6389674Y5164277D01*
X6399834Y5182514D01*
X6408267Y5201615D01*
X6414871Y5221376D01*
X6419646Y5241696D01*
X6422542Y5262372D01*
X6423507Y5283200D01*
X6422542Y5304028D01*
X6419646Y5324703D01*
X6414871Y5345023D01*
X6408267Y5364835D01*
X6399834Y5383885D01*
X6389674Y5402122D01*
X6377889Y5419344D01*
X6364528Y5435396D01*
X6349796Y5450128D01*
X6333744Y5463489D01*
X6316522Y5475274D01*
X6298285Y5485434D01*
X6279184Y5493867D01*
X6259423Y5500471D01*
X6239103Y5505246D01*
X6218428Y5508142D01*
X6197600Y5509107D01*
X6176772Y5508142D01*
X6156096Y5505246D01*
X6135776Y5500471D01*
X6116015Y5493867D01*
X6096914Y5485434D01*
X6078677Y5475274D01*
X6061456Y5463489D01*
X6045403Y5450128D01*
X6030671Y5435396D01*
X6017310Y5419344D01*
X6005525Y5402122D01*
X5995365Y5383885D01*
X5986983Y5364835D01*
X5980328Y5345023D01*
X5975553Y5324703D01*
X5972657Y5304028D01*
X5971692Y5283200D01*
X5972657Y5262372D01*
X5975553Y5241696D01*
X5980328Y5221376D01*
X5986983Y5201615D01*
X5995365Y5182514D01*
X6005525Y5164277D01*
X6017310Y5147056D01*
X6030671Y5131003D01*
X6045403Y5116271D01*
X6061456Y5102961D01*
X6078677Y5091125D01*
X6096914Y5081016D01*
X6116015Y5072583D01*
X6135776Y5065928D01*
X6156096Y5061153D01*
X6176772Y5058257D01*
G37*
G36*
X406400Y5057292D02*
G01*
X427228Y5058257D01*
X447903Y5061153D01*
X468223Y5065928D01*
X487984Y5072583D01*
X507085Y5081016D01*
X525322Y5091125D01*
X542544Y5102961D01*
X558596Y5116271D01*
X573328Y5131003D01*
X586689Y5147056D01*
X598474Y5164277D01*
X608634Y5182514D01*
X617067Y5201615D01*
X623671Y5221376D01*
X628446Y5241696D01*
X631342Y5262372D01*
X632307Y5283200D01*
X631342Y5304028D01*
X628446Y5324703D01*
X623671Y5345023D01*
X617067Y5364835D01*
X608634Y5383885D01*
X598474Y5402122D01*
X586689Y5419344D01*
X573328Y5435396D01*
X558596Y5450128D01*
X542544Y5463489D01*
X525322Y5475274D01*
X507085Y5485434D01*
X487984Y5493867D01*
X468223Y5500471D01*
X447903Y5505246D01*
X427228Y5508142D01*
X406400Y5509107D01*
X385572Y5508142D01*
X364896Y5505246D01*
X344576Y5500471D01*
X324815Y5493867D01*
X305714Y5485434D01*
X287477Y5475274D01*
X270256Y5463489D01*
X254203Y5450128D01*
X239471Y5435396D01*
X226110Y5419344D01*
X214325Y5402122D01*
X204165Y5383885D01*
X195783Y5364835D01*
X189128Y5345023D01*
X184353Y5324703D01*
X181457Y5304028D01*
X180492Y5283200D01*
X181457Y5262372D01*
X184353Y5241696D01*
X189128Y5221376D01*
X195783Y5201615D01*
X204165Y5182514D01*
X214325Y5164277D01*
X226110Y5147056D01*
X239471Y5131003D01*
X254203Y5116271D01*
X270256Y5102961D01*
X287477Y5091125D01*
X305714Y5081016D01*
X324815Y5072583D01*
X344576Y5065928D01*
X364896Y5061153D01*
X385572Y5058257D01*
G37*
G36*
X1828088Y5084724D02*
G01*
X1873148Y5084724D01*
X1873148Y5161788D01*
X1854555Y5161788D01*
X1848256Y5161076D01*
X1842770Y5159197D01*
X1837893Y5156098D01*
X1833778Y5151983D01*
X1830730Y5147106D01*
X1828800Y5141620D01*
X1828088Y5135321D01*
G37*
G36*
X3968851Y5084724D02*
G01*
X4013911Y5084724D01*
X4013911Y5135321D01*
X4013200Y5141620D01*
X4011269Y5147106D01*
X4008221Y5151983D01*
X4004106Y5156098D01*
X3999229Y5159197D01*
X3993743Y5161076D01*
X3987444Y5161788D01*
X3968851Y5161788D01*
G37*
G36*
X5638088Y5084724D02*
G01*
X5683148Y5084724D01*
X5683148Y5161788D01*
X5664555Y5161788D01*
X5658256Y5161076D01*
X5652770Y5159197D01*
X5647893Y5156098D01*
X5643778Y5151983D01*
X5640730Y5147106D01*
X5638800Y5141620D01*
X5638088Y5135321D01*
G37*
G36*
X3860088Y5084724D02*
G01*
X3905148Y5084724D01*
X3905148Y5161788D01*
X3886555Y5161788D01*
X3880256Y5161076D01*
X3874770Y5159197D01*
X3869893Y5156098D01*
X3865778Y5151983D01*
X3862730Y5147106D01*
X3860800Y5141620D01*
X3860088Y5135321D01*
G37*
G36*
X5746851Y5084724D02*
G01*
X5791911Y5084724D01*
X5791911Y5135321D01*
X5791200Y5141620D01*
X5789269Y5147106D01*
X5786221Y5151983D01*
X5782106Y5156098D01*
X5777230Y5159197D01*
X5771743Y5161076D01*
X5765444Y5161788D01*
X5746851Y5161788D01*
G37*
G36*
X1936851Y5084724D02*
G01*
X1981911Y5084724D01*
X1981911Y5135321D01*
X1981200Y5141620D01*
X1979269Y5147106D01*
X1976221Y5151983D01*
X1972106Y5156098D01*
X1967230Y5159197D01*
X1961743Y5161076D01*
X1955444Y5161788D01*
X1936851Y5161788D01*
G37*
G36*
X1019251Y5204968D02*
G01*
X1031900Y5206288D01*
X1044194Y5209336D01*
X1055928Y5214061D01*
X1066901Y5220411D01*
X1076909Y5228234D01*
X1085748Y5237378D01*
X1093165Y5247589D01*
X1099108Y5258816D01*
X1103477Y5270703D01*
X1106119Y5283149D01*
X1106982Y5295747D01*
X1106119Y5308396D01*
X1103477Y5320842D01*
X1099108Y5332730D01*
X1093165Y5343956D01*
X1085748Y5354167D01*
X1076909Y5363311D01*
X1066800Y5371236D01*
X1055827Y5377535D01*
X1044092Y5382310D01*
X1031798Y5385358D01*
X1019149Y5386679D01*
X1006500Y5386273D01*
X994003Y5384038D01*
X981964Y5380126D01*
X970534Y5374589D01*
X960069Y5367477D01*
X950620Y5358993D01*
X942492Y5349290D01*
X935736Y5338521D01*
X930605Y5326938D01*
X927100Y5314746D01*
X925321Y5302199D01*
X925321Y5289550D01*
X927100Y5277002D01*
X930605Y5264810D01*
X935736Y5253228D01*
X942492Y5242458D01*
X950620Y5232755D01*
X960170Y5224170D01*
X970635Y5217058D01*
X982065Y5211521D01*
X994105Y5207609D01*
X1006602Y5205374D01*
G37*
G36*
X5591251Y5204968D02*
G01*
X5603900Y5206288D01*
X5616194Y5209336D01*
X5627928Y5214061D01*
X5638901Y5220411D01*
X5648909Y5228234D01*
X5657748Y5237378D01*
X5665165Y5247589D01*
X5671108Y5258816D01*
X5675477Y5270703D01*
X5678119Y5283149D01*
X5678982Y5295747D01*
X5678119Y5308396D01*
X5675477Y5320842D01*
X5671108Y5332730D01*
X5665165Y5343956D01*
X5657748Y5354167D01*
X5648909Y5363311D01*
X5638800Y5371236D01*
X5627827Y5377535D01*
X5616092Y5382310D01*
X5603798Y5385358D01*
X5591149Y5386679D01*
X5578500Y5386273D01*
X5566003Y5384038D01*
X5553964Y5380126D01*
X5542534Y5374589D01*
X5532069Y5367477D01*
X5522620Y5358993D01*
X5514492Y5349290D01*
X5507736Y5338521D01*
X5502605Y5326938D01*
X5499100Y5314746D01*
X5497322Y5302199D01*
X5497322Y5289550D01*
X5499100Y5277002D01*
X5502605Y5264810D01*
X5507736Y5253228D01*
X5514492Y5242458D01*
X5522620Y5232755D01*
X5532170Y5224170D01*
X5542635Y5217058D01*
X5554065Y5211521D01*
X5566105Y5207609D01*
X5578602Y5205374D01*
G37*
G36*
X1346555Y5430012D02*
G01*
X1365148Y5430012D01*
X1365148Y5507075D01*
X1320088Y5507075D01*
X1320088Y5456478D01*
X1320800Y5450179D01*
X1322730Y5444693D01*
X1325778Y5439816D01*
X1329893Y5435701D01*
X1334770Y5432602D01*
X1340256Y5430723D01*
G37*
G36*
X1428851Y5430012D02*
G01*
X1447444Y5430012D01*
X1453743Y5430723D01*
X1459230Y5432602D01*
X1464106Y5435701D01*
X1468221Y5439816D01*
X1471269Y5444693D01*
X1473200Y5450179D01*
X1473911Y5456478D01*
X1473911Y5507075D01*
X1428851Y5507075D01*
G37*
G36*
X3124555Y5430012D02*
G01*
X3143148Y5430012D01*
X3143148Y5507075D01*
X3098088Y5507075D01*
X3098088Y5456478D01*
X3098800Y5450179D01*
X3100730Y5444693D01*
X3103778Y5439816D01*
X3107893Y5435701D01*
X3112770Y5432602D01*
X3118256Y5430723D01*
G37*
G36*
X2444851Y5430012D02*
G01*
X2463444Y5430012D01*
X2469743Y5430723D01*
X2475230Y5432602D01*
X2480106Y5435701D01*
X2484221Y5439816D01*
X2487269Y5444693D01*
X2489200Y5450179D01*
X2489911Y5456478D01*
X2489911Y5507075D01*
X2444851Y5507075D01*
G37*
G36*
X3206851Y5430012D02*
G01*
X3225444Y5430012D01*
X3231743Y5430723D01*
X3237230Y5432602D01*
X3242106Y5435701D01*
X3246221Y5439816D01*
X3249269Y5444693D01*
X3251200Y5450179D01*
X3251911Y5456478D01*
X3251911Y5507075D01*
X3206851Y5507075D01*
G37*
G36*
X2362555Y5430012D02*
G01*
X2381148Y5430012D01*
X2381148Y5507075D01*
X2336088Y5507075D01*
X2336088Y5456478D01*
X2336800Y5450179D01*
X2338730Y5444693D01*
X2341778Y5439816D01*
X2345893Y5435701D01*
X2350770Y5432602D01*
X2356256Y5430723D01*
G37*
G36*
X4984851Y5430012D02*
G01*
X5003444Y5430012D01*
X5009743Y5430723D01*
X5015230Y5432602D01*
X5020106Y5435701D01*
X5024221Y5439816D01*
X5027269Y5444693D01*
X5029200Y5450179D01*
X5029911Y5456478D01*
X5029911Y5507075D01*
X4984851Y5507075D01*
G37*
G36*
X4394555Y5430012D02*
G01*
X4413148Y5430012D01*
X4413148Y5507075D01*
X4368088Y5507075D01*
X4368088Y5456478D01*
X4368800Y5450179D01*
X4370730Y5444693D01*
X4373778Y5439816D01*
X4377893Y5435701D01*
X4382770Y5432602D01*
X4388256Y5430723D01*
G37*
G36*
X4476851Y5430012D02*
G01*
X4495444Y5430012D01*
X4501743Y5430723D01*
X4507230Y5432602D01*
X4512106Y5435701D01*
X4516221Y5439816D01*
X4519269Y5444693D01*
X4521200Y5450179D01*
X4521911Y5456478D01*
X4521911Y5507075D01*
X4476851Y5507075D01*
G37*
G36*
X4902555Y5430012D02*
G01*
X4921148Y5430012D01*
X4921148Y5507075D01*
X4876088Y5507075D01*
X4876088Y5456478D01*
X4876800Y5450179D01*
X4878730Y5444693D01*
X4881778Y5439816D01*
X4885893Y5435701D01*
X4890770Y5432602D01*
X4896256Y5430723D01*
G37*
G36*
X1600555Y5430012D02*
G01*
X1701444Y5430012D01*
X1707743Y5430723D01*
X1713230Y5432602D01*
X1718106Y5435701D01*
X1722221Y5439816D01*
X1725269Y5444693D01*
X1727200Y5450179D01*
X1727911Y5456478D01*
X1727911Y5685332D01*
X1727200Y5691632D01*
X1725269Y5697118D01*
X1722221Y5701995D01*
X1718106Y5706110D01*
X1713230Y5709208D01*
X1707743Y5711088D01*
X1701444Y5711799D01*
X1600555Y5711799D01*
X1594256Y5711088D01*
X1588770Y5709208D01*
X1583893Y5706110D01*
X1579778Y5701995D01*
X1576730Y5697118D01*
X1574800Y5691632D01*
X1574088Y5685332D01*
X1574088Y5456478D01*
X1574800Y5450179D01*
X1576730Y5444693D01*
X1579778Y5439816D01*
X1583893Y5435701D01*
X1588770Y5432602D01*
X1594256Y5430723D01*
G37*
G36*
X838555Y5430012D02*
G01*
X939444Y5430012D01*
X945743Y5430723D01*
X951230Y5432602D01*
X956106Y5435701D01*
X960221Y5439816D01*
X963269Y5444693D01*
X965200Y5450179D01*
X965911Y5456478D01*
X965911Y5685332D01*
X965200Y5691682D01*
X963269Y5697118D01*
X960221Y5702046D01*
X956106Y5706110D01*
X951230Y5709208D01*
X945743Y5711088D01*
X939444Y5711799D01*
X838555Y5711799D01*
X832256Y5711088D01*
X826769Y5709208D01*
X821893Y5706110D01*
X817778Y5702046D01*
X814730Y5697118D01*
X812800Y5691682D01*
X812088Y5685332D01*
X812088Y5456478D01*
X812800Y5450179D01*
X814730Y5444693D01*
X817778Y5439816D01*
X821893Y5435701D01*
X826769Y5432602D01*
X832256Y5430723D01*
G37*
G36*
X1092555Y5430012D02*
G01*
X1193444Y5430012D01*
X1199743Y5430723D01*
X1205230Y5432602D01*
X1210106Y5435701D01*
X1214221Y5439816D01*
X1217269Y5444693D01*
X1219200Y5450179D01*
X1219911Y5456478D01*
X1219911Y5685332D01*
X1219200Y5691632D01*
X1217269Y5697118D01*
X1214221Y5701995D01*
X1210106Y5706110D01*
X1205230Y5709208D01*
X1199743Y5711088D01*
X1193444Y5711799D01*
X1092555Y5711799D01*
X1086256Y5711088D01*
X1080770Y5709208D01*
X1075893Y5706110D01*
X1071778Y5701995D01*
X1068730Y5697118D01*
X1066800Y5691632D01*
X1066088Y5685332D01*
X1066088Y5456478D01*
X1066800Y5450179D01*
X1068730Y5444693D01*
X1071778Y5439816D01*
X1075893Y5435701D01*
X1080770Y5432602D01*
X1086256Y5430723D01*
G37*
G36*
X2108555Y5430012D02*
G01*
X2209444Y5430012D01*
X2215743Y5430723D01*
X2221230Y5432602D01*
X2226106Y5435701D01*
X2230221Y5439816D01*
X2233269Y5444693D01*
X2235200Y5450179D01*
X2235911Y5456478D01*
X2235911Y5685332D01*
X2235200Y5691632D01*
X2233269Y5697118D01*
X2230221Y5701995D01*
X2226106Y5706110D01*
X2221230Y5709208D01*
X2215743Y5711088D01*
X2209444Y5711799D01*
X2108555Y5711799D01*
X2102256Y5711088D01*
X2096770Y5709208D01*
X2091893Y5706110D01*
X2087778Y5701995D01*
X2084730Y5697118D01*
X2082800Y5691632D01*
X2082088Y5685332D01*
X2082088Y5456478D01*
X2082800Y5450179D01*
X2084730Y5444693D01*
X2087778Y5439816D01*
X2091893Y5435701D01*
X2096770Y5432602D01*
X2102256Y5430723D01*
G37*
G36*
X4140555Y5430012D02*
G01*
X4241444Y5430012D01*
X4247743Y5430723D01*
X4253230Y5432602D01*
X4258106Y5435701D01*
X4262221Y5439816D01*
X4265269Y5444693D01*
X4267200Y5450179D01*
X4267911Y5456478D01*
X4267911Y5685332D01*
X4267200Y5691632D01*
X4265269Y5697118D01*
X4262221Y5701995D01*
X4258106Y5706110D01*
X4253230Y5709208D01*
X4247743Y5711088D01*
X4241444Y5711799D01*
X4140555Y5711799D01*
X4134256Y5711088D01*
X4128770Y5709208D01*
X4123893Y5706110D01*
X4119778Y5701995D01*
X4116730Y5697118D01*
X4114800Y5691632D01*
X4114088Y5685332D01*
X4114088Y5456478D01*
X4114800Y5450179D01*
X4116730Y5444693D01*
X4119778Y5439816D01*
X4123893Y5435701D01*
X4128770Y5432602D01*
X4134256Y5430723D01*
G37*
G36*
X3632555Y5430012D02*
G01*
X3733444Y5430012D01*
X3739743Y5430723D01*
X3745229Y5432602D01*
X3750106Y5435701D01*
X3754221Y5439816D01*
X3757269Y5444693D01*
X3759200Y5450179D01*
X3759911Y5456478D01*
X3759911Y5685332D01*
X3759200Y5691632D01*
X3757269Y5697118D01*
X3754221Y5701995D01*
X3750106Y5706110D01*
X3745229Y5709208D01*
X3739743Y5711088D01*
X3733444Y5711799D01*
X3632555Y5711799D01*
X3626256Y5711088D01*
X3620770Y5709208D01*
X3615893Y5706110D01*
X3611778Y5701995D01*
X3608730Y5697118D01*
X3606800Y5691632D01*
X3606088Y5685332D01*
X3606088Y5456478D01*
X3606800Y5450179D01*
X3608730Y5444693D01*
X3611778Y5439816D01*
X3615893Y5435701D01*
X3620770Y5432602D01*
X3626256Y5430723D01*
G37*
G36*
X3886555Y5430012D02*
G01*
X3987444Y5430012D01*
X3993743Y5430723D01*
X3999229Y5432602D01*
X4004106Y5435701D01*
X4008221Y5439816D01*
X4011269Y5444693D01*
X4013200Y5450179D01*
X4013911Y5456478D01*
X4013911Y5685332D01*
X4013200Y5691632D01*
X4011269Y5697118D01*
X4008221Y5701995D01*
X4004106Y5706110D01*
X3999229Y5709208D01*
X3993743Y5711088D01*
X3987444Y5711799D01*
X3886555Y5711799D01*
X3880256Y5711088D01*
X3874770Y5709208D01*
X3869893Y5706110D01*
X3865778Y5701995D01*
X3862730Y5697118D01*
X3860800Y5691632D01*
X3860088Y5685332D01*
X3860088Y5456478D01*
X3860800Y5450179D01*
X3862730Y5444693D01*
X3865778Y5439816D01*
X3869893Y5435701D01*
X3874770Y5432602D01*
X3880256Y5430723D01*
G37*
G36*
X2870555Y5430012D02*
G01*
X2971444Y5430012D01*
X2977743Y5430723D01*
X2983230Y5432602D01*
X2988106Y5435701D01*
X2992221Y5439816D01*
X2995269Y5444693D01*
X2997200Y5450179D01*
X2997911Y5456478D01*
X2997911Y5685332D01*
X2997200Y5691632D01*
X2995269Y5697118D01*
X2992221Y5701995D01*
X2988106Y5706110D01*
X2983230Y5709208D01*
X2977743Y5711088D01*
X2971444Y5711799D01*
X2870555Y5711799D01*
X2864256Y5711088D01*
X2858770Y5709208D01*
X2853893Y5706110D01*
X2849778Y5701995D01*
X2846730Y5697118D01*
X2844800Y5691632D01*
X2844088Y5685332D01*
X2844088Y5456478D01*
X2844800Y5450179D01*
X2846730Y5444693D01*
X2849778Y5439816D01*
X2853893Y5435701D01*
X2858770Y5432602D01*
X2864256Y5430723D01*
G37*
G36*
X5410555Y5430012D02*
G01*
X5511444Y5430012D01*
X5517743Y5430723D01*
X5523230Y5432602D01*
X5528106Y5435701D01*
X5532221Y5439816D01*
X5535269Y5444693D01*
X5537200Y5450179D01*
X5537911Y5456478D01*
X5537911Y5685332D01*
X5537200Y5691632D01*
X5535269Y5697118D01*
X5532221Y5701995D01*
X5528106Y5706110D01*
X5523230Y5709208D01*
X5517743Y5711088D01*
X5511444Y5711799D01*
X5410555Y5711799D01*
X5404256Y5711088D01*
X5398770Y5709208D01*
X5393893Y5706110D01*
X5389778Y5701995D01*
X5386730Y5697118D01*
X5384800Y5691632D01*
X5384088Y5685332D01*
X5384088Y5456478D01*
X5384800Y5450179D01*
X5386730Y5444693D01*
X5389778Y5439816D01*
X5393893Y5435701D01*
X5398770Y5432602D01*
X5404256Y5430723D01*
G37*
G36*
X2616555Y5430012D02*
G01*
X2717444Y5430012D01*
X2723743Y5430723D01*
X2729230Y5432602D01*
X2734106Y5435701D01*
X2738221Y5439816D01*
X2741269Y5444693D01*
X2743200Y5450179D01*
X2743911Y5456478D01*
X2743911Y5685332D01*
X2743200Y5691632D01*
X2741269Y5697118D01*
X2738221Y5701995D01*
X2734106Y5706110D01*
X2729230Y5709208D01*
X2723743Y5711088D01*
X2717444Y5711799D01*
X2616555Y5711799D01*
X2610256Y5711088D01*
X2604770Y5709208D01*
X2599893Y5706110D01*
X2595778Y5701995D01*
X2592730Y5697118D01*
X2590800Y5691632D01*
X2590088Y5685332D01*
X2590088Y5456478D01*
X2590800Y5450179D01*
X2592730Y5444693D01*
X2595778Y5439816D01*
X2599893Y5435701D01*
X2604770Y5432602D01*
X2610256Y5430723D01*
G37*
G36*
X3378555Y5430012D02*
G01*
X3479444Y5430012D01*
X3485743Y5430723D01*
X3491229Y5432602D01*
X3496106Y5435701D01*
X3500221Y5439816D01*
X3503269Y5444693D01*
X3505200Y5450179D01*
X3505911Y5456478D01*
X3505911Y5685332D01*
X3505200Y5691632D01*
X3503269Y5697118D01*
X3500221Y5701995D01*
X3496106Y5706110D01*
X3491229Y5709208D01*
X3485743Y5711088D01*
X3479444Y5711799D01*
X3378555Y5711799D01*
X3372256Y5711088D01*
X3366770Y5709208D01*
X3361893Y5706110D01*
X3357778Y5701995D01*
X3354730Y5697118D01*
X3352800Y5691632D01*
X3352088Y5685332D01*
X3352088Y5456478D01*
X3352800Y5450179D01*
X3354730Y5444693D01*
X3357778Y5439816D01*
X3361893Y5435701D01*
X3366770Y5432602D01*
X3372256Y5430723D01*
G37*
G36*
X4648555Y5430012D02*
G01*
X4749444Y5430012D01*
X4755743Y5430723D01*
X4761230Y5432602D01*
X4766106Y5435701D01*
X4770221Y5439816D01*
X4773269Y5444693D01*
X4775200Y5450179D01*
X4775911Y5456478D01*
X4775911Y5685332D01*
X4775200Y5691632D01*
X4773269Y5697118D01*
X4770221Y5701995D01*
X4766106Y5706110D01*
X4761230Y5709208D01*
X4755743Y5711088D01*
X4749444Y5711799D01*
X4648555Y5711799D01*
X4642256Y5711088D01*
X4636770Y5709208D01*
X4631893Y5706110D01*
X4627778Y5701995D01*
X4624730Y5697118D01*
X4622800Y5691632D01*
X4622088Y5685332D01*
X4622088Y5456478D01*
X4622800Y5450179D01*
X4624730Y5444693D01*
X4627778Y5439816D01*
X4631893Y5435701D01*
X4636770Y5432602D01*
X4642256Y5430723D01*
G37*
G36*
X5664555Y5430012D02*
G01*
X5765444Y5430012D01*
X5771743Y5430723D01*
X5777230Y5432602D01*
X5782106Y5435701D01*
X5786221Y5439816D01*
X5789269Y5444693D01*
X5791200Y5450179D01*
X5791911Y5456478D01*
X5791911Y5685332D01*
X5791200Y5691632D01*
X5789269Y5697118D01*
X5786221Y5701995D01*
X5782106Y5706110D01*
X5777230Y5709208D01*
X5771743Y5711088D01*
X5765444Y5711799D01*
X5664555Y5711799D01*
X5658256Y5711088D01*
X5652770Y5709208D01*
X5647893Y5706110D01*
X5643778Y5701995D01*
X5640730Y5697118D01*
X5638800Y5691632D01*
X5638088Y5685332D01*
X5638088Y5456478D01*
X5638800Y5450179D01*
X5640730Y5444693D01*
X5643778Y5439816D01*
X5647893Y5435701D01*
X5652770Y5432602D01*
X5658256Y5430723D01*
G37*
G36*
X5156555Y5430012D02*
G01*
X5257444Y5430012D01*
X5263743Y5430723D01*
X5269230Y5432602D01*
X5274106Y5435701D01*
X5278221Y5439816D01*
X5281269Y5444693D01*
X5283200Y5450179D01*
X5283911Y5456478D01*
X5283911Y5685332D01*
X5283200Y5691632D01*
X5281269Y5697118D01*
X5278221Y5701995D01*
X5274106Y5706110D01*
X5269230Y5709208D01*
X5263743Y5711088D01*
X5257444Y5711799D01*
X5156555Y5711799D01*
X5150256Y5711088D01*
X5144770Y5709208D01*
X5139893Y5706110D01*
X5135778Y5701995D01*
X5132730Y5697118D01*
X5130800Y5691632D01*
X5130088Y5685332D01*
X5130088Y5456478D01*
X5130800Y5450179D01*
X5132730Y5444693D01*
X5135778Y5439816D01*
X5139893Y5435701D01*
X5144770Y5432602D01*
X5150256Y5430723D01*
G37*
G36*
X1854555Y5430012D02*
G01*
X1955444Y5430012D01*
X1961743Y5430723D01*
X1967230Y5432602D01*
X1972106Y5435701D01*
X1976221Y5439816D01*
X1979269Y5444693D01*
X1981200Y5450179D01*
X1981911Y5456478D01*
X1981911Y5685332D01*
X1981200Y5691632D01*
X1979269Y5697118D01*
X1976221Y5701995D01*
X1972106Y5706110D01*
X1967230Y5709208D01*
X1961743Y5711088D01*
X1955444Y5711799D01*
X1854555Y5711799D01*
X1848256Y5711088D01*
X1842770Y5709208D01*
X1837893Y5706110D01*
X1833778Y5701995D01*
X1830730Y5697118D01*
X1828800Y5691632D01*
X1828088Y5685332D01*
X1828088Y5456478D01*
X1828800Y5450179D01*
X1830730Y5444693D01*
X1833778Y5439816D01*
X1837893Y5435701D01*
X1842770Y5432602D01*
X1848256Y5430723D01*
G37*
G36*
X1320088Y5634736D02*
G01*
X1365148Y5634736D01*
X1365148Y5711799D01*
X1346555Y5711799D01*
X1340256Y5711088D01*
X1334770Y5709208D01*
X1329893Y5706110D01*
X1325778Y5701995D01*
X1322730Y5697118D01*
X1320800Y5691632D01*
X1320088Y5685332D01*
G37*
G36*
X1428851Y5634736D02*
G01*
X1473911Y5634736D01*
X1473911Y5685332D01*
X1473200Y5691632D01*
X1471269Y5697118D01*
X1468221Y5701995D01*
X1464106Y5706110D01*
X1459230Y5709208D01*
X1453743Y5711088D01*
X1447444Y5711799D01*
X1428851Y5711799D01*
G37*
G36*
X3098088Y5634736D02*
G01*
X3143148Y5634736D01*
X3143148Y5711799D01*
X3124555Y5711799D01*
X3118256Y5711088D01*
X3112770Y5709208D01*
X3107893Y5706110D01*
X3103778Y5701995D01*
X3100730Y5697118D01*
X3098800Y5691632D01*
X3098088Y5685332D01*
G37*
G36*
X2444851Y5634736D02*
G01*
X2489911Y5634736D01*
X2489911Y5685332D01*
X2489200Y5691632D01*
X2487269Y5697118D01*
X2484221Y5701995D01*
X2480106Y5706110D01*
X2475230Y5709208D01*
X2469743Y5711088D01*
X2463444Y5711799D01*
X2444851Y5711799D01*
G37*
G36*
X3206851Y5634736D02*
G01*
X3251911Y5634736D01*
X3251911Y5685332D01*
X3251200Y5691632D01*
X3249269Y5697118D01*
X3246221Y5701995D01*
X3242106Y5706110D01*
X3237230Y5709208D01*
X3231743Y5711088D01*
X3225444Y5711799D01*
X3206851Y5711799D01*
G37*
G36*
X2336088Y5634736D02*
G01*
X2381148Y5634736D01*
X2381148Y5711799D01*
X2362555Y5711799D01*
X2356256Y5711088D01*
X2350770Y5709208D01*
X2345893Y5706110D01*
X2341778Y5701995D01*
X2338730Y5697118D01*
X2336800Y5691632D01*
X2336088Y5685332D01*
G37*
G36*
X4984851Y5634736D02*
G01*
X5029911Y5634736D01*
X5029911Y5685332D01*
X5029200Y5691632D01*
X5027269Y5697118D01*
X5024221Y5701995D01*
X5020106Y5706110D01*
X5015230Y5709208D01*
X5009743Y5711088D01*
X5003444Y5711799D01*
X4984851Y5711799D01*
G37*
G36*
X4368088Y5634736D02*
G01*
X4413148Y5634736D01*
X4413148Y5711799D01*
X4394555Y5711799D01*
X4388256Y5711088D01*
X4382770Y5709208D01*
X4377893Y5706110D01*
X4373778Y5701995D01*
X4370730Y5697118D01*
X4368800Y5691632D01*
X4368088Y5685332D01*
G37*
G36*
X4876088Y5634736D02*
G01*
X4921148Y5634736D01*
X4921148Y5711799D01*
X4902555Y5711799D01*
X4896256Y5711088D01*
X4890770Y5709208D01*
X4885893Y5706110D01*
X4881778Y5701995D01*
X4878730Y5697118D01*
X4876800Y5691632D01*
X4876088Y5685332D01*
G37*
G36*
X4476851Y5634736D02*
G01*
X4521911Y5634736D01*
X4521911Y5685332D01*
X4521200Y5691632D01*
X4519269Y5697118D01*
X4516221Y5701995D01*
X4512106Y5706110D01*
X4507230Y5709208D01*
X4501743Y5711088D01*
X4495444Y5711799D01*
X4476851Y5711799D01*
G37*

%LPD*%
G36*
X3671011Y2472182D02*
G01*
X3667048Y2473147D01*
X3663797Y2475534D01*
X3661714Y2478989D01*
X3660800Y2481681D01*
X3657701Y2486609D01*
X3653586Y2490673D01*
X3649573Y2494229D01*
X3647948Y2497937D01*
X3647948Y2502052D01*
X3649573Y2505760D01*
X3653586Y2509316D01*
X3657701Y2513380D01*
X3660800Y2518308D01*
X3661714Y2521000D01*
X3663797Y2524455D01*
X3667048Y2526842D01*
X3671011Y2527808D01*
X3674973Y2527096D01*
X3678377Y2524912D01*
X3680663Y2521610D01*
X3681476Y2517648D01*
X3681476Y2482342D01*
X3680663Y2478379D01*
X3678377Y2475077D01*
X3674973Y2472893D01*
G37*

%LPD*%
G36*
X1180185Y2458720D02*
G01*
X1176324Y2459482D01*
X1173022Y2461666D01*
X1051509Y2583027D01*
X1049274Y2586329D01*
X1048512Y2590190D01*
X1048512Y3569817D01*
X1049274Y3573729D01*
X1051509Y3577031D01*
X1072946Y3598468D01*
X1076248Y3600704D01*
X1080160Y3601465D01*
X1097584Y3601465D01*
X1101547Y3600653D01*
X1104900Y3598367D01*
X1107084Y3594963D01*
X1107744Y3591001D01*
X1106830Y3587038D01*
X1104442Y3583787D01*
X1100988Y3581704D01*
X1098296Y3580790D01*
X1093368Y3577691D01*
X1089304Y3573627D01*
X1086205Y3568700D01*
X1084275Y3563264D01*
X1083564Y3556914D01*
X1083564Y3530092D01*
X1138377Y3530092D01*
X1138377Y3591306D01*
X1139190Y3595217D01*
X1141374Y3598468D01*
X1144676Y3600704D01*
X1148537Y3601465D01*
X1211427Y3601465D01*
X1215339Y3600704D01*
X1218641Y3598468D01*
X1220825Y3595217D01*
X1221587Y3591306D01*
X1221587Y3530092D01*
X1273454Y3530092D01*
X1277315Y3529329D01*
X1280617Y3527094D01*
X1282801Y3523843D01*
X1283614Y3519932D01*
X1283614Y3460038D01*
X1282801Y3456178D01*
X1280617Y3452876D01*
X1277315Y3450640D01*
X1273454Y3449878D01*
X1221587Y3449878D01*
X1221587Y3396589D01*
X1249934Y3396589D01*
X1256233Y3397300D01*
X1261719Y3399231D01*
X1266596Y3402279D01*
X1270711Y3406394D01*
X1274216Y3410407D01*
X1277975Y3412032D01*
X1282039Y3412032D01*
X1285798Y3410407D01*
X1289304Y3406394D01*
X1293368Y3402279D01*
X1298295Y3399231D01*
X1303731Y3397300D01*
X1310081Y3396589D01*
X1323035Y3396589D01*
X1327150Y3395726D01*
X1330553Y3393287D01*
X1332687Y3389629D01*
X1333144Y3385464D01*
X1331925Y3381451D01*
X1328166Y3374796D01*
X1324965Y3365703D01*
X1323340Y3356152D01*
X1323340Y3346551D01*
X1325575Y3333140D01*
X1324660Y3329381D01*
X1322425Y3326231D01*
X1319225Y3324148D01*
X1315415Y3323386D01*
X1310081Y3323386D01*
X1303731Y3322675D01*
X1298295Y3320796D01*
X1293368Y3317697D01*
X1289304Y3313582D01*
X1285798Y3309569D01*
X1282039Y3307943D01*
X1277975Y3307943D01*
X1274216Y3309569D01*
X1270711Y3313582D01*
X1266596Y3317697D01*
X1261719Y3320796D01*
X1256233Y3322675D01*
X1249934Y3323386D01*
X1221587Y3323386D01*
X1221587Y3270097D01*
X1270762Y3270097D01*
X1274622Y3269335D01*
X1277924Y3267151D01*
X1280160Y3263849D01*
X1280922Y3259937D01*
X1280160Y3256076D01*
X1277975Y3252774D01*
X1252829Y3227425D01*
X1247851Y3221329D01*
X1244295Y3214624D01*
X1242110Y3207410D01*
X1241247Y3199079D01*
X1240231Y3195472D01*
X1237996Y3192526D01*
X1234795Y3190595D01*
X1231138Y3189884D01*
X1221587Y3189884D01*
X1221587Y3136595D01*
X1231138Y3136595D01*
X1235049Y3135833D01*
X1238300Y3133598D01*
X1240536Y3130296D01*
X1241298Y3126435D01*
X1241298Y3063544D01*
X1240536Y3059684D01*
X1238300Y3056382D01*
X1235049Y3054197D01*
X1231138Y3053384D01*
X1221587Y3053384D01*
X1221587Y3000095D01*
X1231138Y3000095D01*
X1235049Y2999333D01*
X1238300Y2997098D01*
X1240536Y2993847D01*
X1241298Y2989935D01*
X1241298Y2930042D01*
X1240536Y2926181D01*
X1238300Y2922879D01*
X1235049Y2920644D01*
X1231138Y2919882D01*
X1221587Y2919882D01*
X1221587Y2866593D01*
X1231138Y2866593D01*
X1235049Y2865831D01*
X1238300Y2863596D01*
X1240536Y2860294D01*
X1241298Y2856433D01*
X1241298Y2803550D01*
X1240536Y2799689D01*
X1238300Y2796387D01*
X1235049Y2794152D01*
X1231138Y2793390D01*
X1221587Y2793390D01*
X1221587Y2740101D01*
X1231138Y2740101D01*
X1235049Y2739339D01*
X1238300Y2737104D01*
X1240536Y2733802D01*
X1241298Y2729941D01*
X1241298Y2670048D01*
X1240536Y2666187D01*
X1238300Y2662885D01*
X1235049Y2660650D01*
X1231138Y2659888D01*
X1221587Y2659888D01*
X1221587Y2606598D01*
X1231138Y2606598D01*
X1235049Y2605836D01*
X1238300Y2603601D01*
X1240536Y2600299D01*
X1241298Y2596438D01*
X1241298Y2530602D01*
X1242110Y2522575D01*
X1244295Y2515362D01*
X1247851Y2508656D01*
X1252982Y2502458D01*
X1279347Y2476042D01*
X1281531Y2472791D01*
X1282293Y2468880D01*
X1281531Y2464968D01*
X1279347Y2461717D01*
X1276045Y2459482D01*
X1272133Y2458720D01*
G37*

%LPC*%
G36*
X1110081Y2606598D02*
G01*
X1138377Y2606598D01*
X1138377Y2659888D01*
X1083564Y2659888D01*
X1083564Y2633065D01*
X1084275Y2626766D01*
X1086205Y2621280D01*
X1089304Y2616403D01*
X1093368Y2612288D01*
X1098296Y2609189D01*
X1103731Y2607310D01*
G37*
G36*
X1083564Y2740101D02*
G01*
X1138377Y2740101D01*
X1138377Y2793390D01*
X1110081Y2793390D01*
X1103731Y2792679D01*
X1098296Y2790799D01*
X1093368Y2787700D01*
X1089304Y2783586D01*
X1086205Y2778709D01*
X1084275Y2773222D01*
X1083564Y2766923D01*
G37*
G36*
X1110081Y2866593D02*
G01*
X1138377Y2866593D01*
X1138377Y2919882D01*
X1083564Y2919882D01*
X1083564Y2893060D01*
X1084275Y2886760D01*
X1086205Y2881274D01*
X1089304Y2876397D01*
X1093368Y2872282D01*
X1098296Y2869184D01*
X1103731Y2867304D01*
G37*
G36*
X1083564Y3000095D02*
G01*
X1138377Y3000095D01*
X1138377Y3053384D01*
X1110081Y3053384D01*
X1103731Y3052673D01*
X1098296Y3050794D01*
X1093368Y3047695D01*
X1089304Y3043631D01*
X1086205Y3038703D01*
X1084275Y3033268D01*
X1083564Y3026918D01*
G37*
G36*
X1110081Y3136595D02*
G01*
X1138377Y3136595D01*
X1138377Y3189884D01*
X1083564Y3189884D01*
X1083564Y3163062D01*
X1084275Y3156762D01*
X1086205Y3151276D01*
X1089304Y3146399D01*
X1093368Y3142284D01*
X1098296Y3139186D01*
X1103731Y3137306D01*
G37*
G36*
X1083564Y3270097D02*
G01*
X1138377Y3270097D01*
X1138377Y3323386D01*
X1110081Y3323386D01*
X1103731Y3322675D01*
X1098296Y3320796D01*
X1093368Y3317697D01*
X1089304Y3313582D01*
X1086205Y3308705D01*
X1084275Y3303270D01*
X1083564Y3296920D01*
G37*
G36*
X1110081Y3396589D02*
G01*
X1138377Y3396589D01*
X1138377Y3449878D01*
X1083564Y3449878D01*
X1083564Y3423056D01*
X1084275Y3416757D01*
X1086205Y3411270D01*
X1089304Y3406394D01*
X1093368Y3402279D01*
X1098296Y3399231D01*
X1103731Y3397300D01*
G37*

%LPD*%
G36*
X3671315Y1957476D02*
G01*
X3667404Y1958238D01*
X3664153Y1960422D01*
X3491687Y2132888D01*
X3489451Y2136190D01*
X3488690Y2140102D01*
X3488690Y2184400D01*
X3489401Y2188159D01*
X3491534Y2191410D01*
X3494278Y2194255D01*
X3499662Y2202281D01*
X3503625Y2211070D01*
X3506063Y2220366D01*
X3506876Y2229967D01*
X3506063Y2239619D01*
X3503625Y2248916D01*
X3499662Y2257704D01*
X3494278Y2265730D01*
X3487572Y2272690D01*
X3479800Y2278430D01*
X3471214Y2282748D01*
X3461969Y2285593D01*
X3452418Y2286812D01*
X3448354Y2287524D01*
X3444849Y2289759D01*
X3427628Y2306929D01*
X3424732Y2309317D01*
X3422142Y2312517D01*
X3421024Y2316429D01*
X3421583Y2320544D01*
X3422700Y2323744D01*
X3423412Y2330043D01*
X3423412Y2358390D01*
X3370072Y2358390D01*
X3370072Y2328672D01*
X3369310Y2324760D01*
X3367125Y2321509D01*
X3363823Y2319274D01*
X3359912Y2318512D01*
X3300069Y2318512D01*
X3296158Y2319274D01*
X3292856Y2321509D01*
X3290671Y2324760D01*
X3289909Y2328672D01*
X3289909Y2358390D01*
X3236569Y2358390D01*
X3236620Y2329789D01*
X3236214Y2325573D01*
X3234080Y2321915D01*
X3230676Y2319375D01*
X3226511Y2318512D01*
X2510180Y2318512D01*
X2506268Y2319274D01*
X2502966Y2321509D01*
X2380284Y2444191D01*
X2378100Y2447442D01*
X2377338Y2451354D01*
X2378100Y2455265D01*
X2380284Y2458516D01*
X2383586Y2460752D01*
X2387498Y2461514D01*
X3226409Y2461514D01*
X3230321Y2460752D01*
X3233623Y2458516D01*
X3235807Y2455265D01*
X3236569Y2451354D01*
X3236569Y2441600D01*
X3289909Y2441600D01*
X3289909Y2451354D01*
X3290671Y2455265D01*
X3292856Y2458516D01*
X3296158Y2460752D01*
X3300069Y2461514D01*
X3359912Y2461514D01*
X3363823Y2460752D01*
X3367125Y2458516D01*
X3369310Y2455265D01*
X3370072Y2451354D01*
X3370072Y2441600D01*
X3423412Y2441600D01*
X3423412Y2453487D01*
X3424326Y2457653D01*
X3426866Y2461107D01*
X3430625Y2463190D01*
X3434842Y2464511D01*
X3441547Y2468067D01*
X3447745Y2473198D01*
X3460140Y2485542D01*
X3463594Y2487828D01*
X3467709Y2488488D01*
X3471722Y2487523D01*
X3475024Y2484983D01*
X3477006Y2481326D01*
X3477412Y2477211D01*
X3476599Y2469946D01*
X3476599Y2441600D01*
X3529888Y2441600D01*
X3529888Y2493416D01*
X3530650Y2497328D01*
X3532886Y2500630D01*
X3536187Y2502814D01*
X3540048Y2503576D01*
X3599942Y2503576D01*
X3603802Y2502814D01*
X3607104Y2500630D01*
X3609340Y2497328D01*
X3610101Y2493416D01*
X3610101Y2441600D01*
X3671315Y2441600D01*
X3675227Y2440838D01*
X3678478Y2438603D01*
X3680714Y2435301D01*
X3681476Y2431440D01*
X3681476Y2368550D01*
X3680714Y2364689D01*
X3678478Y2361387D01*
X3675227Y2359152D01*
X3671315Y2358390D01*
X3610101Y2358390D01*
X3610101Y2303576D01*
X3636924Y2303576D01*
X3643223Y2304288D01*
X3648710Y2306218D01*
X3653586Y2309266D01*
X3657701Y2313381D01*
X3660800Y2318258D01*
X3661714Y2321001D01*
X3663797Y2324455D01*
X3667048Y2326843D01*
X3671011Y2327808D01*
X3674973Y2327097D01*
X3678377Y2324912D01*
X3680663Y2321610D01*
X3681476Y2317648D01*
X3681476Y1967636D01*
X3680714Y1963724D01*
X3678478Y1960422D01*
X3675227Y1958238D01*
G37*

%LPC*%
G36*
X3503066Y2303576D02*
G01*
X3529888Y2303576D01*
X3529888Y2358390D01*
X3476599Y2358390D01*
X3476599Y2330043D01*
X3477310Y2323744D01*
X3479190Y2318258D01*
X3482289Y2313381D01*
X3486404Y2309266D01*
X3491280Y2306218D01*
X3496716Y2304288D01*
G37*

%LPD*%
G36*
X5218074Y1590802D02*
G01*
X5214162Y1591564D01*
X5210860Y1593799D01*
X5041595Y1763064D01*
X5039360Y1766366D01*
X5038598Y1770278D01*
X5038598Y2042261D01*
X5039360Y2046173D01*
X5041595Y2049475D01*
X5044846Y2051659D01*
X5048758Y2052421D01*
X5052669Y2051659D01*
X5055920Y2049475D01*
X5102402Y2003043D01*
X5108600Y1997913D01*
X5115306Y1994357D01*
X5122519Y1992172D01*
X5130546Y1991360D01*
X5254294Y1991360D01*
X5257850Y1990699D01*
X5261000Y1988820D01*
X5266182Y1984248D01*
X5274360Y1979218D01*
X5283352Y1975612D01*
X5292750Y1973580D01*
X5302402Y1973173D01*
X5311952Y1974392D01*
X5321198Y1977237D01*
X5329783Y1981555D01*
X5337556Y1987296D01*
X5344261Y1994255D01*
X5349646Y2002282D01*
X5353608Y2011070D01*
X5356047Y2020366D01*
X5356860Y2030018D01*
X5356047Y2039620D01*
X5353608Y2048967D01*
X5349646Y2057755D01*
X5344261Y2065731D01*
X5337556Y2072690D01*
X5329783Y2078431D01*
X5321198Y2082749D01*
X5311952Y2085593D01*
X5302402Y2086813D01*
X5292750Y2086406D01*
X5283352Y2084374D01*
X5274360Y2080768D01*
X5266182Y2075738D01*
X5260949Y2071116D01*
X5257800Y2069236D01*
X5254244Y2068575D01*
X5150256Y2068575D01*
X5146344Y2069338D01*
X5143042Y2071573D01*
X5101539Y2113076D01*
X5099304Y2116378D01*
X5098542Y2120290D01*
X5098542Y2169414D01*
X5097729Y2177440D01*
X5095544Y2184654D01*
X5091988Y2191359D01*
X5086858Y2197557D01*
X5007559Y2276856D01*
X5001361Y2281986D01*
X4994656Y2285542D01*
X4987442Y2287727D01*
X4979416Y2288540D01*
X4570171Y2288540D01*
X4566310Y2289302D01*
X4563008Y2291537D01*
X4551578Y2303018D01*
X4549394Y2306320D01*
X4548632Y2310180D01*
X4548632Y2974340D01*
X4549343Y2978099D01*
X4551476Y2981350D01*
X4554220Y2984246D01*
X4559655Y2992272D01*
X4563618Y3001060D01*
X4566056Y3010357D01*
X4566869Y3020009D01*
X4566056Y3029610D01*
X4563618Y3038957D01*
X4559655Y3047746D01*
X4554220Y3055721D01*
X4547565Y3062681D01*
X4539792Y3068421D01*
X4531207Y3072739D01*
X4521962Y3075584D01*
X4512411Y3076803D01*
X4502759Y3076397D01*
X4493361Y3074365D01*
X4484370Y3070758D01*
X4476191Y3065729D01*
X4468926Y3059328D01*
X4462881Y3051860D01*
X4458157Y3043428D01*
X4454956Y3034334D01*
X4453331Y3024835D01*
X4453331Y3015183D01*
X4454956Y3005683D01*
X4458157Y2996590D01*
X4462881Y2988157D01*
X4469180Y2980334D01*
X4470857Y2977337D01*
X4471416Y2973984D01*
X4471416Y2290572D01*
X4472178Y2282647D01*
X4474362Y2275433D01*
X4477918Y2268728D01*
X4482998Y2262479D01*
X4489602Y2255824D01*
X4491786Y2252522D01*
X4492548Y2248662D01*
X4491786Y2244750D01*
X4489602Y2241448D01*
X4486300Y2239264D01*
X4482388Y2238502D01*
X4370222Y2238502D01*
X4366310Y2239264D01*
X4363008Y2241499D01*
X4351477Y2253030D01*
X4349242Y2256332D01*
X4348480Y2260244D01*
X4348480Y2909620D01*
X4349140Y2913227D01*
X4351121Y2916428D01*
X4354068Y2918663D01*
X4359808Y2921558D01*
X4367580Y2927299D01*
X4374235Y2934258D01*
X4379620Y2942234D01*
X4383633Y2951022D01*
X4386021Y2960370D01*
X4386884Y2969971D01*
X4386021Y2979623D01*
X4383633Y2988919D01*
X4379620Y2997708D01*
X4374235Y3005734D01*
X4367580Y3012694D01*
X4360011Y3018231D01*
X4357217Y3021431D01*
X4355947Y3025444D01*
X4356404Y3029610D01*
X4358538Y3033268D01*
X4361942Y3035706D01*
X4366056Y3036570D01*
X4379925Y3036570D01*
X4386224Y3037281D01*
X4391710Y3039211D01*
X4396587Y3042310D01*
X4400702Y3046374D01*
X4403801Y3051302D01*
X4405680Y3056737D01*
X4406392Y3063087D01*
X4406392Y3089910D01*
X4351578Y3089910D01*
X4351578Y3035909D01*
X4350715Y3031693D01*
X4348124Y3028289D01*
X4344416Y3026206D01*
X4340148Y3025800D01*
X4332427Y3026816D01*
X4322775Y3026410D01*
X4313326Y3024378D01*
X4304385Y3020771D01*
X4296156Y3015742D01*
X4288942Y3009341D01*
X4282897Y3001822D01*
X4278172Y2993440D01*
X4274972Y2984347D01*
X4273194Y2973984D01*
X4271518Y2969920D01*
X4268266Y2966923D01*
X4264050Y2965602D01*
X4259681Y2966161D01*
X4255973Y2968548D01*
X4227525Y2996946D01*
X4221327Y3002076D01*
X4214622Y3005632D01*
X4207408Y3007817D01*
X4199382Y3008630D01*
X4080154Y3008630D01*
X4076242Y3009392D01*
X4072940Y3011627D01*
X4065320Y3019247D01*
X4063136Y3022549D01*
X4062323Y3026410D01*
X4063136Y3030321D01*
X4065320Y3033623D01*
X4068622Y3035808D01*
X4072483Y3036570D01*
X4179925Y3036570D01*
X4186224Y3037281D01*
X4191711Y3039211D01*
X4196588Y3042310D01*
X4200702Y3046374D01*
X4204208Y3050438D01*
X4207967Y3052013D01*
X4212031Y3052013D01*
X4215790Y3050438D01*
X4219295Y3046374D01*
X4223359Y3042310D01*
X4228287Y3039211D01*
X4233722Y3037281D01*
X4240072Y3036570D01*
X4268368Y3036570D01*
X4268368Y3089910D01*
X4216552Y3089910D01*
X4212691Y3090672D01*
X4209389Y3092856D01*
X4207154Y3096158D01*
X4206392Y3100070D01*
X4206392Y3107588D01*
X4207154Y3111500D01*
X4209389Y3114751D01*
X4236923Y3142335D01*
X4242054Y3148584D01*
X4245610Y3155238D01*
X4247946Y3162858D01*
X4250029Y3166618D01*
X4253484Y3169208D01*
X4257649Y3170072D01*
X4268368Y3170072D01*
X4268368Y3223412D01*
X4258767Y3223412D01*
X4254855Y3224174D01*
X4251553Y3226358D01*
X4249369Y3229660D01*
X4248607Y3233572D01*
X4248607Y3246424D01*
X4249369Y3250336D01*
X4251553Y3253587D01*
X4254855Y3255822D01*
X4258767Y3256584D01*
X4268368Y3256584D01*
X4268368Y3309874D01*
X4258767Y3309874D01*
X4254855Y3310686D01*
X4251553Y3312871D01*
X4249369Y3316173D01*
X4248607Y3320034D01*
X4248607Y3379927D01*
X4249369Y3383838D01*
X4251553Y3387140D01*
X4254855Y3389325D01*
X4258767Y3390087D01*
X4268368Y3390087D01*
X4268368Y3443376D01*
X4258767Y3443376D01*
X4254855Y3444189D01*
X4251553Y3446373D01*
X4249369Y3449675D01*
X4248607Y3453536D01*
X4248607Y3466439D01*
X4249369Y3470300D01*
X4251553Y3473602D01*
X4254855Y3475786D01*
X4258767Y3476599D01*
X4268368Y3476599D01*
X4268368Y3529888D01*
X4216552Y3529888D01*
X4212691Y3530650D01*
X4209389Y3532886D01*
X4207154Y3536187D01*
X4206392Y3540048D01*
X4206392Y3599942D01*
X4207154Y3603802D01*
X4209389Y3607104D01*
X4212691Y3609340D01*
X4216552Y3610101D01*
X4268368Y3610101D01*
X4268368Y3663391D01*
X4240072Y3663391D01*
X4233722Y3662679D01*
X4228287Y3660800D01*
X4223359Y3657701D01*
X4219295Y3653586D01*
X4215790Y3649573D01*
X4212031Y3647948D01*
X4207967Y3647948D01*
X4204208Y3649573D01*
X4200702Y3653586D01*
X4196588Y3657701D01*
X4191711Y3660800D01*
X4186224Y3662679D01*
X4179925Y3663391D01*
X4126026Y3663391D01*
X4121759Y3664356D01*
X4118305Y3666998D01*
X4116222Y3670858D01*
X4116019Y3675176D01*
X4117594Y3679240D01*
X4119626Y3682288D01*
X4123639Y3691077D01*
X4126026Y3700373D01*
X4126890Y3709974D01*
X4126026Y3719626D01*
X4123639Y3728923D01*
X4119626Y3737711D01*
X4114241Y3745737D01*
X4107586Y3752697D01*
X4099814Y3758437D01*
X4091178Y3762756D01*
X4081983Y3765600D01*
X4072432Y3766820D01*
X4062780Y3766413D01*
X4053332Y3764381D01*
X4044391Y3760774D01*
X4036161Y3755745D01*
X4028948Y3749344D01*
X4022851Y3741826D01*
X4018178Y3733444D01*
X4014978Y3724351D01*
X4013352Y3714800D01*
X4013352Y3705199D01*
X4014978Y3695649D01*
X4018178Y3686556D01*
X4022851Y3678174D01*
X4026814Y3673297D01*
X4028744Y3669487D01*
X4028948Y3665220D01*
X4027373Y3661257D01*
X4023360Y3657701D01*
X4019296Y3653586D01*
X4016197Y3648710D01*
X4014317Y3643223D01*
X4013606Y3636924D01*
X4013606Y3534664D01*
X4012793Y3530803D01*
X4010609Y3527501D01*
X4007307Y3525265D01*
X4003446Y3524504D01*
X3999534Y3525265D01*
X3996232Y3527501D01*
X3971493Y3552240D01*
X3969258Y3555542D01*
X3968496Y3559454D01*
X3968496Y3584194D01*
X3969207Y3587953D01*
X3971340Y3591204D01*
X3974236Y3594252D01*
X3979621Y3602278D01*
X3983634Y3611067D01*
X3986022Y3620363D01*
X3986885Y3629964D01*
X3986022Y3639616D01*
X3983634Y3648913D01*
X3979621Y3657701D01*
X3974236Y3665728D01*
X3967581Y3672687D01*
X3959809Y3678428D01*
X3951173Y3682746D01*
X3941978Y3685590D01*
X3932428Y3686810D01*
X3922776Y3686403D01*
X3913327Y3684371D01*
X3904386Y3680764D01*
X3896156Y3675735D01*
X3888943Y3669334D01*
X3882847Y3661816D01*
X3878173Y3653434D01*
X3874973Y3644341D01*
X3873347Y3634790D01*
X3873347Y3625189D01*
X3874973Y3615639D01*
X3878173Y3606546D01*
X3882847Y3598164D01*
X3889044Y3590544D01*
X3890721Y3587546D01*
X3891279Y3584143D01*
X3891279Y3539744D01*
X3892092Y3531717D01*
X3894175Y3524707D01*
X3894582Y3520998D01*
X3893616Y3517341D01*
X3891432Y3514344D01*
X3888282Y3512312D01*
X3884371Y3510787D01*
X3876192Y3505708D01*
X3871823Y3501847D01*
X3868470Y3499916D01*
X3864660Y3499358D01*
X3860901Y3500221D01*
X3849776Y3508400D01*
X3841191Y3512769D01*
X3831945Y3515563D01*
X3822395Y3516833D01*
X3812743Y3516376D01*
X3798722Y3513328D01*
X3794861Y3514140D01*
X3791610Y3516376D01*
X3789426Y3519627D01*
X3788664Y3523487D01*
X3788664Y3689604D01*
X3787851Y3697630D01*
X3785666Y3704844D01*
X3782110Y3711549D01*
X3777030Y3717747D01*
X3769715Y3725011D01*
X3767683Y3727907D01*
X3766769Y3731361D01*
X3766058Y3739591D01*
X3763619Y3748938D01*
X3759657Y3757726D01*
X3754272Y3765702D01*
X3747566Y3772662D01*
X3739794Y3778402D01*
X3732428Y3782110D01*
X3728974Y3785006D01*
X3727094Y3789070D01*
X3727145Y3793540D01*
X3729126Y3797604D01*
X3732631Y3800348D01*
X3737051Y3801364D01*
X4589881Y3801364D01*
X4593793Y3800601D01*
X4597095Y3798366D01*
X4598466Y3796995D01*
X4600702Y3793693D01*
X4601464Y3789781D01*
X4601464Y2910586D01*
X4602276Y2902559D01*
X4604461Y2895346D01*
X4608017Y2888640D01*
X4613148Y2882442D01*
X4742484Y2753106D01*
X4748682Y2747975D01*
X4755388Y2744419D01*
X4762601Y2742234D01*
X4770628Y2741422D01*
X5989726Y2741422D01*
X5993638Y2740660D01*
X5996889Y2738475D01*
X6058458Y2677058D01*
X6060694Y2673756D01*
X6061456Y2669895D01*
X6061456Y1712366D01*
X6060490Y1708048D01*
X6057747Y1704543D01*
X6053785Y1702511D01*
X6049314Y1702409D01*
X6045250Y1704238D01*
X6039713Y1708302D01*
X6031077Y1712671D01*
X6021882Y1715465D01*
X6014262Y1716481D01*
X6010198Y1717903D01*
X6007150Y1720850D01*
X6005525Y1724812D01*
X6006896Y1740001D01*
X6006033Y1749602D01*
X6003645Y1758950D01*
X5999632Y1767738D01*
X5994247Y1775714D01*
X5987592Y1782673D01*
X5979820Y1788414D01*
X5971184Y1792782D01*
X5961989Y1795576D01*
X5952439Y1796846D01*
X5942787Y1796389D01*
X5933338Y1794357D01*
X5924397Y1790801D01*
X5916168Y1785721D01*
X5910986Y1781149D01*
X5907836Y1779270D01*
X5904280Y1778609D01*
X5495848Y1778609D01*
X5491835Y1779422D01*
X5479796Y1788414D01*
X5471210Y1792782D01*
X5461965Y1795576D01*
X5452414Y1796846D01*
X5442762Y1796389D01*
X5433364Y1794357D01*
X5424373Y1790801D01*
X5416194Y1785721D01*
X5408930Y1779371D01*
X5402884Y1771853D01*
X5398160Y1763420D01*
X5394960Y1754327D01*
X5393334Y1744827D01*
X5393334Y1735175D01*
X5394960Y1725675D01*
X5398160Y1716582D01*
X5402884Y1708150D01*
X5404408Y1706270D01*
X5406085Y1703273D01*
X5406644Y1699920D01*
X5406085Y1696516D01*
X5404408Y1693519D01*
X5402935Y1691741D01*
X5398262Y1683308D01*
X5395061Y1674215D01*
X5393436Y1664716D01*
X5393436Y1655064D01*
X5395061Y1645564D01*
X5398262Y1636471D01*
X5402935Y1628038D01*
X5405120Y1625346D01*
X5407101Y1621332D01*
X5407202Y1616913D01*
X5405374Y1612849D01*
X5401970Y1609953D01*
X5397652Y1608836D01*
X5392826Y1608582D01*
X5383377Y1606550D01*
X5374436Y1602994D01*
X5366207Y1597914D01*
X5361025Y1593342D01*
X5357876Y1591462D01*
X5354320Y1590802D01*
G37*

%LPC*%
G36*
X4351578Y3170072D02*
G01*
X4406392Y3170072D01*
X4406392Y3196945D01*
X4405680Y3203244D01*
X4403801Y3208731D01*
X4400702Y3213608D01*
X4396587Y3217722D01*
X4391710Y3220770D01*
X4386224Y3222701D01*
X4379925Y3223412D01*
X4351578Y3223412D01*
G37*
G36*
X4351578Y3256584D02*
G01*
X4379925Y3256584D01*
X4386224Y3257296D01*
X4391710Y3259226D01*
X4396587Y3262274D01*
X4400702Y3266389D01*
X4403801Y3271265D01*
X4405680Y3276752D01*
X4406392Y3283051D01*
X4406392Y3309874D01*
X4351578Y3309874D01*
G37*
G36*
X4351578Y3390087D02*
G01*
X4406392Y3390087D01*
X4406392Y3416909D01*
X4405680Y3423259D01*
X4403801Y3428695D01*
X4400702Y3433622D01*
X4396587Y3437686D01*
X4391710Y3440785D01*
X4386224Y3442665D01*
X4379925Y3443376D01*
X4351578Y3443376D01*
G37*
G36*
X4351578Y3476599D02*
G01*
X4379925Y3476599D01*
X4386224Y3477310D01*
X4391710Y3479190D01*
X4396587Y3482289D01*
X4400702Y3486404D01*
X4403801Y3491280D01*
X4405680Y3496716D01*
X4406392Y3503066D01*
X4406392Y3529888D01*
X4351578Y3529888D01*
G37*
G36*
X4351578Y3610101D02*
G01*
X4406392Y3610101D01*
X4406392Y3636924D01*
X4405680Y3643223D01*
X4403801Y3648710D01*
X4400702Y3653586D01*
X4396587Y3657701D01*
X4391710Y3660800D01*
X4386224Y3662679D01*
X4379925Y3663391D01*
X4351578Y3663391D01*
G37*

%LPD*%
D10*
X1899920Y1700021D02*
G01*
X1899920Y1780031D01*
X1880107Y1800097D01*
X1610105Y1800097D01*
X1560068Y1749552D01*
X299973Y1749552D01*
X1700004Y1700006D02*
G01*
X479999Y1699996D01*
X389999Y1609996D01*
X389999Y1339997D01*
X340004Y1959990D02*
G01*
X299999Y1919986D01*
X299999Y1339997D01*
X389999Y1339997D02*
G01*
X399999Y1329997D01*
X399999Y799998D01*
X299999Y1339997D02*
G01*
X299999Y799998D01*
X1750060Y549910D02*
G01*
X599947Y549910D01*
X519937Y629920D01*
X160020Y629920D01*
X139954Y649986D01*
X139954Y1320037D01*
X160020Y1340104D01*
X199897Y1340104D01*
X1389887Y1359915D02*
G01*
X1399794Y1350010D01*
X2199893Y1350010D01*
X1389887Y1439926D02*
G01*
X2180081Y1439926D01*
X2189988Y1430020D01*
X1179995Y2959994D02*
G01*
X1179995Y3099379D01*
X1179995Y3099379D02*
G01*
X1179995Y3229983D01*
X1179995Y2959994D02*
G01*
X1179995Y2700004D01*
X1179995Y3489990D02*
G01*
X1179995Y3229983D01*
X1379994Y2700004D02*
G01*
X1379994Y2959994D01*
X3189986Y4375195D02*
G01*
X3210001Y4355180D01*
X3210001Y4339983D01*
X3189986Y4375195D02*
G01*
X3210001Y4395210D01*
X3210001Y4419968D01*
X3389985Y4259973D02*
G01*
X3389985Y4339983D01*
X3389985Y4339983D02*
G01*
X3389985Y4419968D01*
X3389985Y4179989D02*
G01*
X3389985Y4259973D01*
X3210001Y4419968D02*
G01*
X3210001Y4259973D01*
X3330003Y2399990D02*
G01*
X3330003Y2399995D01*
X3569995Y2399995D01*
X3569995Y2599994D02*
G01*
X3330003Y2599994D01*
X3330003Y2599989D01*
X2299992Y3239990D02*
G01*
X2299982Y3459990D01*
X1749996Y549998D02*
G01*
X2079995Y549998D01*
X1830070Y620013D02*
G01*
X2279904Y620013D01*
X2299970Y599947D01*
X2299970Y549910D01*
X3640074Y4220210D02*
G01*
X3640074Y4420107D01*
X3667759Y4447794D01*
X3899915Y4447794D01*
X299973Y800100D02*
G01*
X299973Y739902D01*
X319278Y720597D01*
X559307Y720597D01*
X619252Y660654D01*
X1880870Y660654D01*
X1899920Y679957D01*
X1899920Y739902D01*
X210057Y800100D02*
G01*
X210057Y709929D01*
X240029Y679957D01*
X530097Y679957D01*
X590042Y620013D01*
X1830070Y620013D01*
X2499992Y3239990D02*
G01*
X2500007Y3459990D01*
X130047Y500126D02*
G01*
X89915Y540257D01*
X89915Y2569971D01*
X130047Y2610104D01*
X279907Y2610104D01*
X3129991Y3909999D02*
G01*
X3129991Y3909999D01*
X3129991Y4029989D01*
X2929890Y3750055D02*
G01*
X2929890Y4189984D01*
X1939996Y3809992D02*
G01*
X1939996Y4029991D01*
X2839994Y3759992D02*
G01*
X2839994Y3639992D01*
X2119985Y4089984D02*
G01*
X2089993Y4059991D01*
X2089993Y3689982D01*
X2029993Y4099991D02*
G01*
X2029990Y4099989D01*
X2029990Y3629992D01*
X2180081Y3590036D02*
G01*
X2199893Y3610102D01*
X2199893Y4009897D01*
X2229865Y4039870D01*
X2229865Y4659884D01*
X2299970Y3100070D02*
G01*
X2179827Y3100070D01*
X2150109Y3129787D01*
X2150109Y3499865D01*
X2119884Y3530092D01*
X2119884Y3629660D01*
X2150109Y3659886D01*
X2150109Y3729989D01*
X2139950Y3739895D01*
X2139950Y4020057D01*
X2180081Y4059936D01*
X2180081Y4609845D01*
X2139950Y4649978D01*
X1919986Y4649978D01*
X1510004Y2980004D02*
G01*
X2559992Y2980004D01*
X2559992Y2980004D01*
X2729991Y3539995D02*
G01*
X2739999Y3529987D01*
X2739999Y3359988D01*
X2359995Y2029995D02*
G01*
X2579994Y2029995D01*
X2359913Y2130044D02*
G01*
X2629915Y2130044D01*
X1380007Y3351364D02*
G01*
X1380007Y3229990D01*
X1380007Y3489985D02*
G01*
X1380007Y3351364D01*
X3450081Y2599944D02*
G01*
X3450081Y2530094D01*
X3420109Y2500121D01*
X1309878Y2500121D01*
X1279905Y2530094D01*
X1279905Y3199892D01*
X1309878Y3230118D01*
X1379981Y3230118D01*
X2499995Y3099993D02*
G01*
X2439995Y3099993D01*
X2399995Y3139993D01*
X2399995Y3549992D01*
X2419995Y3569992D01*
X2609994Y3569992D01*
X5249923Y4100065D02*
G01*
X5250002Y4099989D01*
X5250002Y3780002D01*
X3819984Y3459987D02*
G01*
X3819984Y3259988D01*
X3819982Y3259988D01*
X3029991Y2019988D02*
G01*
X3039976Y2009998D01*
X3130016Y2009998D01*
X3140003Y2019985D01*
X3450005Y2019985D01*
X2670050Y3400046D02*
G01*
X2670050Y3679949D01*
X2629915Y3720084D01*
X2629992Y4799992D01*
X2609999Y4819990D01*
X2340000Y4819990D01*
X2250008Y4909982D01*
X2250008Y5359984D01*
X2729991Y3540000D02*
G01*
X2729991Y3700015D01*
X2679948Y3750053D01*
X2679948Y4810000D01*
X2620007Y4869942D01*
X2350008Y4869942D01*
X2319985Y4899964D01*
X2319985Y5259984D01*
X2319995Y5259974D01*
X2319995Y5199992D01*
X4109994Y3569997D02*
G01*
X4209991Y3470000D01*
X4209991Y3169993D01*
X4169978Y3129981D01*
X4109994Y3129981D01*
X3089981Y2070000D02*
G01*
X3089981Y2169982D01*
X3089998Y2169998D01*
X3380003Y2169998D01*
X3709924Y3729989D02*
G01*
X3750056Y3690112D01*
X3750056Y2999994D01*
X3860038Y2890012D01*
X4029963Y2890012D01*
X3909999Y3459987D02*
G01*
X3909999Y3459987D01*
X3909999Y3259985D01*
X3299968Y3400044D02*
G01*
X3269995Y3430015D01*
X3269995Y4089907D01*
X3290061Y4109973D01*
X3439922Y4109973D01*
X3459988Y4130039D01*
X3459988Y4500118D01*
X3439922Y4519929D01*
X2979927Y4519929D01*
X2940050Y4480052D01*
X2940050Y4389881D01*
X3569995Y4689982D02*
G01*
X3569995Y4169991D01*
X3589995Y4149991D01*
X3629992Y4149991D01*
X3679911Y4100065D01*
X3700015Y4100065D01*
X3450081Y2230120D02*
G01*
X3400043Y2279904D01*
X2489961Y2279904D01*
X2329941Y2439923D01*
X2059940Y2439923D01*
X3450081Y2230120D02*
G01*
X3450081Y2119884D01*
X3994658Y1575307D01*
X4450079Y1575307D01*
X4659995Y1859998D02*
G01*
X4619980Y1819983D01*
X4619980Y1669999D01*
X2359913Y2210054D02*
G01*
X2919984Y2210054D01*
X2949956Y2180081D01*
X2949956Y1940052D01*
X2979927Y1910079D01*
X3589781Y1910079D01*
X3999991Y1499870D01*
X4430013Y1499870D01*
X4450079Y1479804D01*
X4450079Y1424686D01*
X5449989Y1739996D02*
G01*
X5949988Y1739996D01*
X3970020Y2959862D02*
G01*
X3949954Y2979928D01*
X3949954Y3210052D01*
X3969258Y3229102D01*
X3969258Y3499865D01*
X3929888Y3539236D01*
X3929888Y3629913D01*
X3480054Y3919981D02*
G01*
X4659884Y3919981D01*
X4709922Y3869944D01*
X4709922Y2919984D01*
X4789931Y2839973D01*
X6079997Y2839973D01*
X6110731Y2809239D01*
X4089994Y2819994D02*
G01*
X4089994Y2799996D01*
X3829989Y2539989D01*
X3829989Y2340000D01*
X4169869Y2799984D02*
G01*
X4159963Y2799984D01*
X3899867Y2539888D01*
X3899867Y2309764D01*
X3869895Y2279792D01*
X3800045Y2279792D01*
X3769819Y2309764D01*
X3769819Y2789824D01*
X3640025Y2919872D01*
X3210003Y2919872D01*
X4169918Y2709926D02*
G01*
X3949954Y2489962D01*
X3949954Y2249931D01*
X3919981Y2219960D01*
X3819906Y2219960D01*
X4109999Y3569995D02*
G01*
X4069994Y3610002D01*
X4069994Y3710000D01*
X3839972Y4620005D02*
G01*
X3960113Y4620005D01*
X3350008Y4029986D02*
G01*
X3379998Y4059994D01*
X3519995Y4059994D01*
X3549997Y4029991D01*
X4749985Y4029991D01*
X4850002Y3929976D01*
X4850002Y2980004D01*
X5400040Y1552194D02*
G01*
X5197856Y1552194D01*
X4999990Y1750060D01*
X4999990Y2139950D01*
X4940045Y2199894D01*
X4350004Y2199894D01*
X4309872Y2240026D01*
X4309872Y2949955D01*
X4329938Y2970021D01*
X4510024Y3020060D02*
G01*
X4510024Y2290063D01*
X4549902Y2249931D01*
X4979924Y2249931D01*
X5059934Y2169921D01*
X5059934Y2100071D01*
X5130038Y2029968D01*
X5299963Y2029968D01*
X3990086Y3690112D02*
G01*
X3990086Y3729989D01*
X4029963Y3769868D01*
X4109974Y3769868D01*
X4139945Y3739895D01*
X4139945Y3700018D01*
X4160011Y3679952D01*
X4279900Y3679952D01*
X4309872Y3650234D01*
X4309872Y3569970D01*
X5450077Y1659889D02*
G01*
X6009893Y1659889D01*
X2759981Y3239985D02*
G01*
X2689986Y3169991D01*
X2689986Y2929989D01*
X2619987Y2859991D01*
X2399982Y2859991D01*
X2359985Y2819994D01*
X2359985Y2759979D01*
X2359919Y2299970D02*
G01*
X2260091Y2299970D01*
X2199891Y2240023D01*
X2199891Y1700019D01*
X2299964Y1599945D01*
X3810000Y1599945D01*
X4059930Y1350007D01*
X4700015Y1350007D01*
X4850002Y1499994D01*
X4850002Y1640001D01*
X3509992Y4629990D02*
G01*
X3519992Y4619990D01*
X3519992Y4129991D01*
X3559992Y4089991D01*
X3579992Y4089991D01*
X3919981Y1009904D02*
G01*
X3919981Y1139952D01*
X3970020Y1189989D01*
X4799838Y1189989D01*
X4929886Y1320037D01*
X4940045Y1320037D01*
X4979924Y1359915D01*
X6029959Y1359915D01*
X6169913Y1499870D01*
X6169913Y2752344D01*
X6109970Y2812287D01*
X3480054Y3839971D02*
G01*
X4610100Y3839971D01*
X4640072Y3810000D01*
X4640072Y2910078D01*
X4770120Y2780029D01*
X6009893Y2780029D01*
X6100063Y2690113D01*
X6100063Y1510029D01*
X6020054Y1430020D01*
X4960111Y1430020D01*
X4769865Y1240028D01*
X3899915Y1240028D01*
X3849877Y1189989D01*
X3849877Y960120D01*
X3910075Y899921D01*
X4109974Y3350005D02*
G01*
X4029963Y3350005D01*
X4009897Y3329939D01*
X4009897Y3020060D01*
X4059936Y2970021D01*
X4199890Y2970021D01*
X4249927Y2919984D01*
X4249927Y2199894D01*
X4299965Y2150110D01*
X4919979Y2150110D01*
X4940045Y2130044D01*
X4940045Y1489963D01*
X4740147Y1290065D01*
X4029963Y1290065D01*
X3789934Y1530095D01*
X2119884Y1530095D01*
X2059940Y1590039D01*
X2059940Y2310129D01*
X1949958Y2420112D01*
X1160018Y2420112D01*
X1009904Y2569971D01*
X1009904Y3590036D01*
X1059942Y3640073D01*
X1499870Y3640073D01*
X1549907Y3590036D01*
X1549907Y3119881D01*
X1640078Y3029965D01*
X2519934Y3029965D01*
X2579877Y3089910D01*
X2579877Y3160013D01*
X2499868Y3240023D01*
X4040124Y899921D02*
G01*
X4040124Y940054D01*
X3999991Y979931D01*
X3999991Y1119886D01*
X4020058Y1139952D01*
X4830063Y1139952D01*
X4990084Y1299971D01*
X6100063Y1299971D01*
X6240018Y1439926D01*
X6240018Y2789936D01*
X6130036Y2899918D01*
X4809997Y2899918D01*
X4780025Y2929889D01*
X4780025Y3919981D01*
X4720081Y3979926D01*
X3519931Y3979926D01*
X3499865Y3999992D01*
X3459988Y3999992D01*
X3130041Y2880105D02*
G01*
X3160013Y2849879D01*
X3620008Y2849879D01*
X3720084Y2749804D01*
X3720084Y1909826D01*
X3949954Y1679955D01*
X4510024Y1679955D01*
X4569968Y1620012D01*
X4569968Y1590039D01*
X4610100Y1549907D01*
X4719827Y1549907D01*
X4750054Y1579879D01*
X4750054Y1640078D01*
X3569970Y2400045D02*
G01*
X3649979Y2400045D01*
X3670045Y2420112D01*
X3670045Y2720086D01*
X3590036Y2800095D01*
X3089909Y2800095D01*
X3050031Y2839973D01*
X3050031Y2940050D01*
X3089909Y2979928D01*
X3249929Y2979928D01*
X3299968Y3029965D01*
X3299968Y3400044D01*
X2309875Y2869945D02*
G01*
X2309875Y2910078D01*
X2579877Y2910078D01*
X2629915Y2959862D01*
X2629915Y3260089D01*
X2659888Y3290062D01*
X2789936Y3290062D01*
X2819908Y3320034D01*
X2819908Y3359912D01*
X1905000Y294894D02*
G01*
X1909894Y289999D01*
X2169995Y289999D01*
X5427063Y465013D02*
G01*
X5419989Y472086D01*
X5419989Y609998D01*
X6120086Y3940047D02*
G01*
X6450075Y3940047D01*
X6450075Y2510028D01*
X5744707Y3940047D02*
G01*
X6120086Y3940047D01*
X5370068Y3940047D02*
G01*
X5744707Y3940047D01*
X5744707Y3940047D02*
G01*
X5829988Y3854767D01*
X5829988Y3569992D01*
X6120086Y3940047D02*
G01*
X6139987Y3920147D01*
X6139987Y3459993D01*
X5400040Y1847850D02*
G01*
X5769988Y2217798D01*
X5769988Y2539994D01*
X2413000Y5570905D02*
G01*
X2429995Y5553910D01*
X2429995Y5259989D01*
X5629216Y3940047D02*
G01*
X5639988Y3950820D01*
X5639988Y4349991D01*
D11*
G01*
X1699994Y1699996D03*
G01*
X1899998Y1699996D03*
D12*
G01*
X1379999Y2959994D03*
G01*
X1179995Y2959994D03*
G01*
X1379999Y2699994D03*
G01*
X1179995Y2699994D03*
G01*
X1379999Y3229993D03*
G01*
X1179995Y3229993D03*
G01*
X1379999Y3489993D03*
G01*
X1179995Y3489993D03*
D13*
G01*
X3209996Y4180001D03*
G01*
X3389990Y4180001D03*
D14*
G01*
X3209996Y4259986D03*
G01*
X3389990Y4259986D03*
G01*
X3209996Y4339996D03*
G01*
X3389990Y4339996D03*
D13*
G01*
X3209996Y4419980D03*
G01*
X3389990Y4419980D03*
D16*
G01*
X3329990Y2599994D03*
D17*
G01*
X3329993Y2399992D03*
D16*
G01*
X3569995Y2599994D03*
D17*
G01*
X3569992Y2399992D03*
D12*
G01*
X2499997Y3459993D03*
G01*
X2299992Y3459993D03*
D11*
G01*
X4109989Y3349993D03*
G01*
X4309993Y3349993D03*
G01*
X4109989Y3569992D03*
G01*
X4309993Y3569992D03*
G01*
X4109989Y3129993D03*
G01*
X4309993Y3129993D03*
D12*
G01*
X2499997Y3239993D03*
G01*
X2299992Y3239993D03*
D18*
G01*
X888998Y5570899D03*
G01*
X888998Y5020900D03*
G01*
X1142998Y5570899D03*
G01*
X1142998Y5020900D03*
G01*
X1396998Y5570899D03*
G01*
X1396998Y5020900D03*
G01*
X1650998Y5570899D03*
G01*
X1650998Y5020900D03*
G01*
X1904998Y5570899D03*
G01*
X1904998Y5020900D03*
G01*
X2158998Y5570899D03*
G01*
X2158998Y5020900D03*
G01*
X2412998Y5570899D03*
G01*
X2412998Y5020900D03*
G01*
X2666998Y5570899D03*
G01*
X2666998Y5020900D03*
G01*
X2920998Y5570899D03*
G01*
X2920998Y5020900D03*
G01*
X3174998Y5570899D03*
G01*
X3174998Y5020900D03*
G01*
X3428998Y5570899D03*
G01*
X3428998Y5020900D03*
G01*
X3682998Y5570899D03*
G01*
X3682998Y5020900D03*
G01*
X3936998Y5570899D03*
G01*
X3936998Y5020900D03*
G01*
X4190998Y5570899D03*
G01*
X4190998Y5020900D03*
G01*
X4444998Y5570899D03*
G01*
X4444998Y5020900D03*
G01*
X4698998Y5570899D03*
G01*
X4698998Y5020900D03*
G01*
X4952998Y5570899D03*
G01*
X4952998Y5020900D03*
G01*
X5206998Y5570899D03*
G01*
X5206998Y5020900D03*
G01*
X5714998Y5020900D03*
G01*
X5714998Y5570899D03*
G01*
X5460998Y5020900D03*
G01*
X5460998Y5570899D03*
D19*
G01*
X406400Y381000D03*
G01*
X6210300Y381000D03*
G01*
X6197600Y5283200D03*
G01*
X406400Y5283200D03*
D20*
G01*
X889101Y5020792D03*
G01*
X1143000Y5020818D03*
G01*
X1397000Y5020818D03*
G01*
X1651101Y5020792D03*
G01*
X1905101Y5020792D03*
G01*
X2413101Y5020792D03*
G01*
X2667101Y5020792D03*
G01*
X2921101Y5020792D03*
G01*
X3175101Y5020792D03*
G01*
X3429101Y5020792D03*
G01*
X3683101Y5020792D03*
G01*
X3937101Y5020792D03*
G01*
X4191101Y5020792D03*
G01*
X4445101Y5020792D03*
G01*
X4699101Y5020792D03*
G01*
X4953101Y5020792D03*
G01*
X5207101Y5020792D03*
G01*
X5461101Y5020792D03*
G01*
X5715101Y5020792D03*
G01*
X5715101Y5570778D03*
G01*
X5461101Y5570778D03*
G01*
X5207101Y5570778D03*
G01*
X4953101Y5570778D03*
G01*
X4699101Y5570778D03*
G01*
X4445101Y5570778D03*
G01*
X4191101Y5570778D03*
G01*
X3937101Y5570778D03*
G01*
X3683101Y5570778D03*
G01*
X3429101Y5570778D03*
G01*
X3175101Y5570778D03*
G01*
X2921101Y5570778D03*
G01*
X2413101Y5570778D03*
G01*
X2159101Y5570778D03*
G01*
X1905101Y5570778D03*
G01*
X1651101Y5570778D03*
G01*
X1397000Y5570728D03*
G01*
X1143000Y5570728D03*
G01*
X889101Y5570778D03*
G01*
X2159101Y5020792D03*
G01*
X3299993Y3399993D03*
G01*
X2080006Y549986D03*
G01*
X2299995Y549986D03*
G01*
X2189988Y1429994D03*
G01*
X2199893Y1350010D03*
G01*
X1580006Y1580006D03*
G01*
X3909999Y899998D03*
G01*
X4039997Y899998D03*
G01*
X3919981Y1009904D03*
G01*
X4659985Y1859991D03*
G01*
X2499995Y3239998D03*
G01*
X2299995Y3239998D03*
G01*
X4109974Y3129787D03*
G01*
X4309973Y3129914D03*
G01*
X4309872Y3569970D03*
G01*
X4109974Y3349929D03*
G01*
X4309973Y3349929D03*
G01*
X3329990Y2399995D03*
G01*
X3569995Y2399995D03*
G01*
X3569995Y2599994D03*
G01*
X2299995Y3459987D03*
G01*
X3210001Y4179976D03*
G01*
X3189986Y4375200D03*
G01*
X1380007Y3229990D03*
G01*
X1380007Y2959988D03*
G01*
X1180007Y3099384D03*
G01*
X1897634Y1699996D03*
G01*
X1699996Y1699996D03*
G01*
X1389989Y1440002D03*
G01*
X1389887Y1359915D03*
G01*
X299999Y1340002D03*
G01*
X199999Y1340002D03*
G01*
X389991Y1340002D03*
G01*
X399999Y799998D03*
G01*
X299999Y799998D03*
G01*
X210007Y799998D03*
G01*
X340004Y1959990D03*
G01*
X2667101Y5570778D03*
G01*
X3640048Y4220108D03*
G01*
X3899992Y4447870D03*
G01*
X3699992Y4099991D03*
G01*
X3510000Y4629988D03*
G01*
X3569995Y4689982D03*
G01*
X1899996Y740003D03*
G01*
X2299970Y3679952D03*
G01*
X3210001Y2919984D03*
G01*
X3129991Y2880004D03*
G01*
X3089986Y2069998D03*
G01*
X3029991Y2019985D03*
G01*
X2669997Y3399993D03*
G01*
X2819984Y3359988D03*
G01*
X2759989Y3229990D03*
G01*
X4449978Y1575307D03*
G01*
X130047Y500126D03*
G01*
X290068Y2599944D03*
G01*
X1940001Y3810000D03*
G01*
X3129991Y3909999D03*
G01*
X2929991Y3749979D03*
G01*
X2929940Y4189984D03*
G01*
X3129991Y4029989D03*
G01*
X1940001Y4029989D03*
G01*
X3450005Y2229993D03*
G01*
X2839999Y3759987D03*
G01*
X2839999Y3639997D03*
G01*
X2610002Y3569995D03*
G01*
X2729991Y3539997D03*
G01*
X2499995Y3099993D03*
G01*
X2089988Y3689985D03*
G01*
X2119985Y4089984D03*
G01*
X2029993Y3629990D03*
G01*
X2029993Y4099991D03*
G01*
X2559989Y2980004D03*
G01*
X2180005Y3589985D03*
G01*
X2299995Y3099993D03*
G01*
X2229865Y4647869D03*
G01*
X1919986Y4649978D03*
G01*
X1510004Y2980004D03*
G01*
X2739999Y3359988D03*
G01*
X2359990Y2029993D03*
G01*
X2580004Y2029993D03*
G01*
X2629915Y2130044D03*
G01*
X2359990Y2129993D03*
G01*
X1380007Y3351352D03*
G01*
X3380003Y2169998D03*
G01*
X3450005Y2019985D03*
G01*
X3829989Y2340000D03*
G01*
X3819982Y2219985D03*
G01*
X2940050Y4389881D03*
G01*
X3350006Y4029989D03*
G01*
X3459988Y3999992D03*
G01*
X3480003Y3919981D03*
G01*
X3480003Y3839997D03*
G01*
X3710000Y3729989D03*
G01*
X5250002Y3780002D03*
G01*
X5249925Y4100068D03*
G01*
X3819982Y3259988D03*
G01*
X3819982Y3459987D03*
G01*
X3909999Y3459987D03*
G01*
X3909999Y3259988D03*
G01*
X3969994Y2959988D03*
G01*
X3929989Y3629990D03*
G01*
X4029989Y2889986D03*
G01*
X4619980Y1669999D03*
G01*
X4169994Y2710002D03*
G01*
X4089984Y2819984D03*
G01*
X4169994Y2799994D03*
G01*
X2310002Y2869996D03*
G01*
X2359990Y2749981D03*
G01*
X2359990Y2299995D03*
G01*
X2359990Y2210003D03*
G01*
X2250008Y5359984D03*
G01*
X2319985Y5259984D03*
G01*
X3839972Y4620005D03*
G01*
X3960113Y4620005D03*
G01*
X4069994Y3710000D03*
G01*
X3990086Y3690112D03*
G01*
X4450079Y1424686D03*
G01*
X2059940Y2439923D03*
G01*
X4750003Y1640001D03*
G01*
X4850002Y1640001D03*
G01*
X5009997Y1640001D03*
G01*
X5450001Y1740001D03*
G01*
X5450077Y1659889D03*
G01*
X5950000Y1740001D03*
G01*
X5400040Y1552194D03*
G01*
X5299989Y2029993D03*
G01*
X4509998Y3019983D03*
G01*
X4329988Y2969996D03*
G01*
X6009893Y1659889D03*
G01*
X4850002Y2980004D03*
G01*
X3580002Y4089984D03*
G01*
X1905000Y294894D03*
G01*
X2169998Y289991D03*
G01*
X5427065Y465023D03*
G01*
X5419979Y610006D03*
G01*
X5370068Y3940047D03*
G01*
X6450075Y2510028D03*
G01*
X5744718Y3940047D03*
G01*
X6120079Y3940047D03*
G01*
X6139992Y3459987D03*
G01*
X5829985Y3569995D03*
G01*
X5400040Y1847850D03*
G01*
X5769990Y2540000D03*
G01*
X2429992Y5259984D03*
G01*
X5639993Y4349978D03*
M02*
