M48
METRIC,LZ,000.000
;FILE_FORMAT=3:3
;TYPE=PLATED
;Layer: PTH_Through_Via
;EasyEDA v6.5.51, 2026-07-31 12:43:52
;5a5feb92e1c84014a20b6db849bd16e2,3391b54213b649ec8eae316ce3f6a029,10
;Gerber Generator version 0.2
;Holesize 1 = 0.310 mm
T01C0.310
%
G05
G90
T01
X008891Y050208
X011430Y050208
X013970Y050208
X016511Y050208
X019051Y050208
X024131Y050208
X026671Y050208
X029211Y050208
X031751Y050208
X034291Y050208
X036831Y050208
X039371Y050208
X041911Y050208
X044451Y050208
X046991Y050208
X049531Y050208
X052071Y050208
X054611Y050208
X057151Y050208
X057151Y055708
X054611Y055708
X052071Y055708
X049531Y055708
X046991Y055708
X044451Y055708
X041911Y055708
X039371Y055708
X036831Y055708
X034291Y055708
X031751Y055708
X029211Y055708
X024131Y055708
X021591Y055708
X019051Y055708
X016511Y055708
X013970Y055707
X011430Y055707
X008891Y055708
X021591Y050208
X033000Y034000
X020800Y005500
X023000Y005500
X021900Y014300
X021999Y013500
X015800Y015800
X039100Y009000
X040400Y009000
X039200Y010099
X046600Y018600
X025000Y032400
X023000Y032400
X041100Y031298
X043100Y031299
X043099Y035700
X041100Y033499
X043100Y033499
X033300Y024000
X035700Y024000
X035700Y026000
X023000Y034600
X032100Y041800
X031900Y043752
X013800Y032300
X013800Y029600
X011800Y030994
X018976Y017000
X017000Y017000
X013900Y014400
X013899Y013599
X003000Y013400
X002000Y013400
X003900Y013400
X004000Y008000
X003000Y008000
X002100Y008000
X003400Y019600
X026671Y055708
X036400Y042201
X039000Y044479
X037000Y041000
X035100Y046300
X035700Y046900
X019000Y007400
X023000Y036800
X032100Y029200
X031300Y028800
X030900Y020700
X030300Y020200
X026700Y034000
X028200Y033600
X027600Y032300
X044500Y015753
X001300Y005001
X002901Y025999
X019400Y038100
X031300Y039100
X029300Y037500
X029299Y041900
X031300Y040300
X019400Y040300
X034500Y022300
X028400Y037600
X028400Y036400
X026100Y035700
X027300Y035400
X025000Y031000
X020900Y036900
X021200Y040900
X020300Y036300
X020300Y041000
X025600Y029800
X021800Y035900
X023000Y031000
X022299Y046479
X019200Y046500
X015100Y029800
X027400Y033600
X023600Y020300
X025800Y020300
X026299Y021300
X023600Y021300
X013800Y033514
X033800Y021700
X034500Y020200
X038300Y023400
X038200Y022200
X029401Y043899
X033500Y040300
X034600Y040000
X034800Y039200
X034800Y038400
X037100Y037300
X052500Y037800
X052499Y041001
X038200Y032600
X038200Y034600
X039100Y034600
X039100Y032600
X039700Y029600
X039300Y036300
X040300Y028900
X046200Y016700
X041700Y027100
X040900Y028200
X041700Y028000
X023100Y028700
X023600Y027500
X023600Y023000
X023600Y022100
X022500Y053600
X023200Y052600
X038400Y046200
X039601Y046200
X040700Y037100
X039901Y036901
X044501Y014247
X020599Y024399
X047500Y016400
X048500Y016400
X050100Y016400
X054500Y017400
X054501Y016599
X059500Y017400
X054000Y015522
X053000Y020300
X045100Y030200
X043300Y029700
X060099Y016599
X048500Y029800
X035800Y040900
X019050Y002949
X021700Y002900
X054271Y004650
X054200Y006100
X053701Y039400
X064501Y025100
X057447Y039400
X061201Y039400
X061400Y034600
X058300Y035700
X054000Y018479
X057700Y025400
X024300Y052600
X056400Y043500
M30
